<?xml version="1.0" encoding="utf-8"?>
<!-- Generator: Adobe Illustrator 23.0.0, SVG Export Plug-In . SVG Version: 6.00 Build 0)  -->
<svg version="1.1" id="Capa_1" xmlns="http://www.w3.org/2000/svg" xmlns:xlink="http://www.w3.org/1999/xlink" x="0px" y="0px"
	 viewBox="0 0 211 67.9" style="enable-background:new 0 0 211 67.9;" xml:space="preserve">
<style type="text/css">
	.st0{fill:#00A0DF;}
</style>
<g>
	<path class="st0" d="M107.4,18.7L114.1,7c0.4-0.6,0.1-1.2-0.6-1.3c-0.1,0-0.1,0-0.2,0H99.9c-0.8,0-1.2,0.6-0.8,1.3l6.6,11.5
		l0.1,0.2C106.3,19.4,107,19.4,107.4,18.7z"/>
	<path class="st0" d="M107.4,41.4l6.8-11.7c0.4-0.6,0.1-1.2-0.6-1.3c-0.1,0-0.1,0-0.2,0H99.9c-0.8,0-1.1,0.6-0.7,1.3l6.6,11.5
		l0.1,0.2C106.3,42.1,107,42.1,107.4,41.4z"/>
	<path class="st0" d="M107.4,64l6.8-11.7c0.4-0.6,0.1-1.2-0.6-1.3c-0.1,0-0.1,0-0.2,0H99.9c-0.8,0-1.1,0.6-0.7,1.3l6.6,11.5l0.1,0.2
		C106.3,64.7,107,64.7,107.4,64z"/>
</g>
</svg>
