<?xml version="1.0" encoding="utf-8"?>
<!-- Generator: Adobe Illustrator 23.0.0, SVG Export Plug-In . SVG Version: 6.00 Build 0)  -->
<svg version="1.1" id="Capa_1" xmlns="http://www.w3.org/2000/svg" xmlns:xlink="http://www.w3.org/1999/xlink" x="0px" y="0px"
	 viewBox="0 0 68 25.6" style="enable-background:new 0 0 68 25.6;" xml:space="preserve">
<style type="text/css">
	.st0{fill:#065F85;}
	.st1{fill:#4C4D4F;}
	.st2{fill:none;stroke:#065F85;stroke-width:2;stroke-miterlimit:10;}
	.st3{fill:none;}
	.st4{fill:#FFFFFF;}
	.st5{fill:#145F85;}
	.st6{fill:#00A0DF;}
	.st7{fill:none;stroke:#FFFFFF;stroke-width:3;stroke-miterlimit:10;}
	.st8{fill:url(#SVGID_1_);}
	.st9{fill:url(#SVGID_2_);}
	.st10{fill:url(#SVGID_3_);}
	.st11{fill:#B5D173;}
	.st12{fill:#073651;}
	.st13{fill:#979593;}
	.st14{fill:#004876;}
	.st15{fill:url(#SVGID_4_);}
	.st16{fill:none;stroke:#073651;stroke-width:5;stroke-miterlimit:10;}
	.st17{fill:#F9F9F9;stroke:#065F85;stroke-width:3;stroke-miterlimit:10;}
	.st18{fill:url(#SVGID_5_);}
	.st19{fill:url(#SVGID_6_);}
	.st20{fill:url(#SVGID_7_);}
	.st21{fill:url(#SVGID_8_);}
	.st22{filter:url(#Adobe_OpacityMaskFilter);}
	.st23{mask:url(#SVGID_9_);}
	.st24{opacity:0.26;fill:#C6C6C5;}
	.st25{fill:#C6C6C5;}
	.st26{fill:#169BD7;}
	.st27{filter:url(#Adobe_OpacityMaskFilter_1_);}
	.st28{fill:none;stroke:#F5F5F5;stroke-width:0.25;stroke-miterlimit:10;}
	.st29{clip-path:url(#SVGID_11_);}
	.st30{clip-path:url(#SVGID_13_);fill-rule:evenodd;clip-rule:evenodd;fill:#13110C;}
	.st31{clip-path:url(#SVGID_13_);fill:#00A0DD;}
	.st32{clip-path:url(#SVGID_13_);fill:#FFFFFF;}
	.st33{clip-path:url(#SVGID_13_);fill:#13110C;}
	.st34{fill:none;stroke:#C6C6C5;stroke-width:2;stroke-miterlimit:10;}
	.st35{filter:url(#Adobe_OpacityMaskFilter_2_);}
	.st36{fill-rule:evenodd;clip-rule:evenodd;fill:#065F85;}
</style>
<g>
	<path class="st6" d="M18.3,11.9L6.5,5.1C5.9,4.7,5.4,5,5.3,5.7c0,0.1,0,0.1,0,0.2v13.5c0,0.8,0.6,1.1,1.3,0.7L18,13.5l0.2-0.1
		C19,12.9,19,12.3,18.3,11.9z"/>
	<path class="st6" d="M40.9,11.9L29.2,5.1C28.6,4.7,28,5,28,5.7c0,0.1,0,0.1,0,0.2v13.5c0,0.8,0.6,1.1,1.3,0.7l11.5-6.6l0.2-0.1
		C41.6,12.9,41.6,12.3,40.9,11.9z"/>
	<path class="st6" d="M63.6,11.9L51.9,5.1c-0.6-0.4-1.2-0.1-1.3,0.6c0,0.1,0,0.1,0,0.2v13.5c0,0.8,0.6,1.1,1.3,0.7l11.5-6.6l0.2-0.1
		C64.3,12.9,64.3,12.3,63.6,11.9z"/>
</g>
</svg>
