<?xml version="1.0" encoding="utf-8"?>
<!-- Generator: Adobe Illustrator 23.0.0, SVG Export Plug-In . SVG Version: 6.00 Build 0)  -->
<svg version="1.1" id="Capa_1" xmlns="http://www.w3.org/2000/svg" xmlns:xlink="http://www.w3.org/1999/xlink" x="0px" y="0px"
	 viewBox="0 0 104.1 95.4" style="enable-background:new 0 0 104.1 95.4;" xml:space="preserve">
<style type="text/css">
	.st0{fill:#065F85;}
	.st1{fill:#4C4D4F;}
	.st2{fill:none;stroke:#065F85;stroke-width:2;stroke-miterlimit:10;}
	.st3{fill:none;}
	.st4{fill:#FFFFFF;}
	.st5{fill:#145F85;}
</style>
<path class="st2" d="M86,91.8H19c-8.2,0-14.8-6.6-14.8-14.8V18.4c0-8.2,6.6-14.8,14.8-14.8H86c8.2,0,14.8,6.6,14.8,14.8V77
	C100.8,85.2,94.2,91.8,86,91.8z"/>
<g>
	<path class="st5" d="M45,27.3c3.5,0,6.3-2.6,6.3-5.9c0-3.2-2.8-5.9-6.3-5.9c-3.5,0-6.3,2.6-6.3,5.9C38.8,24.7,41.6,27.3,45,27.3z"
		/>
	<path class="st5" d="M53.7,41.6c-5.2-0.8-8.3-4.1-10-6.8c0.2-4.5-1.1-8-3.6-8.6c-3.5-0.9-7.8,3.9-9.7,10.7
		c-1.4,5.1-1.1,9.9,0.6,12.3c0,0-0.1,26.3-0.1,27.3c0,1.9,1.3,3.4,2.8,3.4c1.6,0,2.8-1.5,2.8-3.4c0-1,0.1-2.4,0.1-2.4V50
		c2.2-1.4,4.3-4.4,5.6-8.1c3.5,3.6,10.5,3.9,10.5,3.9L53.7,41.6z"/>
</g>
<path class="st0" d="M57.2,18.6l-1.8,4.7h2.7l-7.6,25.9h6.7v30.6h16V18.6H57.2z M69.1,41.5c-1,0.6-2,1-3.2,1.1l0,2.7l-3.5,0l0-2.7
	c-3.3-0.4-5.2-2.1-5.8-5l3.7-0.3c0.3,1.8,1.6,2.7,3.9,2.7c2.2,0,3.3-0.7,3.3-2.2c0-0.7-0.3-1.2-0.8-1.5c-0.5-0.3-1.8-0.7-3.8-1.1
	c-2-0.4-3.4-1-4.3-1.8c-0.9-0.8-1.3-1.8-1.3-3c0-1.3,0.6-2.3,1.7-3.2c0.8-0.6,1.9-1,3.3-1.2l0-2.9l3.5,0l0,3c3,0.4,4.6,1.8,4.8,4.1
	L67,30.4c-0.1-1.1-1.1-1.7-3-1.7c-1.9,0-2.9,0.5-2.9,1.5c0,0.6,0.3,1.1,0.9,1.4c0.6,0.3,1.9,0.6,3.8,1c1.9,0.4,3.3,1,4.2,1.8
	c0.9,0.9,1.3,2,1.3,3.3C71.2,39.4,70.5,40.6,69.1,41.5z"/>
</svg>
