<?xml version="1.0" encoding="utf-8"?>
<!-- Generator: Adobe Illustrator 23.0.0, SVG Export Plug-In . SVG Version: 6.00 Build 0)  -->
<svg version="1.1" id="Capa_1" xmlns="http://www.w3.org/2000/svg" xmlns:xlink="http://www.w3.org/1999/xlink" x="0px" y="0px"
	 viewBox="0 0 104.1 95.4" style="enable-background:new 0 0 104.1 95.4;" xml:space="preserve">
<style type="text/css">
	.st0{fill:#065F85;}
	.st1{fill:#4C4D4F;}
	.st2{fill:none;stroke:#065F85;stroke-width:2;stroke-miterlimit:10;}
	.st3{fill:none;}
	.st4{fill:#FFFFFF;}
	.st5{fill:#145F85;}
</style>
<path class="st2" d="M85.5,91.8H18.5c-8.2,0-14.8-6.6-14.8-14.8V18.4c0-8.2,6.6-14.8,14.8-14.8h67.1c8.2,0,14.8,6.6,14.8,14.8V77
	C100.3,85.2,93.7,91.8,85.5,91.8z"/>
<g>
	<g>
		<path class="st0" d="M31.1,29.2c-6.1,0-11.1,5-11.1,11.1c0,6.1,5,11.1,11.1,11.1c4,0,7.5-2.1,9.5-5.3c-1.5-2.5-3.5-7-1.2-13.3
			C37.3,30.6,34.4,29.2,31.1,29.2z"/>
		<path class="st0" d="M38.7,49.9c-0.1,0.1-0.3,0.2-0.5,0.4c-1.1,2.9-3.9,5-7.2,5c-3.3,0-6.1-2.1-7.2-5c-0.3-0.2-0.6-0.5-0.8-0.6
			c-0.1-0.1-0.1-0.1-0.2-0.1l-0.1,0.1c-6.9,6-6.8,16.5-6.8,16.9l0,0.4h17.7c0.3-4.1,1.5-11.3,6.3-16.7c-0.4-0.3-0.6-0.5-0.8-0.7
			c-0.1,0.1-0.2,0.2-0.3,0.3C38.8,49.9,38.8,49.9,38.7,49.9z"/>
	</g>
	<g>
		<path class="st0" d="M61.6,49.2c-0.1,0.1-0.2,0.2-0.3,0.3c-0.1,0-0.1,0.1-0.2,0.1c-1.1,0.9-3.6,2.5-6.9,3c-0.3,0-0.7,0.1-1,0.1
			c-0.3,0-0.6,0-0.9,0c-1,0-2.1-0.1-3-0.3c-3.1-0.8-5.4-2.6-6.1-3.2c-0.1-0.1-0.1-0.1-0.2-0.2l-0.1,0.1c-7.9,6.9-7.8,18.9-7.8,19.4
			l0,0.4h34l0-0.5C68.5,54.7,63,50.1,61.6,49.2z M56.9,58.6l-4.8-2.4l-4.8,2.4v-5.9l4.8,2.6l4.8-2.6V58.6z"/>
	</g>
	<g>
		<g>
			<path class="st0" d="M39.7,38.5c0,7,5.7,12.8,12.8,12.8h0c3.4,0,6.6-1.3,9-3.7c2.4-2.4,3.7-5.6,3.7-9c0-7-5.7-12.8-12.8-12.8
				C45.4,25.7,39.7,31.4,39.7,38.5z"/>
		</g>
	</g>
	<path class="st0" d="M70.4,66.3l14.3,0l0-0.3c0-0.4-0.1-9.3-6.4-14.7l-0.1-0.1c-0.2,0.2-0.4,0.4-0.6,0.5l-4.4,8.6l-0.8-5.1l1.3-2
		c-0.8,0.2-1.6,0.3-2.5,0.3c-0.2,0-0.4,0-0.7,0c-0.4,0-0.8-0.1-1.2-0.1c-0.2,0-0.3-0.1-0.5-0.1l1.2,2l-0.8,4.8
		C69.9,62.4,70.3,64.7,70.4,66.3z"/>
	<path class="st0" d="M71.6,52.1c5.5,0,10-4.5,10-10c0-5.5-4.5-10-10-10c-2.2,0-4.3,0.7-6,2c0.5,1.4,0.8,3,0.8,4.6
		c0,3.4-1.2,6.4-3.3,8.8C64.9,50.3,68.1,52.1,71.6,52.1z"/>
</g>
</svg>
