<?xml version="1.0" encoding="utf-8"?>
<!-- Generator: Adobe Illustrator 23.0.0, SVG Export Plug-In . SVG Version: 6.00 Build 0)  -->
<svg version="1.1" id="Capa_1" xmlns="http://www.w3.org/2000/svg" xmlns:xlink="http://www.w3.org/1999/xlink" x="0px" y="0px"
	 viewBox="0 0 104.1 95.4" style="enable-background:new 0 0 104.1 95.4;" xml:space="preserve">
<style type="text/css">
	.st0{fill:#FFFFFF;}
	.st1{fill:#065F85;}
</style>
<path class="st0" d="M86.3,91.8h-67c-8.2,0-14.8-6.6-14.8-14.8V18.4c0-8.2,6.6-14.8,14.8-14.8h67.1c8.2,0,14.8,6.6,14.8,14.8V77
	C101.1,85.2,94.5,91.8,86.3,91.8z"/>
<path class="st1" d="M31.7,39.5l10.2-2.6l-4-7.8l2.9-5.4l-3-5.9L31,15.1l-1.4,0.7L35,26.4l-2.9,1.5L31,28.5L28.1,30l-5.4-10.6
	l-1.4,0.7l-1.7,7.1l3,5.9l6.1,0.8L31.7,39.5z M81.7,32.9L74.3,34l0.4,2.9l-10,0.7c-0.3,0-0.7-0.1-0.9-0.4l-7.2-7.7
	c-0.8-0.8-1.8-1.2-3-1.2c-2.9,0.2-7.1-0.2-10.3-2.6c-0.2-0.2-0.4-0.2-0.6-0.2c-0.3,0-0.6,0.2-0.7,0.6c-0.2,1.4-0.2,2.6,0.2,3.7
	c0.8,2.5,5.1,3.9,6.6,4.3c0.5,0.1,0.9,0.6,0.9,1.1s-0.3,1-0.9,1.1L27,41.9c-1.1,0.3-1.9,1.2-1.9,2.3c0,0.9,0.5,1.6,1.3,1.9l3.1,1.1
	c0.5,0.2,0.8,0.7,0.7,1.2l-0.2,2c-0.1,0.9,0.4,1.7,1.3,2l2.2,0.9c0.5,0.2,0.7,0.6,0.7,1.1l-0.1,1.8c0,0.9,0.6,1.7,1.5,2l1.8,0.5
	c0.5,0.1,0.9,0.6,0.9,1.2l0,1.1c0,0.9,0.5,1.7,1.4,2l1.5,0.5c1,0.3,2.1,0.4,3.1,0.4l19.1-1.3c3.4-0.2,6.7-1.9,8.8-4.6l2.6-3.3
	c0.2-0.3,0.5-0.4,0.8-0.4l1.1-0.1l0.5,4.3l7.4-1.4L81.7,32.9z M45,47.7c-0.4,0-0.8-0.3-0.9-0.8c-0.1-0.5,0.3-0.9,0.8-1l11.9-1.4
	c0.5-0.1,0.9,0.3,1,0.8s-0.3,0.9-0.8,1L45,47.7C45,47.7,45,47.7,45,47.7z M45.3,52c-0.1-0.5,0.2-0.9,0.7-1l11.8-2.1
	c0.5-0.1,0.9,0.2,1,0.7s-0.2,0.9-0.7,1l-11.8,2.1c-0.1,0-0.1,0-0.2,0C45.7,52.7,45.3,52.4,45.3,52z M58.7,54.5l-11.5,3.2
	c-0.1,0-0.2,0-0.2,0c-0.4,0-0.7-0.3-0.9-0.6c-0.1-0.5,0.1-1,0.6-1.1l11.5-3.2c0.5-0.1,1,0.1,1.1,0.6C59.5,53.9,59.2,54.3,58.7,54.5z
	 M65,75.4c0-0.2,0-0.3-0.1-0.5c0-0.1,0-0.3-0.1-0.4c0-0.2-0.1-0.3-0.1-0.5c0-0.1,0-0.2-0.1-0.4c-0.1-0.2-0.1-0.4-0.2-0.6
	c0-0.1-0.1-0.2-0.1-0.3c-0.1-0.3-0.2-0.6-0.4-0.8c-1.4-2.7-3.9-4.3-6.6-4.8l-1.5-3L44.7,65l3.5,6.7c-1.4,2.5-1.6,5.7-0.2,8.5
	c2.3,4.4,7.7,6.2,12.1,3.9c0.1,0,0.1-0.1,0.1-0.1l0,0c0.1,0,0.1-0.1,0.2-0.1c0.2-0.1,0.4-0.2,0.5-0.3c0.1-0.1,0.1-0.1,0.2-0.2
	c0.2-0.1,0.3-0.2,0.5-0.4c0.1-0.1,0.1-0.1,0.2-0.2c0.2-0.1,0.3-0.3,0.5-0.4c0.1-0.1,0.1-0.1,0.2-0.2c0.1-0.2,0.3-0.3,0.4-0.5
	c0.1-0.1,0.1-0.1,0.2-0.2c0.1-0.2,0.2-0.3,0.4-0.5c0-0.1,0.1-0.1,0.1-0.2c0.1-0.2,0.2-0.3,0.3-0.5c0-0.1,0.1-0.2,0.1-0.2
	c0.1-0.2,0.2-0.3,0.3-0.5c0-0.1,0.1-0.2,0.1-0.3c0.1-0.2,0.1-0.4,0.2-0.5c0-0.1,0.1-0.2,0.1-0.3c0-0.2,0.1-0.3,0.1-0.5
	c0-0.1,0-0.2,0.1-0.3c0-0.2,0.1-0.3,0.1-0.5c0-0.1,0-0.2,0-0.4c0-0.2,0-0.3,0-0.5c0-0.1,0-0.3,0-0.4C65,75.7,65,75.6,65,75.4z
	 M60.3,79.7l-1.7,0.9l-2,1l-4-1.3l-1.9-3.8l1.3-4l3.8-1.9l4,1.3l1.9,3.8L60.3,79.7z"/>
</svg>
