<?xml version="1.0" encoding="utf-8"?>
<!-- Generator: Adobe Illustrator 23.0.0, SVG Export Plug-In . SVG Version: 6.00 Build 0)  -->
<svg version="1.1" id="Capa_1" xmlns="http://www.w3.org/2000/svg" xmlns:xlink="http://www.w3.org/1999/xlink" x="0px" y="0px"
	 viewBox="0 0 104.1 95.4" style="enable-background:new 0 0 104.1 95.4;" xml:space="preserve">
<style type="text/css">
	.st0{fill:#065F85;}
	.st1{fill:#4C4D4F;}
	.st2{fill:none;stroke:#065F85;stroke-width:2;stroke-miterlimit:10;}
	.st3{fill:none;}
	.st4{fill:#FFFFFF;}
	.st5{fill:#145F85;}
</style>
<g>
	<path class="st0" d="M83.7,42.2H26c-1,0-1.7,0.8-1.7,1.7v33.3c0,1,0.8,1.7,1.7,1.7h20.5c1,0,1.7-0.8,1.7-1.7V61.9c0-1,0-2.2,0-2.7
		c0-0.5,0-1.3,0-1.6c0-0.3,0.8-0.6,1.7-0.6h9.7c1,0,1.7,0.3,1.7,0.6c0,0.3,0,1.1,0,1.6c0,0.5,0,1.8,0,2.7v15.3c0,1,0.8,1.7,1.7,1.7
		h20.5c1,0,1.7-0.8,1.7-1.7V44C85.4,43,84.7,42.2,83.7,42.2z M36.8,65.5c0,1-0.8,1.7-1.7,1.7h-2.5c-1,0-1.7-0.8-1.7-1.7v-3.6
		c0-1,0.8-1.7,1.7-1.7H35c1,0,1.7,0.8,1.7,1.7V65.5z M36.8,56.5c0,1-0.8,1.7-1.7,1.7h-2.5c-1,0-1.7-0.8-1.7-1.7v-3.3
		c0-1,0.8-1.7,1.7-1.7H35c1,0,1.7,0.8,1.7,1.7V56.5z M44.7,65.5c0,1-0.8,1.7-1.7,1.7h-2.5c-1,0-1.7-0.8-1.7-1.7v-3.6
		c0-1,0.8-1.7,1.7-1.7H43c1,0,1.7,0.8,1.7,1.7V65.5z M44.7,56.5c0,1-0.8,1.7-1.7,1.7h-2.5c-1,0-1.7-0.8-1.7-1.7v-3.3
		c0-1,0.8-1.7,1.7-1.7H43c1,0,1.7,0.8,1.7,1.7V56.5z M71,65.5c0,1-0.8,1.7-1.7,1.7h-2.5c-1,0-1.7-0.8-1.7-1.7v-3.6
		c0-1,0.8-1.7,1.7-1.7h2.5c1,0,1.7,0.8,1.7,1.7V65.5z M71,56.5c0,1-0.8,1.7-1.7,1.7h-2.5c-1,0-1.7-0.8-1.7-1.7v-3.3
		c0-1,0.8-1.7,1.7-1.7h2.5c1,0,1.7,0.8,1.7,1.7V56.5z M78.9,65.5c0,1-0.8,1.7-1.7,1.7h-2.5c-1,0-1.7-0.8-1.7-1.7v-3.6
		c0-1,0.8-1.7,1.7-1.7h2.5c1,0,1.7,0.8,1.7,1.7V65.5z M78.9,56.5c0,1-0.8,1.7-1.7,1.7h-2.5c-1,0-1.7-0.8-1.7-1.7v-3.3
		c0-1,0.8-1.7,1.7-1.7h2.5c1,0,1.7,0.8,1.7,1.7V56.5z"/>
	<path class="st0" d="M26,39h57.7c1,0,1.1-0.5,0.4-1.1L56.2,16.4c-0.4-0.3-0.9-0.4-1.4-0.4c-0.5,0-1,0.1-1.4,0.4l-11.7,9
		c-0.3,0.2-0.5,0.3-0.7,0.3c-0.4,0-0.7-0.3-0.7-1v-7c0-1-0.8-1.7-1.7-1.7h-5.1c-1,0-1.7,0.8-1.7,1.7v13.6c0,1-0.6,2.2-1.4,2.8
		l-4.8,3.7C24.9,38.5,25.1,39,26,39z"/>
</g>
<path class="st2" d="M86.6,92.4H19.5c-8.2,0-14.8-6.6-14.8-14.8V19c0-8.2,6.6-14.8,14.8-14.8h67.1c8.2,0,14.8,6.6,14.8,14.8v58.6
	C101.4,85.8,94.8,92.4,86.6,92.4z"/>
</svg>
