<?xml version="1.0" encoding="utf-8"?>
<!-- Generator: Adobe Illustrator 23.0.0, SVG Export Plug-In . SVG Version: 6.00 Build 0)  -->
<svg version="1.1" id="Capa_1" xmlns="http://www.w3.org/2000/svg" xmlns:xlink="http://www.w3.org/1999/xlink" x="0px" y="0px"
	 viewBox="0 0 104.1 95.4" style="enable-background:new 0 0 104.1 95.4;" xml:space="preserve">
<style type="text/css">
	.st0{fill:#065F85;}
	.st1{fill:#4C4D4F;}
	.st2{fill:none;stroke:#065F85;stroke-width:2;stroke-miterlimit:10;}
	.st3{fill:none;}
	.st4{fill:#FFFFFF;}
	.st5{fill:#145F85;}
	.st6{font-family:'Verdana-Bold';}
	.st7{font-size:19.9331px;}
</style>
<path class="st2" d="M86.4,92.4H19.4c-8.2,0-14.8-6.6-14.8-14.8V19c0-8.2,6.6-14.8,14.8-14.8h67.1c8.2,0,14.8,6.6,14.8,14.8v58.6
	C101.3,85.8,94.6,92.4,86.4,92.4z"/>
<path class="st3" d="M53.3,50.8c-0.8,0-1.4,0.6-1.4,1.4v17.5c0,0.8,0.6,1.4,1.4,1.4c0.8,0,1.4-0.6,1.4-1.4V52.2
	C54.7,51.5,54.1,50.8,53.3,50.8z"/>
<path class="st3" d="M70,50.8c-0.8,0-1.4,0.6-1.4,1.4v14.7c0,0.8,0.6,1.4,1.4,1.4c0.8,0,1.4-0.6,1.4-1.4V52.2
	C71.3,51.5,70.7,50.8,70,50.8z"/>
<path class="st3" d="M36.7,50.8c-0.8,0-1.4,0.6-1.4,1.4v14.7c0,0.8,0.6,1.4,1.4,1.4c0.8,0,1.4-0.6,1.4-1.4V52.2
	C38,51.5,37.4,50.8,36.7,50.8z"/>
<path class="st4" d="M66.4,43.4c-0.6,0.6-1.5,1-2.4,1c-0.9,0-1.8-0.4-2.4-1c-1.3-1.3-1.3-3.3-0.1-4.7H45.1c0.6,0.6,0.9,1.4,0.9,2.3
	c0,0.9-0.4,1.8-1,2.4c-0.6,0.6-1.5,1-2.4,1s-1.8-0.4-2.4-1l-4.7-4.7H20.9v6.2h64.8v-6.2H71.1L66.4,43.4z"/>
<g>
	<path class="st0" d="M82.6,49.6V25H19.1v32.3h1.8l-1.8,5.6l60.4,19.6l10-30.7L82.6,49.6z M21.7,47.9h-0.4V34.5h0.4
		c1.9,0,3.7-0.8,4.9-2c1.3-1.3,2-3,2-4.9v-0.4h43.9H73v0.4c0,1.9,0.8,3.7,2,4.9c1.3,1.3,3,2,4.9,2h0.4v13.3h-0.4
		c-1.9,0-3.7,0.8-4.9,2c-1.3,1.3-2,3-2,4.9v0.4H28.7v-0.4c0-1.9-0.8-3.7-2-4.9C25.4,48.7,23.7,47.9,21.7,47.9z M55.2,59.3
		 M79.9,72.7c-0.7-0.2-1.4-0.3-2.1-0.3c-2.9,0-5.6,1.9-6.6,4.8L71,77.6L28.9,63.9l0.1-0.4c0.2-0.7,0.3-1.4,0.3-2.1
		c0-1.4-0.5-2.8-1.3-4h1h12h2.3h21.8h2.3h11.9h1c0.8,1.2,2.1,2.2,3.6,2.7l0.4,0.1l-4.1,12.7L79.9,72.7z"/>
	<path class="st0" d="M84,60.1c-1.5-0.5-2.7-1.5-3.6-2.7h-1c0.9,1.5,2.2,2.7,3.9,3.4l-3.6,11.1c-0.7-0.2-1.3-0.3-2-0.3
		c-3.2,0-6.1,1.9-7.3,5L29.9,63.3c0.2-0.7,0.3-1.3,0.3-2c0-1.4-0.4-2.8-1.1-4h-1c0.8,1.2,1.3,2.5,1.3,4c0,0.7-0.1,1.4-0.3,2.1
		l-0.1,0.4L71,77.6l0.1-0.4c1-2.9,3.7-4.8,6.6-4.8c0.7,0,1.4,0.1,2.1,0.3l0.4,0.1l4.1-12.7L84,60.1z"/>
	<path class="st0" d="M50.2,69.9c1.4,0.4,2.7,0.7,4.1,0.7c5.6,0,10.7-3.5,12.5-9.1c0.4-1.4,0.6-2.7,0.6-4.1h-2.3
		c0,1.1-0.2,2.3-0.5,3.4c-1.5,4.5-5.6,7.5-10.4,7.5c-1.1,0-2.3-0.2-3.4-0.5c-4.6-1.5-7.5-5.8-7.5-10.4h-2.3
		C41.1,62.9,44.6,68.1,50.2,69.9z"/>
	<path class="st0" d="M26.6,49.9c1.3,1.3,2,3,2,4.9v0.4H73v-0.4c0-1.9,0.8-3.7,2-4.9c1.3-1.3,3-2,4.9-2h0.4V34.5h-0.4
		c-1.9,0-3.7-0.8-4.9-2c-1.3-1.3-2-3-2-4.9v-0.4h-0.4H28.7v0.4c0,1.9-0.8,3.7-2,4.9c-1.3,1.3-3,2-4.9,2h-0.4v13.3h0.4
		C23.7,47.9,25.4,48.7,26.6,49.9z M29.5,28h21c-7.1,0.2-12.9,6-12.9,13.2c0,7.2,5.7,13,12.9,13.2h-21c-0.2-4-3.4-7.1-7.4-7.4V35.4
		C26.1,35.2,29.3,32,29.5,28z M79.5,35.4V47c-4,0.2-7.1,3.4-7.4,7.4h-21c7.1-0.2,12.9-6,12.9-13.2c0-7.2-5.7-13-12.9-13.2h21
		C72.3,32,75.5,35.2,79.5,35.4z M39.9,41.2c0-6,4.9-10.9,10.9-10.9s10.9,4.9,10.9,10.9c0,6-4.9,10.9-10.9,10.9S39.9,47.2,39.9,41.2z
		"/>
</g>
<rect x="43" y="33" class="st3" width="15.1" height="19.1"/>
<text transform="matrix(1 0 0 1 43.0129 48.1156)" class="st5 st6 st7">€</text>
<path class="st5" d="M57.9,61.9c-0.7,0.4-1.5,0.5-2.3,0.5c-0.9,0-1.7-0.2-2.3-0.7c-0.6-0.5-1.1-1.1-1.4-1.9l1.3,0l0.5-1.3l-2.1,0
	c0-0.1,0-0.3,0-0.4c0-0.1,0-0.3,0-0.4c0-0.1,0-0.3,0-0.4l-3.9,0c0,0.1,0,0.3,0,0.4c0,0.1,0,0.3,0,0.4c0,0.1,0,0.3,0,0.4l-0.6,0
	l-0.5,1.3l1.2,0c0.4,1.7,1.2,3,2.4,4c1.2,0.9,2.8,1.4,4.7,1.4c1,0,1.8-0.1,2.6-0.3c0.7-0.2,1.6-0.5,2.5-1l0-3.5l-0.4,0
	C59.2,61.1,58.6,61.6,57.9,61.9z"/>
</svg>
