<?xml version="1.0" encoding="utf-8"?>
<!-- Generator: Adobe Illustrator 23.0.0, SVG Export Plug-In . SVG Version: 6.00 Build 0)  -->
<svg version="1.1" id="Capa_1" xmlns="http://www.w3.org/2000/svg" xmlns:xlink="http://www.w3.org/1999/xlink" x="0px" y="0px"
	 viewBox="0 0 104.1 95.4" style="enable-background:new 0 0 104.1 95.4;" xml:space="preserve">
<style type="text/css">
	.st0{fill:#065F85;}
	.st1{fill:#4C4D4F;}
	.st2{fill:none;stroke:#065F85;stroke-width:2;stroke-miterlimit:10;}
	.st3{fill:none;}
	.st4{fill:#FFFFFF;}
	.st5{fill:#145F85;}
</style>
<path class="st2" d="M86.3,91.8H19.3c-8.2,0-14.8-6.6-14.8-14.8V18.4c0-8.2,6.6-14.8,14.8-14.8h67.1c8.2,0,14.8,6.6,14.8,14.8V77
	C101.1,85.2,94.5,91.8,86.3,91.8z"/>
<g id="g">
	<g id="g_1_">
		<path id="s_4_" class="st0" d="M86.2,62.8c0,0.3-0.1,0.6-0.4,0.8c-0.3,0.2-0.6,0.3-1,0.3H77c0-1-0.2-2-0.6-2.8h9.9V62.8z"/>
		<path id="s_3_" class="st0" d="M61.4,63.9H40.3c0-1-0.2-2-0.6-2.8H62C61.6,62,61.4,62.9,61.4,63.9z"/>
		<path id="s_2_" class="st0" d="M18.3,40.2c2.2-2,5-3.8,7.6-4.2c2.7-0.4,7.9-0.4,7.9-0.4v21c-0.4-0.1-0.9-0.1-1.3-0.1
			c-4.3,0-7.8,3.3-7.8,7.4h-6.5c-0.8,0-1.7-0.3-2.3-0.9c-0.6-0.6-0.9-1.4-0.9-2.2V47.6C15,44.9,16.1,42.3,18.3,40.2z M17.3,50.1
			c0,0.3,0.1,0.6,0.4,0.8c0.3,0.2,0.6,0.3,1,0.2L30.2,49c0.3,0,0.5-0.2,0.7-0.4c0.2-0.2,0.3-0.4,0.3-0.7v-9.3c0,0-3.9,0-5.8,0.3
			c-2,0.3-4,1.6-5.6,3.1c-1.6,1.5-2.4,3.5-2.4,5.4V50.1z"/>
		<path id="s_1_" class="st0" d="M63.7,60.4c0.1-0.1,0.2-0.3,0.3-0.4c1.2-1.4,3.1-2.4,5.2-2.4c2.1,0,4,0.9,5.2,2.4
			c0.1,0.1,0.2,0.3,0.3,0.4c0.2,0.2,0.3,0.5,0.4,0.7c0.5,0.8,0.7,1.8,0.7,2.8c0,3.5-3,6.3-6.6,6.3c-3.7,0-6.6-2.8-6.6-6.3
			c0-1,0.3-2,0.7-2.8C63.4,60.9,63.5,60.6,63.7,60.4z M69.2,67.2c1.9,0,3.4-1.5,3.4-3.3c0-1.2-0.7-2.3-1.7-2.8
			c-0.5-0.3-1.1-0.4-1.7-0.4c-0.6,0-1.2,0.2-1.7,0.4c-1,0.6-1.7,1.6-1.7,2.8C65.7,65.7,67.3,67.2,69.2,67.2z"/>
		<path id="s" class="st0" d="M32.5,57.6c0.4,0,0.9,0,1.3,0.1c0.5,0.1,1.1,0.3,1.5,0.5c1.1,0.5,2,1.2,2.7,2.2c0.7,1,1.1,2.2,1.1,3.5
			c0,3.5-3,6.3-6.6,6.3c-3.7,0-6.6-2.8-6.6-6.3C25.9,60.5,28.9,57.6,32.5,57.6z M32.5,67.2c1.9,0,3.4-1.5,3.4-3.3
			c0-0.7-0.2-1.3-0.6-1.9c-0.4-0.5-0.9-0.9-1.5-1.2c-0.4-0.2-0.8-0.2-1.3-0.2c-1.9,0-3.4,1.5-3.4,3.3S30.6,67.2,32.5,67.2z"/>
		<g>
			<rect x="35.4" y="28" class="st0" width="50.9" height="2.7"/>
			<path class="st0" d="M35.4,57.1c1.6,0.6,2.9,1.6,3.8,2.9h23.5c1.4-2.1,3.8-3.4,6.6-3.4c2.8,0,5.2,1.4,6.6,3.4h10.5V31.5H35.4
				V57.1z"/>
		</g>
	</g>
</g>
</svg>
