<?xml version="1.0" encoding="utf-8"?>
<!-- Generator: Adobe Illustrator 23.0.0, SVG Export Plug-In . SVG Version: 6.00 Build 0)  -->
<svg version="1.1" id="Capa_1" xmlns="http://www.w3.org/2000/svg" xmlns:xlink="http://www.w3.org/1999/xlink" x="0px" y="0px"
	 viewBox="0 0 104.1 95.4" style="enable-background:new 0 0 104.1 95.4;" xml:space="preserve">
<style type="text/css">
	.st0{fill:#FFFFFF;}
	.st1{fill:#065F85;}
</style>
<path class="st0" d="M86.3,91.8h-67c-8.2,0-14.8-6.6-14.8-14.8V18.4c0-8.2,6.6-14.8,14.8-14.8h67.1c8.2,0,14.8,6.6,14.8,14.8V77
	C101.1,85.2,94.5,91.8,86.3,91.8z"/>
<path class="st1" d="M79.7,37.6c-0.3-0.3-0.7-0.4-1-0.4h-9.9l10-10c0.5-0.5,0.8-1.1,0.8-1.9c0-0.7-0.3-1.4-0.8-1.9
	c-0.5-0.5-1.1-0.8-1.9-0.8c-0.7,0-1.4,0.3-1.9,0.8L61.2,37.2H42.4L28.6,23.3c-0.5-0.5-1.1-0.8-1.9-0.8c-0.7,0-1.4,0.3-1.9,0.8
	c-0.5,0.5-0.8,1.1-0.8,1.9c0,0.7,0.3,1.4,0.8,1.9l10,10H25c-0.3,0-0.8,0.2-1,0.4c-0.3,0.3-0.4,0.7-0.4,1v7.8c0,0.3,0.2,0.8,0.4,1
	c0.3,0.3,0.7,0.4,1,0.4h3.2L33.5,70c0.3,1,1,1.7,2.1,1.7h33c1,0,1.8-0.7,2.1-1.7l5.4-22.2h2.7c0.3,0,0.8-0.2,1-0.4
	c0.3-0.3,0.4-0.7,0.4-1v-7.8C80.1,38.2,80,37.9,79.7,37.6z M39.9,62.2c0,0.6-0.5,1-1,1c-0.6,0-1-0.5-1-1V50.7c0-0.6,0.5-1,1-1
	c0.6,0,1,0.5,1,1V62.2z M52.9,64.4c0,0.6-0.5,1-1,1c-0.6,0-1-0.5-1-1V50.7c0-0.6,0.5-1,1-1c0.6,0,1,0.5,1,1V64.4z M66,62.2
	c0,0.6-0.5,1-1,1c-0.6,0-1-0.5-1-1V50.7c0-0.6,0.5-1,1-1c0.6,0,1,0.5,1,1V62.2z M77.1,44.9H26.5v-4.8h11.3l3.7,3.7
	c0.5,0.5,1.1,0.8,1.9,0.8s1.4-0.3,1.9-0.8c0.5-0.5,0.8-1.1,0.8-1.9c0-0.7-0.3-1.3-0.7-1.7h12.8c-1,1-0.9,2.6,0.1,3.7
	c0.5,0.5,1.1,0.8,1.9,0.8c0.7,0,1.4-0.3,1.9-0.8l3.7-3.7h11.3V44.9z"/>
</svg>
