<?xml version="1.0" encoding="utf-8"?>
<!-- Generator: Adobe Illustrator 23.0.0, SVG Export Plug-In . SVG Version: 6.00 Build 0)  -->
<svg version="1.1" id="Capa_1" xmlns="http://www.w3.org/2000/svg" xmlns:xlink="http://www.w3.org/1999/xlink" x="0px" y="0px"
	 viewBox="0 0 104.1 95.4" style="enable-background:new 0 0 104.1 95.4;" xml:space="preserve">
<style type="text/css">
	.st0{fill:#FFFFFF;}
	.st1{fill:#065F85;}
</style>
<path class="st0" d="M85.7,92.4H18.6c-8.2,0-14.8-6.6-14.8-14.8V19c0-8.2,6.6-14.8,14.8-14.8h67.1c8.2,0,14.8,6.6,14.8,14.8v58.6
	C100.5,85.8,93.8,92.4,85.7,92.4z"/>
<path class="st1" d="M52.6,30.6h-5.3v5.5h5.3c1.7,0,3.1-1,3.1-2.7C55.7,31.6,54.3,30.6,52.6,30.6z M66.1,57.2V20.1H37v37.1h11.5
	v20.4h-6.8v2.3h19.6v-2.3h-6.8V57.2H66.1z M53.5,41.9h-6.2v8.7h-6.6V24.8h12.8c5.8,0,8.9,3.8,8.9,8.6C62.4,38,59.2,41.9,53.5,41.9z"
	/>
</svg>
