<?xml version="1.0" encoding="utf-8"?>
<!-- Generator: Adobe Illustrator 23.0.0, SVG Export Plug-In . SVG Version: 6.00 Build 0)  -->
<svg version="1.1" id="Capa_1" xmlns="http://www.w3.org/2000/svg" xmlns:xlink="http://www.w3.org/1999/xlink" x="0px" y="0px"
	 viewBox="0 0 104.1 95.4" style="enable-background:new 0 0 104.1 95.4;" xml:space="preserve">
<style type="text/css">
	.st0{fill:#065F85;}
	.st1{fill:#4C4D4F;}
	.st2{fill:none;stroke:#065F85;stroke-width:2;stroke-miterlimit:10;}
	.st3{fill:none;}
	.st4{fill:#FFFFFF;}
	.st5{fill:#145F85;}
</style>
<path class="st0" d="M50.7,26.3h-6.1v6.3h6.1c2,0,3.5-1.1,3.5-3.1C54.2,27.5,52.7,26.3,50.7,26.3z M66.1,56.8V14.3H32.8v42.5H46
	v23.3h-7.8v2.6h22.4v-2.6h-7.8V56.8H66.1z M51.7,39.2h-7.1v9.9H37V19.7h14.7c6.6,0,10.2,4.4,10.2,9.8C61.9,34.8,58.3,39.2,51.7,39.2
	z"/>
<path class="st2" d="M85.7,92.4H18.6c-8.2,0-14.8-6.6-14.8-14.8V19c0-8.2,6.6-14.8,14.8-14.8h67.1c8.2,0,14.8,6.6,14.8,14.8v58.6
	C100.5,85.8,93.8,92.4,85.7,92.4z"/>
</svg>
