<?xml version="1.0" encoding="utf-8"?>
<!-- Generator: Adobe Illustrator 23.0.0, SVG Export Plug-In . SVG Version: 6.00 Build 0)  -->
<svg version="1.1" id="Capa_1" xmlns="http://www.w3.org/2000/svg" xmlns:xlink="http://www.w3.org/1999/xlink" x="0px" y="0px"
	 viewBox="0 0 104.1 95.4" style="enable-background:new 0 0 104.1 95.4;" xml:space="preserve">
<style type="text/css">
	.st0{fill:#FFFFFF;}
	.st1{fill:#065F85;}
</style>
<path class="st0" d="M86.3,91.8h-67c-8.2,0-14.8-6.6-14.8-14.8V18.4c0-8.2,6.6-14.8,14.8-14.8h67.1c8.2,0,14.8,6.6,14.8,14.8V77
	C101.1,85.2,94.5,91.8,86.3,91.8z"/>
<g>
	<path class="st1" d="M61.1,59.2c7.5-6.3,10.1-14,10.5-22.9c-1,0.8-2.6,1.4-4.9,2c-3.4,0.8-7.8,1.2-12.5,1.2s-9.1-0.4-12.5-1.2
		c-2.3-0.5-3.9-1.2-4.9-2c0.4,9,3,16.6,10.5,22.9c8.6,7.3,4.3,16.4-2.4,16.4s-5.9,5.5,9.2,5.5s15.9-5.5,9.2-5.5
		C56.8,75.7,52.5,66.5,61.1,59.2z M58.2,56.6h-7.9v-0.8c0.2,0,0.6,0,1.1-0.1c0.5,0,0.8-0.1,1-0.2c0.2-0.1,0.4-0.2,0.6-0.4
		c0.1-0.2,0.2-0.4,0.2-0.8v-8h-2.9v-1h0.6c0.8,0,1.6-0.2,2.3-0.5s1.1-0.6,1.4-1h1c0,0.5,0,1.1-0.1,1.7c0,0.7,0,1.3,0,1.8v6.8
		c0,0.3,0.1,0.5,0.2,0.7c0.1,0.2,0.3,0.4,0.5,0.5s0.5,0.2,1,0.2c0.5,0.1,0.8,0.1,1,0.1C58.2,55.6,58.2,56.6,58.2,56.6z"/>
	<path class="st1" d="M54.2,31.4c-4.2,0-8.2,0.4-11.3,1c-3.5,0.7-4.4,1.5-4.6,1.8c0.2,0.2,1.2,1,4.6,1.8c3.1,0.6,7.1,1,11.3,1
		s8.2-0.4,11.3-1c3.5-0.7,4.4-1.5,4.6-1.8c-0.2-0.2-1.2-1-4.6-1.8C62.4,31.8,58.4,31.4,54.2,31.4z"/>
	<path class="st1" d="M54.2,26c0.5,0,0.9-2.7,1-6.1s-0.4-6.1-1-6.1s-1.1,2.7-1,6.1C53.3,23.2,53.8,26,54.2,26z"/>
	<path class="st1" d="M48.5,26.7c0.5-0.1,0.1-2.5-0.8-5.3c-1-2.8-2.4-4.9-3-4.8c-0.6,0.2,0,2.5,1.1,5.3C46.9,24.7,48,26.8,48.5,26.7
		z"/>
	<path class="st1" d="M43.2,29c0.4-0.2-0.5-2.2-2.2-4.4c-1.7-2.1-3.7-3.6-4.2-3.2c-0.5,0.3,0.8,2.1,2.6,4.2
		C41.2,27.6,42.8,29.2,43.2,29z"/>
	<path class="st1" d="M38.9,32.4c0.3-0.3-0.7-1.6-2.5-2.8c-1.7-1.2-3.5-1.7-3.9-1.4c-0.3,0.4,0.9,1.5,2.7,2.6
		C37.1,32,38.6,32.7,38.9,32.4z"/>
	<path class="st1" d="M59.9,26.7c0.5,0.1,1.6-2,2.7-4.8c1.1-2.8,1.7-5.1,1.1-5.3c-0.6-0.2-2,2-3,4.8C59.8,24.2,59.5,26.6,59.9,26.7z
		"/>
	<path class="st1" d="M69,25.5c1.8-2.1,3.1-3.9,2.6-4.2c-0.5-0.3-2.4,1.1-4.1,3.2s-2.6,4.2-2.2,4.4C65.5,29.2,67.1,27.6,69,25.5z"/>
	<path class="st1" d="M75.7,28.2c-0.3-0.4-2.1,0.2-3.9,1.4c-1.7,1.2-2.7,2.5-2.5,2.8c0.3,0.3,1.8-0.4,3.6-1.6
		C74.8,29.7,76.1,28.6,75.7,28.2z"/>
</g>
</svg>
