<?xml version="1.0" encoding="utf-8"?>
<!-- Generator: Adobe Illustrator 23.0.0, SVG Export Plug-In . SVG Version: 6.00 Build 0)  -->
<svg version="1.1" id="Capa_1" xmlns="http://www.w3.org/2000/svg" xmlns:xlink="http://www.w3.org/1999/xlink" x="0px" y="0px"
	 viewBox="0 0 104.1 95.4" style="enable-background:new 0 0 104.1 95.4;" xml:space="preserve">
<style type="text/css">
	.st0{fill:#FFFFFF;}
	.st1{fill:#065F85;}
</style>
<path class="st0" d="M86.3,91.8h-67c-8.2,0-14.8-6.6-14.8-14.8V18.4c0-8.2,6.6-14.8,14.8-14.8h67.1c8.2,0,14.8,6.6,14.8,14.8V77
	C101.1,85.2,94.5,91.8,86.3,91.8z"/>
<path class="st1" d="M89.2,24.7l0.2-3.1l-10.9,2.7c-0.3,0.1-0.6,0.2-0.8,0.3l-14,8.4l2.1,3.6l0.1,0.1l0,0l13.5-8.1
	c0.3-0.2,0.5-0.3,0.8-0.3l9-2.2L89.2,24.7z M14.6,81.7l1.2,0.7c2.1-4.2,3.4-8.7,3.9-13.4l-1.2-0.7C18.1,72.9,16.7,77.5,14.6,81.7z
	 M17.4,65.5c-0.2,0.4-0.1,0.9,0.3,1.1l3.5,2.4c0.4,0.2,0.9,0.2,1.2-0.1l1.6-1.8l-5.6-4L17.4,65.5z M92.7,38.9l-3.5-8.4l-3.3,8.4
	c-0.9,1.7-0.4,3.7,1.2,4.8l0.2,0.1c1.5,1,3.4,0.9,4.8-0.3C93.3,42.3,93.6,40.4,92.7,38.9z M50.7,33.9c-0.7-1.2-2.3-1.6-3.6-0.9
	l-12.5,7.5c-1.2,0.7-1.6,2.3-0.9,3.6c0.6,0.9,0.4,2.1-0.3,2.9L18.8,62.4l6.3,4.4l4.9,2.8l0,0l6.7,3.9c1.4,0.8,3.1,0.6,4.3-0.6
	l14.7-15.1c0.9-0.9,1.2-2.3,0.8-3.5l-1.9-5.8L66.4,39L62,31.6l-9.6,5.1L50.7,33.9z M51.3,59.5l-9.9,8.9c-1.5,1.4-3.8,1.6-5.5,0.4
	l-3.3-2.1l-0.8-0.5c-0.5-0.3-0.9-0.7-1.2-1.2c3.4-2.3,14.7-10.1,17.6-10.8c2.5-0.6,4,1.1,4.6,2.1C52.7,57.6,52.2,58.7,51.3,59.5z
	 M47,52.3l-17.1,8.8c0.2-0.6,0.5-1.1,0.9-1.6l6.1-7.2c1-1.2,2.5-1.7,4-1.6l7.9,0.9c0.7,0.1,1.3,0.3,1.9,0.6
	C48.5,51.3,47,52.3,47,52.3z"/>
</svg>
