<?xml version="1.0" encoding="utf-8"?>
<!-- Generator: Adobe Illustrator 23.0.0, SVG Export Plug-In . SVG Version: 6.00 Build 0)  -->
<svg version="1.1" id="Capa_1" xmlns="http://www.w3.org/2000/svg" xmlns:xlink="http://www.w3.org/1999/xlink" x="0px" y="0px"
	 viewBox="0 0 342.7 100.9" style="enable-background:new 0 0 342.7 100.9;" xml:space="preserve">
<style type="text/css">
	.st0{fill:#065F85;}
	.st1{fill:#4C4D4F;}
	.st2{fill:none;stroke:#065F85;stroke-width:2;stroke-miterlimit:10;}
	.st3{fill:none;}
	.st4{fill:#FFFFFF;}
	.st5{fill:#145F85;}
	.st6{fill:#00A0DF;}
	.st7{font-family:'VerdanaPro-CondRegular';}
	.st8{font-size:21px;}
	.st9{fill:none;stroke:#FFFFFF;stroke-width:3;stroke-miterlimit:10;}
	.st10{fill:url(#SVGID_1_);}
	.st11{fill:url(#SVGID_2_);}
	.st12{fill:url(#SVGID_3_);}
	.st13{fill:#B5D173;}
	.st14{fill:#073651;}
	.st15{fill:#979593;}
	.st16{fill:url(#SVGID_4_);}
	.st17{fill:none;stroke:#073651;stroke-width:5;stroke-miterlimit:10;}
	.st18{fill:#F9F9F9;stroke:#065F85;stroke-width:3;stroke-miterlimit:10;}
	.st19{fill:url(#SVGID_5_);}
	.st20{fill:url(#SVGID_6_);}
	.st21{fill:url(#SVGID_7_);}
	.st22{fill:url(#SVGID_8_);}
	.st23{filter:url(#Adobe_OpacityMaskFilter);}
	.st24{mask:url(#SVGID_9_);}
	.st25{opacity:0.26;fill:#C6C6C5;}
	.st26{fill:#C6C6C5;}
	.st27{fill:#169BD7;}
	.st28{filter:url(#Adobe_OpacityMaskFilter_1_);}
	.st29{fill:none;stroke:#F5F5F5;stroke-width:0.25;stroke-miterlimit:10;}
	.st30{clip-path:url(#SVGID_11_);}
	.st31{clip-path:url(#SVGID_13_);fill-rule:evenodd;clip-rule:evenodd;fill:#13110C;}
	.st32{clip-path:url(#SVGID_13_);fill:#00A0DD;}
	.st33{clip-path:url(#SVGID_13_);fill:#FFFFFF;}
	.st34{clip-path:url(#SVGID_13_);fill:#13110C;}
	.st35{fill:none;stroke:#C6C6C5;stroke-width:2;stroke-miterlimit:10;}
	.st36{filter:url(#Adobe_OpacityMaskFilter_2_);}
	.st37{fill-rule:evenodd;clip-rule:evenodd;fill:#065F85;}
</style>
<path class="st0" d="M253.4,87.9H68.6c-6.3,0-11.5-5.1-11.5-11.5V29.9c0-6.3,5.1-11.5,11.5-11.5h184.8c6.3,0,11.5,5.1,11.5,11.5
	v46.5C264.8,82.7,259.7,87.9,253.4,87.9z"/>
<g>
	<path class="st4" d="M121,34.1H73.7c-1.5,0-2.8,1.2-2.8,2.8v32.5c0,1.5,1.2,2.8,2.8,2.8H121c1.5,0,2.8-1.2,2.8-2.8V36.9
		C123.8,35.3,122.6,34.1,121,34.1z M92.2,71c-0.8,0-1.4-0.6-1.4-1.4c0-0.8,0.6-1.4,1.4-1.4c0.8,0,1.4,0.6,1.4,1.4
		C93.6,70.4,93,71,92.2,71z M97.4,71c-0.8,0-1.4-0.6-1.4-1.4c0-0.8,0.6-1.4,1.4-1.4c0.8,0,1.4,0.6,1.4,1.4
		C98.8,70.4,98.2,71,97.4,71z M102.6,71c-0.8,0-1.4-0.6-1.4-1.4c0-0.8,0.6-1.4,1.4-1.4c0.8,0,1.4,0.6,1.4,1.4
		C104,70.4,103.3,71,102.6,71z M119,67.2H75.8V39.1H119V67.2z"/>
	<path class="st4" d="M92.9,52.5c0-0.6-0.4-0.8-0.9-0.4l-9.3,7.4c-0.5,0.4-0.4,0.7,0.2,0.7l6-0.3l3.8,4.7c0.4,0.5,0.7,0.4,0.7-0.2
		L92.9,52.5z"/>
	<path class="st4" d="M108.5,42.5c-3.8,0-6.9,3.1-6.9,6.9c0,5.4,5.4,9.4,6.7,14.6c0.1,0.5,0.2,1,0.2,1v0.1c0,0,0-0.1,0-0.1
		c0,0,0,0.1,0,0.1v-0.2c0.8-5.7,6.9-9.8,6.9-15.6C115.4,45.5,112.3,42.5,108.5,42.5z M108.5,54.3c-2.8,0-5-2.2-5-5c0-2.8,2.2-5,5-5
		c2.8,0,5,2.2,5,5C113.5,52.1,111.2,54.3,108.5,54.3z"/>
</g>
<rect x="140.8" y="45.4" class="st3" width="143.1" height="33.9"/>
<text transform="matrix(1 0 0 1 140.8396 61.3911)" class="st4 st7 st8">GPRS</text>
</svg>
