<?xml version="1.0" encoding="utf-8"?>
<!-- Generator: Adobe Illustrator 23.0.0, SVG Export Plug-In . SVG Version: 6.00 Build 0)  -->
<svg version="1.1" id="Capa_1" xmlns="http://www.w3.org/2000/svg" xmlns:xlink="http://www.w3.org/1999/xlink" x="0px" y="0px"
	 viewBox="0 0 104.1 95.4" style="enable-background:new 0 0 104.1 95.4;" xml:space="preserve">
<style type="text/css">
	.st0{fill:#065F85;}
</style>
<g>
	<path class="st0" d="M83.3,37l4.7,4.7c0.4,0.4,0.4,1.2,0,1.6L73.4,58c-0.4,0.4-1.2,0.4-1.6,0l-4.7-4.7c-0.4-0.4-0.4-1.2,0-1.6
		L81.7,37C82.2,36.5,82.9,36.5,83.3,37z"/>
	<path class="st0" d="M61.8,16.9l4.7,4.7c0.4,0.4,0.4,1.2,0,1.6L51.8,37.8c-0.4,0.4-1.2,0.4-1.6,0l-4.7-4.7c-0.4-0.4-0.4-1.2,0-1.6
		l14.6-14.6C60.6,16.4,61.3,16.4,61.8,16.9z"/>
	
		<rect x="57.9" y="29.7" transform="matrix(-0.7071 -0.7071 0.7071 -0.7071 86.7891 111.271)" class="st0" width="17.2" height="15.9"/>
	
		<rect x="46.1" y="38.2" transform="matrix(-0.7071 -0.7071 0.7071 -0.7071 44.3981 128.8299)" class="st0" width="5.5" height="34"/>
	<path class="st0" d="M36,64.6l3.4,3.4c0.3,0.3,0.3,0.8,0,1.2l-7.5,7.5c-0.3,0.3-0.8,0.3-1.2,0l-3.4-3.4c-0.3-0.3-0.3-0.8,0-1.2
		l7.5-7.5C35.2,64.3,35.7,64.3,36,64.6z"/>
</g>
</svg>
