<?xml version="1.0" encoding="utf-8"?>
<!-- Generator: Adobe Illustrator 23.0.0, SVG Export Plug-In . SVG Version: 6.00 Build 0)  -->
<svg version="1.1" id="Capa_1" xmlns="http://www.w3.org/2000/svg" xmlns:xlink="http://www.w3.org/1999/xlink" x="0px" y="0px"
	 viewBox="0 0 104.1 95.4" style="enable-background:new 0 0 104.1 95.4;" xml:space="preserve">
<style type="text/css">
	.st0{fill:#065F85;}
	.st1{fill:#4C4D4F;}
	.st2{fill:none;stroke:#065F85;stroke-width:2;stroke-miterlimit:10;}
	.st3{fill:none;}
	.st4{fill:#FFFFFF;}
	.st5{fill:#145F85;}
	.st6{fill:none;stroke:#FFFFFF;stroke-width:3;stroke-miterlimit:10;}
	.st7{fill:#00A0DF;}
	.st8{fill:url(#SVGID_1_);}
	.st9{fill:url(#SVGID_2_);}
	.st10{fill:url(#SVGID_3_);}
	.st11{fill:#B5D173;}
	.st12{fill:#073651;}
	.st13{fill:#979593;}
	.st14{fill:url(#SVGID_4_);}
	.st15{fill:none;stroke:#073651;stroke-width:5;stroke-miterlimit:10;}
	.st16{fill:#F9F9F9;stroke:#065F85;stroke-width:3;stroke-miterlimit:10;}
	.st17{filter:url(#Adobe_OpacityMaskFilter);}
	.st18{mask:url(#SVGID_5_);}
	.st19{opacity:0.26;fill:#C6C6C5;}
	.st20{fill:#C6C6C5;}
	.st21{fill:#169BD7;}
	.st22{filter:url(#Adobe_OpacityMaskFilter_1_);}
	.st23{fill:none;stroke:#F5F5F5;stroke-width:0.25;stroke-miterlimit:10;}
	.st24{clip-path:url(#SVGID_7_);}
	.st25{clip-path:url(#SVGID_9_);fill-rule:evenodd;clip-rule:evenodd;fill:#13110C;}
	.st26{clip-path:url(#SVGID_9_);fill:#00A0DD;}
	.st27{clip-path:url(#SVGID_9_);fill:#FFFFFF;}
	.st28{clip-path:url(#SVGID_9_);fill:#13110C;}
	.st29{fill:none;stroke:#C6C6C5;stroke-width:2;stroke-miterlimit:10;}
	.st30{filter:url(#Adobe_OpacityMaskFilter_2_);}
	.st31{fill-rule:evenodd;clip-rule:evenodd;fill:#065F85;}
</style>
<path class="st2" d="M86.3,91.8H19.3c-8.2,0-14.8-6.6-14.8-14.8V18.4c0-8.2,6.6-14.8,14.8-14.8h67.1c8.2,0,14.8,6.6,14.8,14.8V77
	C101.1,85.2,94.5,91.8,86.3,91.8z"/>
<g>
	<path class="st0" d="M52.1,82.7c-18.5,0-33.6-15.1-33.6-33.6c0-18.5,15.1-33.6,33.6-33.6s33.6,15.1,33.6,33.6
		C85.6,67.7,70.6,82.7,52.1,82.7z M52.1,19.6c-16.3,0-29.6,13.3-29.6,29.6c0,16.3,13.3,29.6,29.6,29.6c16.3,0,29.6-13.3,29.6-29.6
		C81.6,32.8,68.4,19.6,52.1,19.6z"/>
</g>
<g>
	<path class="st0" d="M61.9,51l-5.2,2c-0.9,0.7-2,1.1-3.2,1.1c-2.8,0-5-2.2-5-5c0-2.7,2.3-5,5-5c1.2,0,2.3,0.4,3.2,1.1l5.3,2.2
		c0.7,0.3,1.2,1,1.2,1.8C63.1,50,62.6,50.7,61.9,51z"/>
</g>
<g>
	<path class="st0" d="M52.1,74.2C38.2,74.2,27,63,27,49.2c0-13.8,11.2-25.1,25.1-25.1s25.1,11.2,25.1,25.1
		C77.1,63,65.9,74.2,52.1,74.2z M52.1,27.1C39.9,27.1,30,37,30,49.2s9.9,22.1,22.1,22.1s22.1-9.9,22.1-22.1S64.2,27.1,52.1,27.1z"/>
</g>
</svg>
