<?xml version="1.0" encoding="utf-8"?>
<!-- Generator: Adobe Illustrator 23.0.0, SVG Export Plug-In . SVG Version: 6.00 Build 0)  -->
<svg version="1.1" id="Capa_1" xmlns="http://www.w3.org/2000/svg" xmlns:xlink="http://www.w3.org/1999/xlink" x="0px" y="0px"
	 viewBox="0 0 104.1 95.4" style="enable-background:new 0 0 104.1 95.4;" xml:space="preserve">
<style type="text/css">
	.st0{fill:#065F85;}
	.st1{fill:#4C4D4F;}
	.st2{fill:none;stroke:#065F85;stroke-width:2;stroke-miterlimit:10;}
	.st3{fill:none;}
	.st4{fill:#FFFFFF;}
	.st5{fill:#145F85;}
	.st6{fill:none;stroke:#FFFFFF;stroke-width:3;stroke-miterlimit:10;}
	.st7{fill:#00A0DF;}
	.st8{fill:url(#SVGID_1_);}
	.st9{fill:url(#SVGID_2_);}
	.st10{fill:url(#SVGID_3_);}
	.st11{fill:#B5D173;}
	.st12{fill:#073651;}
	.st13{fill:#979593;}
	.st14{fill:url(#SVGID_4_);}
	.st15{fill:none;stroke:#073651;stroke-width:5;stroke-miterlimit:10;}
	.st16{fill:#F9F9F9;stroke:#065F85;stroke-width:3;stroke-miterlimit:10;}
	.st17{filter:url(#Adobe_OpacityMaskFilter);}
	.st18{mask:url(#SVGID_5_);}
	.st19{opacity:0.26;fill:#C6C6C5;}
	.st20{fill:#C6C6C5;}
	.st21{fill:#169BD7;}
	.st22{filter:url(#Adobe_OpacityMaskFilter_1_);}
	.st23{fill:none;stroke:#F5F5F5;stroke-width:0.25;stroke-miterlimit:10;}
	.st24{clip-path:url(#SVGID_7_);}
	.st25{clip-path:url(#SVGID_9_);fill-rule:evenodd;clip-rule:evenodd;fill:#13110C;}
	.st26{clip-path:url(#SVGID_9_);fill:#00A0DD;}
	.st27{clip-path:url(#SVGID_9_);fill:#FFFFFF;}
	.st28{clip-path:url(#SVGID_9_);fill:#13110C;}
	.st29{fill:none;stroke:#C6C6C5;stroke-width:2;stroke-miterlimit:10;}
	.st30{filter:url(#Adobe_OpacityMaskFilter_2_);}
	.st31{fill-rule:evenodd;clip-rule:evenodd;fill:#065F85;}
</style>
<path class="st2" d="M86.3,91.8H19.3c-8.2,0-14.8-6.6-14.8-14.8V18.4c0-8.2,6.6-14.8,14.8-14.8h67.1c8.2,0,14.8,6.6,14.8,14.8V77
	C101.1,85.2,94.5,91.8,86.3,91.8z"/>
<g>
	<g>
		<g>
			<g>
				<path class="st0" d="M82.9,76.7H22c-1.9,0-3.4-1.5-3.4-3.4V52.5c0-1.9,1.5-3.4,3.4-3.4h60.9c1.9,0,3.4,1.5,3.4,3.4v20.8
					C86.3,75.2,84.8,76.7,82.9,76.7z M22,50.6c-1.1,0-1.9,0.9-1.9,1.9v20.8c0,1.1,0.9,1.9,1.9,1.9h60.9c1.1,0,1.9-0.9,1.9-1.9V52.5
					c0-1.1-0.9-1.9-1.9-1.9H22z"/>
			</g>
		</g>
		<g>
			<g>
				<path class="st0" d="M82.9,77.5H22c-2.3,0-4.1-1.8-4.1-4.1V52.5c0-2.3,1.8-4.1,4.1-4.1h60.9c2.3,0,4.1,1.8,4.1,4.1v20.8
					C87,75.6,85.2,77.5,82.9,77.5z M22,51.4c-0.6,0-1.2,0.5-1.2,1.2v20.8c0,0.6,0.5,1.2,1.2,1.2h60.9c0.6,0,1.2-0.5,1.2-1.2V52.5
					c0-0.6-0.5-1.2-1.2-1.2H22z"/>
			</g>
		</g>
	</g>
	<g>
		<path class="st0" d="M51.8,71.9H25.3c-0.4,0-0.7-0.3-0.7-0.7v-0.6c0-0.4,0.3-0.7,0.7-0.7h26.5c0.4,0,0.7,0.3,0.7,0.7v0.6
			C52.4,71.6,52.1,71.9,51.8,71.9z"/>
	</g>
	<g>
		<path class="st0" d="M79.8,71.9H58.6c-0.4,0-0.7-0.3-0.7-0.7v-0.6c0-0.4,0.3-0.7,0.7-0.7h21.2c0.4,0,0.7,0.3,0.7,0.7v0.6
			C80.5,71.6,80.2,71.9,79.8,71.9z"/>
	</g>
	<g>
		<circle class="st0" cx="65.5" cy="59.5" r="6.3"/>
	</g>
	<g>
		<path class="st0" d="M32.1,68.9h-6.7c-0.4,0-0.7-0.3-0.7-0.7v-2.5c0-0.4,0.3-0.7,0.7-0.7h6.7c0.4,0,0.7,0.3,0.7,0.7v2.5
			C32.8,68.6,32.5,68.9,32.1,68.9z"/>
	</g>
	<g>
		<path class="st0" d="M45.6,68.9h-6.7c-0.4,0-0.7-0.3-0.7-0.7v-2.5c0-0.4,0.3-0.7,0.7-0.7h6.7c0.4,0,0.7,0.3,0.7,0.7v2.5
			C46.4,68.6,46,68.9,45.6,68.9z"/>
	</g>
	<g>
		<path class="st0" d="M51.7,62.9H25.3c-0.4,0-0.7-0.3-0.7-0.7v-7.4c0-0.4,0.3-0.7,0.7-0.7h26.4c0.4,0,0.7,0.3,0.7,0.7v7.4
			C52.4,62.6,52.1,62.9,51.7,62.9z"/>
	</g>
	<g>
		<g>
			<path class="st31" d="M70.7,21.9c-0.2,0.6-0.9,1.1-1.5,1.2c-0.4,0.1-0.7,0-1.9-0.6c-4.7-2.5-9-3.6-14.2-3.7
				c-5.1-0.1-9,0.8-13.8,3.1c-1,0.5-2,0.9-2.1,0.9c-0.5,0-1.2-0.4-1.5-0.9c-0.4-0.6-0.3-1.7,0.2-2.2c0.2-0.2,1-0.7,1.8-1.1
				c3.3-1.6,6.9-2.7,10.6-3.2c2.3-0.3,6.7-0.3,8.8,0c3.9,0.6,7.3,1.6,10.7,3.3c2,1,2.9,1.7,2.9,2.2c0,0.1,0,0.3,0.1,0.4
				C70.9,21.3,70.8,21.6,70.7,21.9L70.7,21.9L70.7,21.9z M67.1,28.6c-0.3,0.9-1.3,1.5-2.1,1.2c-0.2-0.1-1.1-0.5-2-0.9
				c-3.8-1.9-7.8-2.7-11.8-2.4c-3.3,0.3-5.4,0.8-8.4,2.3c-2,1-2.4,1-3.2,0.4c-0.8-0.6-0.9-1.9-0.2-2.6c0.5-0.5,3.7-2,5.6-2.6
				c6.1-1.9,12.6-1.5,18.6,1.1C66.6,26.4,67.5,27.3,67.1,28.6L67.1,28.6z M63.4,35.5c-0.2,0.5-0.8,1-1.4,1.1c-0.3,0.1-0.7-0.1-2-0.7
				c-4.7-2.4-9.3-2.5-13.9-0.3c-2,1-2.5,1-3.2,0.1c-0.4-0.4-0.5-0.6-0.5-1.2c0-1,0.5-1.5,2.3-2.4c2.8-1.3,5.2-1.8,8.3-1.8
				c3.2,0,5.4,0.6,8.3,2.1c1.7,0.9,2.1,1.3,2.2,2.1C63.6,34.9,63.5,35.3,63.4,35.5L63.4,35.5L63.4,35.5z M60,42
				c-0.2,0.4-0.8,0.9-1.3,1c-0.6,0.2-1,0-2.1-0.6c-1.3-0.8-2.1-1-3.8-1.1c-1.8,0-2.5,0.2-3.9,1c-0.5,0.3-1,0.5-1.2,0.6
				c-0.9,0.3-2-0.5-2.1-1.5c-0.1-0.8,0.2-1.4,1.5-2.2c3.5-2.2,8.2-2.1,11.7,0.2C60,40.2,60.4,41.1,60,42L60,42L60,42z"/>
		</g>
	</g>
</g>
</svg>
