<?xml version="1.0" encoding="utf-8"?>
<!-- Generator: Adobe Illustrator 23.0.0, SVG Export Plug-In . SVG Version: 6.00 Build 0)  -->
<svg version="1.1" id="Capa_1" xmlns="http://www.w3.org/2000/svg" xmlns:xlink="http://www.w3.org/1999/xlink" x="0px" y="0px"
	 viewBox="0 0 104.1 95.4" style="enable-background:new 0 0 104.1 95.4;" xml:space="preserve">
<style type="text/css">
	.st0{fill:#065F85;}
</style>
<g>
	<g>
		<path class="st0" d="M52.1,69.1c12-5.7,20.1-16.2,20.1-28.3V30.4l-5.4-6H52.1H37.3l-5.4,6.1v10.3C31.9,52.9,40,63.5,52.1,69.1z"/>
	</g>
	<path class="st0" d="M78.3,25.3l-6.3-7c-0.7-0.7-1.6-1.2-2.6-1.2H52H34.8c-1,0-2,0.4-2.7,1.2l-6.3,7.1c-0.6,0.6-0.9,1.5-0.9,2.3v12
		c0,15,9.8,29,25.6,36.4c0.5,0.2,1,0.3,1.5,0.3c0.5,0,1-0.1,1.5-0.3c15.8-7.4,25.6-21.4,25.6-36.4V27.6
		C79.2,26.7,78.9,25.9,78.3,25.3z M75.6,39.7c0,14.2-9.5,26.6-23.6,33.2c-14.1-6.6-23.6-19-23.6-33.2v-12l6.3-7.1H52h17.3l6.3,7
		V39.7z"/>
</g>
</svg>
