<?xml version="1.0" encoding="utf-8"?>
<!-- Generator: Adobe Illustrator 23.0.0, SVG Export Plug-In . SVG Version: 6.00 Build 0)  -->
<svg version="1.1" id="Capa_1" xmlns="http://www.w3.org/2000/svg" xmlns:xlink="http://www.w3.org/1999/xlink" x="0px" y="0px"
	 viewBox="0 0 342.7 100.9" style="enable-background:new 0 0 342.7 100.9;" xml:space="preserve">
<style type="text/css">
	.st0{fill:#065F85;}
	.st1{fill:#4C4D4F;}
	.st2{fill:none;stroke:#065F85;stroke-width:2;stroke-miterlimit:10;}
	.st3{fill:none;}
	.st4{fill:#FFFFFF;}
	.st5{fill:#145F85;}
	.st6{fill:#00A0DF;}
	.st7{font-family:'VerdanaPro-CondRegular';}
	.st8{font-size:21px;}
	.st9{fill:none;stroke:#FFFFFF;stroke-width:3;stroke-miterlimit:10;}
	.st10{fill:url(#SVGID_1_);}
	.st11{fill:url(#SVGID_2_);}
	.st12{fill:url(#SVGID_3_);}
	.st13{fill:#B5D173;}
	.st14{fill:#073651;}
	.st15{fill:#979593;}
	.st16{fill:url(#SVGID_4_);}
	.st17{fill:none;stroke:#073651;stroke-width:5;stroke-miterlimit:10;}
	.st18{fill:#F9F9F9;stroke:#065F85;stroke-width:3;stroke-miterlimit:10;}
	.st19{fill:url(#SVGID_5_);}
	.st20{fill:url(#SVGID_6_);}
	.st21{fill:url(#SVGID_7_);}
	.st22{fill:url(#SVGID_8_);}
	.st23{filter:url(#Adobe_OpacityMaskFilter);}
	.st24{mask:url(#SVGID_9_);}
	.st25{opacity:0.26;fill:#C6C6C5;}
	.st26{fill:#C6C6C5;}
	.st27{fill:#169BD7;}
	.st28{filter:url(#Adobe_OpacityMaskFilter_1_);}
	.st29{fill:none;stroke:#F5F5F5;stroke-width:0.25;stroke-miterlimit:10;}
	.st30{clip-path:url(#SVGID_11_);}
	.st31{clip-path:url(#SVGID_13_);fill-rule:evenodd;clip-rule:evenodd;fill:#13110C;}
	.st32{clip-path:url(#SVGID_13_);fill:#00A0DD;}
	.st33{clip-path:url(#SVGID_13_);fill:#FFFFFF;}
	.st34{clip-path:url(#SVGID_13_);fill:#13110C;}
	.st35{fill:none;stroke:#C6C6C5;stroke-width:2;stroke-miterlimit:10;}
	.st36{filter:url(#Adobe_OpacityMaskFilter_2_);}
	.st37{fill-rule:evenodd;clip-rule:evenodd;fill:#065F85;}
</style>
<path class="st0" d="M250.1,85.2H65.3c-6.3,0-11.5-5.1-11.5-11.5V27.2c0-6.3,5.1-11.5,11.5-11.5h184.8c6.3,0,11.5,5.1,11.5,11.5
	v46.5C261.6,80.1,256.5,85.2,250.1,85.2z"/>
<g>
	<g>
		<path class="st4" d="M110.8,58.9c0.7-0.6,0.7-1.8,0-2.4L80.8,26.4c-0.7-0.7-1.8-0.7-2.4,0c-7.8,9-7.4,22.7,1.2,31.3
			C88.1,66.3,101.8,66.7,110.8,58.9z"/>
		<path class="st4" d="M81.6,61.7c-2,0-3.6-1.6-3.6-3.6c0-2,1.6-3.6,3.6-3.6c2,0,3.6,1.6,3.6,3.6C85.2,60.1,83.6,61.7,81.6,61.7z"/>
		<path class="st4" d="M81.6,68.2c-3.8,0-7,2.7-7.8,6.3c-0.2,0.9,0.6,1.7,1.6,1.7c1.5,0,3.9,0,6.3,0c2.4,0,4.7,0,6.3,0
			c1,0,1.8-0.8,1.6-1.7C88.7,70.9,85.5,68.2,81.6,68.2z"/>
		<path class="st4" d="M81.6,68.2c1.1,0,2.2,0.2,3.2,0.7l-1.5-7.6c-0.5,0.3-1,0.4-1.6,0.4c-0.6,0-1.1-0.2-1.6-0.4l-1.5,7.6
			C79.5,68.5,80.5,68.2,81.6,68.2z"/>
		<path class="st4" d="M100.9,36.3c-1.4-1.4-1.4-3.7,0-5.1c1.4-1.4,3.7-1.4,5.1,0c1.4,1.4,1.4,3.7,0,5.1
			C104.6,37.7,102.3,37.7,100.9,36.3z"/>
		<path class="st4" d="M100.9,36.3c-0.3-0.3-0.4-0.5-0.6-0.9l-5.8,4.7l2.6,2.6l4.7-5.8C101.5,36.7,101.2,36.5,100.9,36.3z"/>
	</g>
</g>
<rect x="130" y="28.6" class="st3" width="132.1" height="50"/>
<text transform="matrix(1 0 0 1 129.9916 44.5721)"><tspan x="0" y="0" class="st4 st7 st8">Seguimento </tspan><tspan x="0" y="25.2" class="st4 st7 st8">via App</tspan></text>
</svg>
