<?xml version="1.0" encoding="utf-8"?>
<!-- Generator: Adobe Illustrator 23.0.0, SVG Export Plug-In . SVG Version: 6.00 Build 0)  -->
<svg version="1.1" id="Capa_1" xmlns="http://www.w3.org/2000/svg" xmlns:xlink="http://www.w3.org/1999/xlink" x="0px" y="0px"
	 viewBox="0 0 104.1 95.4" style="enable-background:new 0 0 104.1 95.4;" xml:space="preserve">
<style type="text/css">
	.st0{fill:#065F85;}
</style>
<g>
	<g>
		<path class="st0" d="M47.7,61.1c0-2.2,0-4.5,0-6.7c0-1.3,0.2-2.9-1.2-3.5c-1.3-0.6-2.1,0.7-3,1.4c-1.3,1.1-2.5,2.4-4,3.3
			c-3.3,2-4.1,4.9-3.7,8.5c0.2,1.6,0,3.3-0.8,5c0-2.5,0-5,0-7.5c0-2.1-0.1-3.9-2.7-4.7c-1.8-0.5-1.4-1.6-0.3-2.6
			c1.4-1.4,2.8-2.8,4.3-4.2c1.6-1.5,1.5-2.6-0.5-3.6c-2.7-1.4-4.4-4.4-8.1-4.6c-2.8-0.1-3.9,0.4-3.9,3.3c0.1,4.2,0.1,8.5,0,12.8
			c0,1.2,0.5,2.6-0.7,3.7c-1.2-0.6-0.8-1.6-0.8-2.5c0-5.7-0.1-11.4,0-17.1c0.1-4.2,2.6-6.5,6.5-6c2.1,0.3,3.5,0,4.6-2
			c1.1-2,3.1-3.2,4.8-4.7c3.6-3,6.5-6.4,4.8-11.7c-0.3-0.9-0.7-2.5,0.8-2.6c1.4-0.1,1.2,1.4,1.4,2.4c1.1,4.7-0.2,8.4-4,11.6
			c-4.1,3.5-7.2,7.7-6.5,14c2.4-1.6,1.8-4.6,3.6-6.3c0.9,2.1-1,3.9-0.2,6c2.1-1.7,3-4.4,5.9-5.8c-0.6,3.4-3.5,5.2-3.9,8.5
			c3.7-1,5-4.9,8.4-6.2c0.6,2.5-0.3,4.7-0.5,6.8c-0.3,2.7,1.6,4.2,3.4,5.4c1.8,1.2,3.2-0.4,4.5-1.5c1.6-1.4,2-2.6,0-4.1
			c-1.6-1.2-1.4-3.1-0.7-4.7c0.8-1.6,2.3-1.5,3.8-1.2c0.3,0,0.5,0.1,0.8,0.1c2.1,0.1,4.9,1.8,5.9,0.1c1.3-2.1,0.3-5.2-0.7-7.6
			c-0.6-1.4-1.6-2.8-2.7-3.9c-3.4-3.6-2.8-8.1-2.7-12.4c0-0.8,0.3-1.7,1.3-1.7c1.2,0,1.5,1,1.6,1.9c0.1,0.9,0.1,1.9,0.1,2.8
			c-0.1,3.3,0.2,6,4.9,5.4c2.5-0.3,4.4,1,4,4.4c-0.4,3.3-0.1,6.6-0.1,10c-0.5,0-1.1,0-1.6,0c0-2.9,0-5.8,0-8.7
			c-3.4,2.7-2.1,5.8-1.6,8.7c0.4,2.3,2.3,2.7,4.2,2.9c0.7,0.1,1.3,0.3,2,0.3c3.6,0.1,4.7,1.5,4.4,5.4c-0.5,9.1-0.2,18.3-1,27.5
			c0-4.1,0-8.2,0-12.2c0-3.6,0.1-7.2-0.1-10.8c-0.1-1.2,1.3-3.7-1.7-3.3c-2.1,0.2-4.7,0.1-4.6,3.5c0.1,7,0,14.1,0,21.1
			c0,1.5,0.5,3.2-0.8,4.8c-1-1.3-0.6-2.6-0.6-3.8c0-7.4,0-14.9,0-22.3c0-1.1,0.3-2.5-1-3.2c-1.3-0.6-2.2,0.4-3.2,0.9
			c-4,2.1-5.7,5.2-5.4,10c0.4,6.2,0.1,12.4-0.8,18.6c0-6.2-0.2-12.4,0.1-18.5c0.1-3.2-0.8-4.6-3.9-5.5c-7.1-2.1-7-2.3-7.3,5
			c0,0.5-0.1,1-0.1,1.4C48.1,61.2,47.9,61.2,47.7,61.1z"/>
	</g>
</g>
</svg>
