<?xml version="1.0" encoding="utf-8"?>
<!-- Generator: Adobe Illustrator 23.0.0, SVG Export Plug-In . SVG Version: 6.00 Build 0)  -->
<svg version="1.1" id="Capa_1" xmlns="http://www.w3.org/2000/svg" xmlns:xlink="http://www.w3.org/1999/xlink" x="0px" y="0px"
	 viewBox="0 0 104.1 95.4" style="enable-background:new 0 0 104.1 95.4;" xml:space="preserve">
<style type="text/css">
	.st0{fill:none;stroke:#155F86;stroke-width:3;stroke-miterlimit:10;}
	.st1{fill:#155F86;}
</style>
<circle class="st0" cx="52.7" cy="48.2" r="44.7"/>
<g>
	<path class="st1" d="M66.1,21.5v0.7c0.2,0,0.5,0,0.7,0v-0.7c-0.1,0-0.2,0-0.3,0C66.3,21.6,66.2,21.6,66.1,21.5z"/>
	<path class="st1" d="M62.5,21.5v0.6c0.2,0,0.5,0,0.7,0v-0.6c-0.1,0-0.2,0-0.3,0C62.8,21.6,62.7,21.6,62.5,21.5z"/>
	<path class="st1" d="M59,21.5V22c0.2,0,0.5,0,0.7,0v-0.5c-0.1,0-0.2,0-0.3,0C59.2,21.6,59.1,21.6,59,21.5z"/>
	<path class="st1" d="M62.9,21.4c0.8,0,1.4-0.6,1.4-1.3c0-0.7-0.6-1.3-1.4-1.3c-0.8,0-1.4,0.6-1.4,1.3
		C61.5,20.9,62.1,21.4,62.9,21.4z"/>
	<path class="st1" d="M66.4,21.4c0.8,0,1.4-0.6,1.4-1.3c0-0.7-0.6-1.3-1.4-1.3c-0.8,0-1.4,0.6-1.4,1.3
		C65.1,20.9,65.7,21.4,66.4,21.4z"/>
	<path class="st1" d="M59.4,21.4c0.8,0,1.4-0.6,1.4-1.3c0-0.7-0.6-1.3-1.4-1.3c-0.8,0-1.4,0.6-1.4,1.3C58,20.9,58.6,21.4,59.4,21.4z
		"/>
	<path class="st1" d="M72.8,62.2c-0.1,2.3-0.2,4.7-0.5,7l0,0c0.7,0,1.2,0.5,1.2,1.1v2.6c0,0.6-0.5,1.1-1.2,1.1h-5.8v2.2
		c0,1.1,1.1,1.9,2.4,1.9h2.9c1.3,0,2.4-0.9,2.4-1.9V64C74.3,63.2,73.7,62.5,72.8,62.2z"/>
	<g>
		<path class="st1" d="M46,34.6h17.7c-0.5,0-0.9-0.1-1.4-0.1c-1.6-0.1-3.2-0.1-4.8-0.1s-3.2,0-4.8,0s-3.2,0-4.8,0.1
			C47.3,34.6,46.6,34.6,46,34.6z"/>
		<path class="st1" d="M77.1,42.4c-0.5-0.1-1-0.3-1.5-0.4v-0.4c0.6,0,1.1-0.4,1.1-1v-4.3c0-0.6-0.5-1-1.1-1l0,0
			c-0.1-0.5-0.6-0.9-1.2-0.9h-2c-0.1-0.3-0.3-0.5-0.6-0.6c-0.1,0-0.2-0.1-0.3-0.1h-14c1.6,0.1,3.2,0.1,4.8,0.2
			c1.6,0.1,3.2,0.3,4.8,0.5c0.2,0,0.5,0.1,0.7,0.1h2.3c0.5,0,1,0.4,1,1h0.1c0.1,0.1,0.2,0.1,0.2,0.2c0.1,0.1,0.1,0.2,0.1,0.3
			c0-0.1-0.1-0.2-0.1-0.3c-0.1-0.1-0.1-0.1-0.2-0.2l0,0v8.8c0,0.6-0.5,1-1,1H34.9c-0.6,0-1-0.5-1-1v-8l0,0l0,0v-0.9c0-0.6,0.5-1,1-1
			h4.4c1.3-0.2,2.5-0.3,3.8-0.5c1.6-0.2,3.2-0.2,4.8-0.3c0.9,0,1.9-0.1,2.8-0.1H33.6c-0.1,0-0.2,0-0.3,0.1c-0.3,0.1-0.5,0.3-0.6,0.6
			h-2c-0.6,0-1.1,0.4-1.2,0.9l0,0c-0.6,0-1.1,0.4-1.1,1v4.3c0,0.6,0.5,1,1.1,1V42c-0.5,0.1-1,0.3-1.5,0.4c-0.4,0.1-0.7,0.6-0.7,1.1
			c0,0.4,0,0.7,0,1.1c0,0.5,0.2,1,0.7,1.1s1,0.3,1.5,0.4v0.4c0,0.7,0.6,1.2,1.3,1.2h0.5c0-0.2,0.1-0.3,0.1-0.5h-0.6
			c-0.4,0-0.7-0.3-0.7-0.7v-0.3h0.1c0.4,0.1,0.9-0.5,1-1.4c0-0.6,0-1.3,0-1.9c-0.1-0.9-0.6-1.5-1-1.4h-0.1v-0.2H30
			c0.6,0,1.1-0.4,1.1-1V36c0-0.6-0.5-1-1.1-1l0,0c0.1-0.3,0.4-0.4,0.7-0.4h2v10.5c0,0.4,0.3,0.7,0.7,0.8c0.1,0,0.2,0,0.3,0h37.9
			c0.1,0,0.2,0,0.3,0c0.4-0.1,0.7-0.4,0.7-0.8V34.9h2c0.3,0,0.6,0.2,0.7,0.4l0,0c-0.6,0-1.1,0.4-1.1,1v4.3c0,0.6,0.5,1,1.1,1h0.1
			v0.2h-0.1c-0.4-0.1-0.9,0.5-1,1.4c0,0.6,0,1.3,0,1.9c0.1,0.9,0.6,1.5,1,1.4h0.1v0.3c0,0.4-0.3,0.7-0.7,0.7h-0.3l0,0
			c0,0.2,0.1,0.3,0.1,0.5h0.2c0.7,0,1.3-0.5,1.3-1.2v-0.4c0.5-0.1,1-0.3,1.5-0.4c0.4-0.1,0.7-0.6,0.7-1.1c0-0.4,0-0.7,0-1.1
			C77.8,43,77.6,42.5,77.1,42.4z"/>
	</g>
	<path class="st1" d="M72.5,60.9c0.6,0,1.1-0.2,1.1-0.4c0.8-4.5,0.8-9.1,0-13.6c0-0.2-0.5-0.4-1.1-0.4c-0.4,0-0.8,0-1.2,0
		c-0.1,0-0.2,0.1-0.4,0.1h-18h-0.3H34.5c-0.1,0-0.3,0-0.4-0.1c-0.4,0-0.8,0-1.2,0c-0.6,0-1.1,0.2-1.1,0.4c-0.8,4.5-0.8,9.1,0,13.6
		c0,0.2,0.5,0.4,1.1,0.4C36.4,61,40,61,43.5,61.1l0.1,0.2c-3.6,0-7.1-0.1-10.7-0.2l0,0c0.1,2.7,0.2,5.4,0.5,8.1h19.2h0.3h19.2
		c0.3-2.7,0.5-5.4,0.5-8.1l0,0c-3.5,0.1-7.1,0.1-10.7,0.2l0.1-0.2C65.5,61.1,69,61,72.5,60.9z M40.6,68.3h-6c-0.4,0-0.7-0.3-0.7-0.6
		c0,0,0-0.1,0-0.2c0-0.3,0-0.8,0.2-1l0.1-0.1c2.6,0.3,6.8,1,7,1.2C41.2,68.1,40.9,68.3,40.6,68.3z M43.4,65.3
		c-0.1,0.4-1,0.6-2.2,0.6l0,0h-6.4l0,0c-0.5,0-1-0.7-1-1.2l-0.1-2c0-0.1,0.1-0.3,0.3-0.5c0.2-0.2,0.6-0.4,1.4-0.4
		c1.4,0,3.5,0.7,6.2,2C43.2,64.5,43.5,65,43.4,65.3z M71.5,67.6c0,0.1,0,0.1,0,0.2c0,0.3-0.3,0.6-0.7,0.6h-6c-0.4,0-0.7-0.3-0.7-0.6
		c0.2-0.3,4.4-0.9,7-1.2c0.1,0,0.1,0,0.1,0.1C71.5,66.7,71.5,67.2,71.5,67.6z M64,63.6c2.7-1.3,4.7-2,6.2-2c0.8,0,1.2,0.2,1.4,0.4
		c0.2,0.2,0.3,0.4,0.3,0.5l-0.1,2c0,0.5-0.5,1.2-1,1.2l0,0h-6.4l0,0c-1.3,0-2.1-0.2-2.2-0.6C62,65,62.2,64.5,64,63.6z M60.2,67.3
		c-0.1,0.6-0.5,0.9-0.6,0.9h-6.7h-0.3h-6.7c-0.2,0-0.5-0.4-0.6-0.9L41.5,50c0-0.1,0-0.2,0-0.3l-8.7-2.5l9.4,1.9h10.4h0.3h10.4
		l9.4-1.9l-8.8,2.5c0,0.1,0,0.2,0,0.2L60.2,67.3z"/>
	<path class="st1" d="M73.3,72.9v-2.6c0-0.5-0.4-0.9-0.9-0.9H52.9h-0.3H33c-0.5,0-0.9,0.4-0.9,0.9v2.6c0,0.5,0.4,0.9,0.9,0.9h19.5
		h0.3h19.5C72.9,73.8,73.3,73.4,73.3,72.9z"/>
	<path class="st1" d="M61.7,51.9h-8.8h-0.3h-8.8c-0.4,0-0.8,0.2-0.8,0.4s0.3,0.4,0.8,0.4h8.8h0.3h8.8c0.4,0,0.8-0.2,0.8-0.4
		C62.4,52.1,62.1,51.9,61.7,51.9z"/>
	<path class="st1" d="M61.3,53.6h-8.5h-0.3H44c-0.4,0-0.7,0.2-0.7,0.4s0.3,0.4,0.7,0.4h8.5h0.3h8.5c0.4,0,0.7-0.2,0.7-0.4
		S61.7,53.6,61.3,53.6z"/>
	<path class="st1" d="M61,55.2h-8.1h-0.3h-8.1c-0.4,0-0.7,0.2-0.7,0.4s0.3,0.4,0.7,0.4h8.1h0.3H61c0.4,0,0.7-0.2,0.7-0.4
		S61.3,55.2,61,55.2z"/>
	<path class="st1" d="M60.6,56.8h-7.8h-0.3h-7.8c-0.4,0-0.7,0.2-0.7,0.4s0.3,0.4,0.7,0.4h7.8h0.3h7.8c0.4,0,0.7-0.2,0.7-0.4
		S61,56.8,60.6,56.8z"/>
	<path class="st1" d="M60.3,58.4h-7.4h-0.3h-7.4c-0.4,0-0.7,0.2-0.7,0.4s0.3,0.4,0.7,0.4h7.4h0.3h7.4c0.4,0,0.7-0.2,0.7-0.4
		C60.9,58.6,60.7,58.4,60.3,58.4z"/>
	<path class="st1" d="M60,60h-7.1h-0.3h-7.1c-0.3,0-0.6,0.2-0.6,0.4s0.3,0.4,0.6,0.4h7.1h0.3H60c0.3,0,0.6-0.2,0.6-0.4
		S60.3,60,60,60z"/>
	<path class="st1" d="M59.7,61.7h-6.8h-0.3h-6.8c-0.3,0-0.6,0.2-0.6,0.4s0.3,0.4,0.6,0.4h6.8h0.3h6.8c0.3,0,0.6-0.2,0.6-0.4
		C60.3,61.8,60,61.7,59.7,61.7z"/>
	<path class="st1" d="M59.4,63.3h-6.5h-0.3H46c-0.3,0-0.6,0.2-0.6,0.4s0.3,0.4,0.6,0.4h6.5h0.3h6.5c0.3,0,0.6-0.2,0.6-0.4
		C60,63.5,59.7,63.3,59.4,63.3z"/>
	<path class="st1" d="M59.1,64.9h-6.3h-0.3h-6.3c-0.3,0-0.6,0.2-0.6,0.4c0,0.2,0.2,0.4,0.6,0.4h6.3h0.3h6.3c0.3,0,0.6-0.2,0.6-0.4
		C59.7,65.1,59.4,64.9,59.1,64.9z"/>
	<path class="st1" d="M58.8,66.5h-6h-0.3h-6c-0.3,0-0.5,0.2-0.5,0.4c0,0.2,0.2,0.4,0.5,0.4h6h0.3h6c0.3,0,0.5-0.2,0.5-0.4
		C59.4,66.7,59.1,66.5,58.8,66.5z"/>
	<path class="st1" d="M38.6,21.5v0.7c0.2,0,0.5,0,0.7,0v-0.7c-0.1,0-0.2,0-0.4,0C38.9,21.6,38.8,21.6,38.6,21.5z"/>
	<path class="st1" d="M42.2,21.5v0.6c0.2,0,0.5,0,0.7,0v-0.6c-0.1,0-0.2,0-0.4,0C42.4,21.6,42.3,21.6,42.2,21.5z"/>
	<path class="st1" d="M45.7,21.5V22c0.2,0,0.5,0,0.7,0v-0.5c-0.1,0-0.2,0-0.4,0C45.9,21.6,45.8,21.6,45.7,21.5z"/>
	<path class="st1" d="M42.5,21.4c0.8,0,1.4-0.6,1.4-1.3c0-0.7-0.6-1.3-1.4-1.3s-1.4,0.6-1.4,1.3C41.1,20.9,41.8,21.4,42.5,21.4z"/>
	<path class="st1" d="M39,21.4c0.8,0,1.4-0.6,1.4-1.3c0-0.7-0.6-1.3-1.4-1.3s-1.4,0.6-1.4,1.3C37.6,20.9,38.2,21.4,39,21.4z"/>
	<path class="st1" d="M46.1,21.4c0.8,0,1.4-0.6,1.4-1.3c0-0.7-0.6-1.3-1.4-1.3c-0.8,0-1.4,0.6-1.4,1.3
		C44.7,20.9,45.3,21.4,46.1,21.4z"/>
	<path class="st1" d="M31.8,72.9v-2.6c0-0.6,0.5-1.1,1.2-1.1l0,0c-0.3-2.3-0.4-4.7-0.5-7c-0.9,0.3-1.5,1-1.5,1.8v12.2
		c0,1.1,1.1,1.9,2.4,1.9h2.9c1.3,0,2.4-0.9,2.4-1.9V74H33C32.4,74.1,31.8,73.6,31.8,72.9z"/>
	<path class="st1" d="M32.4,33.5c0.1,0,0.2,0,0.3,0c0.5,0,0.9,0,1.4,0c0.1,0,0.3-0.1,0.4-0.1h18.1h0.3H71c0.1,0,0.3,0,0.4,0.1
		c0.5,0,0.9,0,1.4,0c0.1,0,0.2,0,0.3,0c0.3,0,0.6-0.1,0.6-0.2c0,0,0,0,0-0.1c-0.4-3-2-6.3-5.2-10.3c-0.1-0.1-0.4-0.3-0.7-0.3
		c-0.1,0-0.2,0-0.3,0c-5-0.2-9.8-0.3-14.6-0.3h-0.1h-0.1c-4.8,0-9.6,0.1-14.6,0.3c-0.1,0-0.2,0-0.3,0c-0.3,0.1-0.6,0.2-0.7,0.3
		c-3.2,4-4.8,7.3-5.2,10.3c0,0,0,0,0,0.1C31.8,33.4,32.1,33.5,32.4,33.5z M67.1,23.6c0.1-0.1,0.2-0.2,0.4-0.2c0.3,0,1,0.3,2,1.7
		c1.2,1.7,1.8,2.9,1.6,3.2c0,0-0.1,0.1-0.2,0.1l0,0c-1.1,0-2.6-0.2-2.7-0.4c-0.1-0.2-1.3-3.8-1.3-3.8C66.8,24.1,66.9,23.8,67.1,23.6
		z M36,25.2c1-1.4,1.6-1.7,2-1.7c0.1,0,0.3,0.1,0.4,0.2c0.2,0.2,0.2,0.5,0.2,0.6c0,0-1.2,3.6-1.3,3.8c-0.1,0.2-1.6,0.4-2.7,0.4l0,0
		c-0.1,0-0.2,0-0.2-0.1C34.2,28.1,34.7,26.9,36,25.2z"/>
	<rect x="30.5" y="72.5" class="st1" width="0.4" height="0.7"/>
	<rect x="30.5" y="71.4" class="st1" width="0.4" height="0.7"/>
	<rect x="30.5" y="70" class="st1" width="0.4" height="0.7"/>
	<rect x="30.5" y="68.5" class="st1" width="0.4" height="0.7"/>
	<rect x="30.5" y="67.4" class="st1" width="0.4" height="0.7"/>
	<rect x="74.6" y="72.5" class="st1" width="0.4" height="0.7"/>
	<rect x="74.6" y="71.4" class="st1" width="0.4" height="0.7"/>
	<rect x="74.6" y="70" class="st1" width="0.4" height="0.7"/>
	<rect x="74.6" y="68.5" class="st1" width="0.4" height="0.7"/>
	<rect x="74.6" y="67.4" class="st1" width="0.4" height="0.7"/>
</g>
</svg>
