<?xml version="1.0" encoding="utf-8"?>
<!-- Generator: Adobe Illustrator 23.0.0, SVG Export Plug-In . SVG Version: 6.00 Build 0)  -->
<svg version="1.1" id="Capa_1" xmlns="http://www.w3.org/2000/svg" xmlns:xlink="http://www.w3.org/1999/xlink" x="0px" y="0px"
	 viewBox="0 0 79.4 79.4" style="enable-background:new 0 0 79.4 79.4;" xml:space="preserve">
<style type="text/css">
	.st0{fill:#FFFFFF;}
</style>
<g>
	<path class="st0" d="M55.6,9H26.4c-3,0-5.5,2.5-5.5,5.5v54.3c0,3,2.5,5.5,5.5,5.5h29.2c3,0,5.5-2.5,5.5-5.5V14.5
		C61.1,11.5,58.7,9,55.6,9z M58.7,65.4c0,1.9-1.5,3.4-3.4,3.4H26.8c-1.9,0-3.4-1.5-3.4-3.4v-46c0-1.9,1.5-3.4,3.4-3.4h28.4
		c1.9,0,3.4,1.5,3.4,3.4V65.4z"/>
</g>
<path class="st0" d="M41.5,23.3h-1.1c-0.4,0-0.8-0.3-0.8-0.7v-6.9c0-0.4,0.3-0.7,0.8-0.7h1.1c0.4,0,0.8,0.3,0.8,0.7v6.9
	C42.3,22.9,41.9,23.3,41.5,23.3z"/>
<path class="st0" d="M30.1,41.2v1c0,0.4-0.3,0.7-0.7,0.7h-7c-0.4,0-0.7-0.3-0.7-0.7v-1c0-0.4,0.3-0.7,0.7-0.7h7
	C29.7,40.4,30.1,40.8,30.1,41.2z"/>
<path class="st0" d="M60.4,41.2v1c0,0.4-0.3,0.7-0.7,0.7h-7c-0.4,0-0.7-0.3-0.7-0.7v-1c0-0.4,0.3-0.7,0.7-0.7h7
	C60,40.4,60.4,40.8,60.4,41.2z"/>
<path class="st0" d="M41.5,71.9h-1.1c-0.4,0-0.8-0.3-0.8-0.8v-6.9c0-0.4,0.3-0.7,0.8-0.7h1.1c0.4,0,0.8,0.3,0.8,0.7v6.9
	C42.3,71.5,41.9,71.9,41.5,71.9z"/>
<circle class="st0" cx="41" cy="41.7" r="2.9"/>
<path class="st0" d="M40.8,42.8l-1-0.6c-0.4-0.2-0.5-0.7-0.3-1.1l9.4-16.4c0.2-0.4,0.7-0.5,1.1-0.3l1,0.6c0.4,0.2,0.5,0.7,0.3,1.1
	l-9.4,16.4C41.7,42.9,41.2,43,40.8,42.8z"/>
<path class="st0" d="M48.8,52.9l-1,0.6c-0.4,0.2-0.9,0.1-1.2-0.3l-7-11c-0.2-0.4-0.1-0.9,0.3-1.2l1-0.6c0.4-0.2,0.9-0.1,1.2,0.3
	l7,11C49.3,52.1,49.2,52.7,48.8,52.9z"/>
</svg>
