<?xml version="1.0" encoding="utf-8"?>
<!-- Generator: Adobe Illustrator 23.0.0, SVG Export Plug-In . SVG Version: 6.00 Build 0)  -->
<svg version="1.1" id="Capa_1" xmlns="http://www.w3.org/2000/svg" xmlns:xlink="http://www.w3.org/1999/xlink" x="0px" y="0px"
	 viewBox="0 0 104.1 95.4" style="enable-background:new 0 0 104.1 95.4;" xml:space="preserve">
<style type="text/css">
	.st0{fill:#065F85;}
</style>
<g>
	<path class="st0" d="M43,26.3h1.6c0.8,0,1.4-0.3,1.4-0.8v-4.2c0-0.5,0.4-0.9,0.9-0.9h13.6c0.5,0,0.9,0.4,0.9,0.9v4.3
		c0,0.4,0.7,0.7,1.4,0.7h1.6c0.8,0,1.4-0.3,1.4-0.7v-4.3c0-2.9-2.4-5.3-5.3-5.3H46.9c-2.9,0-5.3,2.4-5.3,5.3v4.2
		C41.6,25.9,42.3,26.3,43,26.3z"/>
	<path class="st0" d="M51.6,56.4h4.3c0.8,0,1.4-0.6,1.4-1.4v-1.6c0-0.8-0.6-1.4-1.4-1.4h-4.3c-0.8,0-1.4,0.6-1.4,1.4V55
		C50.2,55.8,50.8,56.4,51.6,56.4z"/>
	<path class="st0" d="M50.2,62.4c0,0.8,0.6,1.4,1.4,1.4h4.3c0.8,0,1.4-0.6,1.4-1.4v-2.1c0-0.8-0.6-1.4-1.4-1.4h-4.3
		c-0.8,0-1.4,0.6-1.4,1.4V62.4z"/>
	<path class="st0" d="M82.6,53.9c-0.4,0.1-0.7,0.3-1,0.4c-6.9,2.4-14.3,3.8-22.1,4.3v2.7c0,2.4-2,4.3-4.3,4.3h-2.9
		c-2.4,0-4.3-2-4.3-4.3v-2.7c-8.4-0.5-16.3-2.2-23.6-4.9c-0.2-0.1-0.6-0.2-1.5-0.6l-0.1,0c-0.1,0-0.1,0-0.2-0.1v17.8
		c0,2,1.6,3.6,3.6,3.6h55.3c2,0,3.6-1.6,3.6-3.6V53c-0.2,0.1-0.5,0.2-0.8,0.3L82.6,53.9z"/>
	<path class="st0" d="M82.8,29H24.7c-1.9,0-3.5,1.5-3.5,3.5v15.4c0,0.4,0.4,0.9,0.7,1.1c0,0,0.6,0.3,1.7,0.7
		c7.4,2.9,15.8,4.8,24.4,5.3v-2.6c0-1.7,2.6-2.9,4.3-2.9h2.9c2,0,4.3,1.3,4.3,3.3v2.1c7.5-0.5,14.7-1.9,21.3-4.2
		c2.1-0.7,4.7-1.9,4.8-1.9c0.3-0.1,0.7-0.7,0.7-1V32.4C86.2,30.5,84.7,29,82.8,29z"/>
</g>
</svg>
