<?xml version="1.0" encoding="utf-8"?>
<!-- Generator: Adobe Illustrator 23.0.0, SVG Export Plug-In . SVG Version: 6.00 Build 0)  -->
<svg version="1.1" id="Capa_1" xmlns="http://www.w3.org/2000/svg" xmlns:xlink="http://www.w3.org/1999/xlink" x="0px" y="0px"
	 viewBox="0 0 104.1 95.4" style="enable-background:new 0 0 104.1 95.4;" xml:space="preserve">
<style type="text/css">
	.st0{fill:none;stroke:#155F86;stroke-width:3;stroke-miterlimit:10;}
	.st1{fill:#155F86;}
</style>
<circle class="st0" cx="52.7" cy="48.2" r="44.7"/>
<g>
	<path class="st1" d="M70.1,53.2c-2.9,0-5.3,2-5.9,4.7c-0.5-0.1-1-0.2-1.5-0.2c-2.9,0-5.2,2.3-5.2,5.2s2.3,5.2,5.2,5.2l0,0h13.8l0,0
		c2.2,0,4-1.8,4-4.1c0-2.2-1.8-4.1-4.1-4.1c-0.1,0-0.2,0-0.3,0c0-0.2,0-0.4,0-0.7C76.2,55.9,73.5,53.2,70.1,53.2z"/>
	<path class="st1" d="M33,68L33,68h25.2c-1.4-1.3-2.4-3.1-2.4-5.2c0-3.8,3.1-6.9,6.9-6.9c0.1,0,0.2,0,0.3,0c1.3-2.7,4-4.5,7-4.5
		c4,0,7.3,3,7.7,6.9c0.3,0.1,0.5,0.2,0.7,0.2c0.3-1,0.4-2.1,0.4-3.2c0-7-5.6-12.6-12.6-12.6c-1.2,0-2.5,0.2-3.6,0.5
		C61.3,36.8,55.5,32,48.5,32c-8.1,0-14.7,6.6-14.7,14.7c0,0.6,0,1.1,0.1,1.6c-0.3,0-0.6,0-0.8,0c-5.5,0-9.9,4.4-9.9,9.9
		C23.2,63.6,27.6,68,33,68z"/>
	<path class="st1" d="M57.9,27.7h-0.2c-0.3,0-0.6,0.3-0.6,0.6v2.2c0,0.2,0.2,0.5,0.4,0.5c3.4,1.2,6.2,3.9,7.6,7.2
		c0.1,0.2,0.3,0.4,0.5,0.4h2.2c0.2,0,0.4-0.1,0.5-0.2c0.1-0.2,0.1-0.4,0.1-0.5C66.7,33,62.8,29.2,57.9,27.7z"/>
	<path class="st1" d="M71.9,37.8H74c0.2,0,0.4-0.1,0.5-0.2c0.1-0.1,0.2-0.3,0.1-0.5c-1.9-7.8-8.2-13.9-16-15.6h-0.1
		c-0.3,0-0.6,0.3-0.6,0.6v2.1c0,0.3,0.2,0.5,0.4,0.6c6.3,1.6,11.3,6.4,13,12.7C71.4,37.7,71.6,37.8,71.9,37.8z"/>
</g>
</svg>
