<?xml version="1.0" encoding="utf-8"?>
<!-- Generator: Adobe Illustrator 23.0.0, SVG Export Plug-In . SVG Version: 6.00 Build 0)  -->
<svg version="1.1" id="Capa_1" xmlns="http://www.w3.org/2000/svg" xmlns:xlink="http://www.w3.org/1999/xlink" x="0px" y="0px"
	 viewBox="0 0 104.1 95.4" style="enable-background:new 0 0 104.1 95.4;" xml:space="preserve">
<style type="text/css">
	.st0{fill:#065F85;}
	.st1{fill:#4C4D4F;}
	.st2{fill:none;stroke:#065F85;stroke-width:2;stroke-miterlimit:10;}
	.st3{fill:none;}
	.st4{fill:#FFFFFF;}
	.st5{fill:#145F85;}
	.st6{fill:none;stroke:#FFFFFF;stroke-width:3;stroke-miterlimit:10;}
	.st7{fill:#00A0DF;}
	.st8{fill:url(#SVGID_1_);}
	.st9{fill:url(#SVGID_2_);}
	.st10{fill:url(#SVGID_3_);}
	.st11{fill:#B5D173;}
	.st12{fill:#073651;}
	.st13{fill:#979593;}
	.st14{fill:url(#SVGID_4_);}
	.st15{fill:none;stroke:#073651;stroke-width:5;stroke-miterlimit:10;}
	.st16{fill:#F9F9F9;stroke:#065F85;stroke-width:3;stroke-miterlimit:10;}
	.st17{filter:url(#Adobe_OpacityMaskFilter);}
	.st18{mask:url(#SVGID_5_);}
	.st19{opacity:0.26;fill:#C6C6C5;}
	.st20{fill:#C6C6C5;}
	.st21{fill:#169BD7;}
	.st22{filter:url(#Adobe_OpacityMaskFilter_1_);}
	.st23{fill:none;stroke:#F5F5F5;stroke-width:0.25;stroke-miterlimit:10;}
	.st24{clip-path:url(#SVGID_7_);}
	.st25{clip-path:url(#SVGID_9_);fill-rule:evenodd;clip-rule:evenodd;fill:#13110C;}
	.st26{clip-path:url(#SVGID_9_);fill:#00A0DD;}
	.st27{clip-path:url(#SVGID_9_);fill:#FFFFFF;}
	.st28{clip-path:url(#SVGID_9_);fill:#13110C;}
	.st29{fill:none;stroke:#C6C6C5;stroke-width:2;stroke-miterlimit:10;}
	.st30{filter:url(#Adobe_OpacityMaskFilter_2_);}
	.st31{fill-rule:evenodd;clip-rule:evenodd;fill:#065F85;}
</style>
<path class="st2" d="M86.3,91.8H19.3c-8.2,0-14.8-6.6-14.8-14.8V18.4c0-8.2,6.6-14.8,14.8-14.8h67.1c8.2,0,14.8,6.6,14.8,14.8V77
	C101.1,85.2,94.5,91.8,86.3,91.8z"/>
<g>
	<g>
		<path class="st0" d="M24.5,60.8h53.9c0.9,0,1.6-0.7,1.6-1.6V26.1c0-0.9-0.7-1.6-1.6-1.6H24.5c-0.9,0-1.6,0.7-1.6,1.6v33.2
			C22.9,60.1,23.6,60.8,24.5,60.8z M26.6,27.9h49.7v29.3H26.6V27.9z"/>
	</g>
	<g>
		<path class="st0" d="M80.4,61.9c-0.3-0.3-0.6-0.4-1-0.4h-56c-0.4,0-0.7,0.1-1,0.4l-5.6,5.3c-1.2,1.1-0.5,3.3,1,3.3h67.2
			c1.5,0,2.2-2.2,1-3.3L80.4,61.9z"/>
	</g>
	<g>
		<rect x="28.7" y="30.4" class="st0" width="45" height="13.7"/>
	</g>
	<g>
		<rect x="28.7" y="45.4" class="st0" width="10.8" height="1.3"/>
	</g>
	<g>
		<rect x="28.7" y="47.9" class="st0" width="22.2" height="6.7"/>
	</g>
	<g>
		<rect x="40.2" y="45.4" class="st0" width="10.8" height="1.3"/>
	</g>
	<g>
		<rect x="51.6" y="45.4" class="st0" width="10.8" height="1.3"/>
	</g>
	<g>
		<rect x="51.6" y="47.8" class="st0" width="22.2" height="1"/>
	</g>
	<g>
		<rect x="51.6" y="49.6" class="st0" width="22.2" height="1"/>
	</g>
	<g>
		<rect x="51.6" y="51.3" class="st0" width="22.2" height="1"/>
	</g>
	<g>
		<rect x="51.6" y="53.1" class="st0" width="11.5" height="1"/>
	</g>
	<g>
		<rect x="63" y="45.4" class="st0" width="10.8" height="1.3"/>
	</g>
</g>
</svg>
