<?xml version="1.0" encoding="utf-8"?>
<!-- Generator: Adobe Illustrator 23.0.0, SVG Export Plug-In . SVG Version: 6.00 Build 0)  -->
<svg version="1.1" id="Capa_1" xmlns="http://www.w3.org/2000/svg" xmlns:xlink="http://www.w3.org/1999/xlink" x="0px" y="0px"
	 viewBox="0 0 104.1 95.4" style="enable-background:new 0 0 104.1 95.4;" xml:space="preserve">
<style type="text/css">
	.st0{fill:#065F85;}
</style>
<g>
	<g>
		<path class="st0" d="M43.3,59.5v-0.6c0-0.4-0.3-0.7-0.6-0.8c0,0.1-0.1,0.2-0.1,0.3c0,0.3,0.1,0.6,0.1,0.9c0,0.3,0,0.6-0.1,0.9
			C43,60.3,43.3,59.9,43.3,59.5z"/>
		<path class="st0" d="M35.6,69.5l0.9,6.4h1.1l1.8-9.5c-0.2,0-0.3,0-0.5,0h-0.6c-1.1,0.6-2.4,0.9-3.7,0.9c-1.3,0-2.6-0.3-3.7-0.9
			h-0.6c-0.2,0-0.3,0-0.5,0l1.8,9.5h1.1l0.9-6.4h0l-0.9-1.8h3.7L35.6,69.5L35.6,69.5z"/>
		<path class="st0" d="M39.5,66.4l-1.8,9.5h-1.1h-3.8h-1.1l-1.8-9.5c-3.6,0.3-6.4,3.4-6.4,7.1V77h22.5v-3.5
			C45.9,69.7,43.1,66.7,39.5,66.4z"/>
		<path class="st0" d="M24.9,58.9v0.6c0,1.1,0.9,1.9,2,1.9H27c0.6,2.1,2,3.9,4,4.9c1.1,0.6,2.4,0.9,3.7,0.9c1.3,0,2.6-0.3,3.7-0.9
			c1.9-1,3.4-2.8,4-4.9h0.1c1.1,0,2-0.9,2-1.9v-0.6c0-0.9-0.7-1.7-1.5-1.9c0-0.3,0.1-0.6,0.1-0.8l0-0.1c0-0.2,0-0.4,0-0.6v0
			c-0.1-1.3-0.6-2.5-1.3-3.6c-0.4-0.5-0.8-1-1.3-1.4c-1.1-1.2-2.1-1.5-3.2-1.7c-1.5-0.4-2-0.4-3.5-0.3c-0.7,0.1-1.8,0.4-1.9,0.5
			c-3.1,0.9-5.3,3.9-5.3,7.3c0,0.1,0,0.1,0,0.2c0,0.2,0,0.5,0,0.7C25.6,57.2,24.9,58,24.9,58.9z M42.7,58.2c0.3,0.1,0.6,0.4,0.6,0.8
			v0.6c0,0.4-0.3,0.7-0.7,0.8c0-0.3,0.1-0.6,0.1-0.9c0-0.3,0-0.6-0.1-0.9C42.6,58.4,42.7,58.3,42.7,58.2z M27.9,58.4
			c0-0.2,0.1-0.3,0.1-0.5c0.9-0.7,2.1-1.7,2.6-2.6c0,0,7.6,1.8,10.4,2c0.1,0,0.2,0,0.2,0c0.1,0.3,0.2,0.7,0.2,1
			c0.1,0.3,0.1,0.7,0.1,1c0,0.2,0,0.5,0,0.7c0,0.4-0.1,0.8-0.2,1.2c-0.8,2.8-3.5,4.8-6.6,4.8c-3.1,0-5.7-2-6.6-4.8
			c-0.1-0.4-0.2-0.8-0.2-1.2c0-0.2,0-0.5,0-0.7C27.8,59,27.9,58.7,27.9,58.4z M26,58.9c0-0.4,0.3-0.7,0.7-0.8c0,0.2,0,0.3,0,0.5
			c0,0.3-0.1,0.5-0.1,0.8c0,0.3,0,0.6,0.1,0.9c-0.4-0.1-0.7-0.4-0.7-0.8V58.9z"/>
	</g>
	<g>
		<path class="st0" d="M82.5,59.9v-0.6c0-0.4-0.3-0.7-0.7-0.7c0,0.3,0,0.6,0,0.9c0,0.1,0,0.2,0,0.3c0,0.3,0,0.6-0.1,0.9
			C82.2,60.6,82.5,60.2,82.5,59.9z"/>
		<path class="st0" d="M69.4,66.5c0.2,0,0.3,0,0.5,0C69.7,66.4,69.5,66.4,69.4,66.5z"/>
		<path class="st0" d="M66.4,58.5c-0.3,0.1-0.7,0.4-0.7,0.8v0.6c0,0.4,0.3,0.7,0.7,0.8c0-0.3-0.1-0.6-0.1-0.9c0-0.3,0-0.6,0.1-0.9
			C66.4,58.7,66.4,58.7,66.4,58.5z"/>
		<path class="st0" d="M63.1,73.3v3.3h22.1v-3.3c0-1.8-0.7-3.4-1.7-4.6c0.7-0.3,1.2-0.6,1.2-0.6c0.1,0,0.1-0.1,0.1-0.2
			c0-0.1,0-0.1-0.1-0.2c0,0-1.8-0.9-2.3-2.1c0.6,0.6,1.4,0.8,2.4,1c0.1,0,0.2,0,0.2-0.1c0-0.1,0.1-0.1,0-0.2
			c-0.7-1.5-1.4-3.4-1.8-5.2c0.1-0.1,0.2-0.2,0.2-0.3c0.2-0.3,0.3-0.6,0.3-1v-0.6c0-0.5-0.2-1-0.6-1.3C83,52.5,79,48.1,74,48.1
			c-1.8,0-3.5,0.6-4.9,1.6c-0.5,0.3-1,0.7-1.4,1.2C66,52.7,65,55.3,65,58.1v0c-0.3,0.3-0.4,0.7-0.4,1.1v0.6c0,0.6,0.3,1.2,0.8,1.5
			c0.1,2.1,0.6,4.3,1,6.1C64.4,68.6,63.1,70.8,63.1,73.3z M78.5,68c-0.1,0.2-2.4,2.3-2.4,2.3l1.5,1.5l-3.6,4l-3.6-4l1.5-1.5
			c0,0-2.3-2.1-2.4-2.3c-0.2-0.3,1.4-1.4,1.4-1.4l3,9.2l3-9.2C77.1,66.6,78.7,67.7,78.5,68z M69.4,66.5c0.2,0,0.3,0,0.5,0
			C69.7,66.4,69.5,66.4,69.4,66.5z M72.1,68.9l4,0l-2,6l-0.1,0L72.1,68.9z M81.9,59.4c0-0.3,0-0.6,0-0.9c0.4,0.1,0.7,0.4,0.7,0.7
			v0.6c0,0.4-0.3,0.7-0.7,0.8c0-0.3,0.1-0.6,0.1-0.9C81.9,59.6,81.9,59.5,81.9,59.4z M67.5,58.8c0-0.3,0.1-0.6,0.2-1
			c0.1,0,0.1,0,0.2,0c2.7-0.2,10.1-2,10.1-2c0.4,0.8,1.6,1.8,2.5,2.5c0,0.1,0.1,0.3,0.1,0.4c0,0.3,0.1,0.6,0.1,1c0,0.2,0,0.5,0,0.7
			c0,0.4-0.1,0.8-0.2,1.1c-0.8,2.7-3.4,4.7-6.4,4.7c-3,0-5.6-2-6.4-4.7c-0.1-0.4-0.2-0.7-0.2-1.1c0-0.2,0-0.5,0-0.7
			C67.4,59.4,67.5,59.1,67.5,58.8z M66.4,58.9c0,0.3-0.1,0.6-0.1,0.9c0,0.3,0,0.6,0.1,0.9c-0.4-0.1-0.7-0.4-0.7-0.8v-0.6
			c0-0.4,0.4-0.7,0.7-0.8C66.4,58.7,66.4,58.7,66.4,58.9z"/>
		<polygon class="st0" points="74.1,74.9 76.1,68.9 72.1,68.9 74.1,74.9 		"/>
	</g>
	<g>
		<g>
			<path class="st0" d="M63.2,27.8v-0.6c0-0.4-0.3-0.7-0.6-0.8c0,0.1-0.1,0.2-0.1,0.3c0,0.3,0.1,0.6,0.1,0.9c0,0.3,0,0.6-0.1,0.9
				C62.9,28.5,63.2,28.2,63.2,27.8z"/>
			<path class="st0" d="M59.4,34.7l-1.8,9.5h-1.1h-3.8h-1.1l-1.8-9.5c-3.6,0.3-6.4,3.4-6.4,7.1v3.5h22.5v-3.5
				C65.8,38,63,34.9,59.4,34.7z"/>
			<polygon class="st0" points="52.6,44.2 56.5,44.2 55.5,37.8 55.5,37.8 56.4,36 52.7,36 53.6,37.8 53.6,37.8 			"/>
			<path class="st0" d="M44.8,27.2v0.6c0,1.1,0.9,1.9,2,1.9h0.1c0.6,2.1,2,3.9,4,4.9c1.1,0.6,2.4,0.9,3.7,0.9c1.3,0,2.6-0.3,3.7-0.9
				c1.9-1,3.4-2.8,4-4.9h0.1c1.1,0,2-0.9,2-1.9v-0.6c0-0.9-0.7-1.7-1.5-1.9c0-0.3,0.1-0.6,0.1-0.8l0-0.1c0-0.2,0-0.4,0-0.6v0
				c-0.1-1.3-0.6-2.5-1.3-3.6c-0.4-0.5-0.8-1-1.3-1.4c-1.3-1.1-2.9-2.1-4.7-2.1c0,0-1.5-0.3-3.9,0.6c-3.1,0.9-5.3,3.9-5.3,7.3
				c0,0.1,0,0.1,0,0.2c0,0.2,0,0.5,0,0.7C45.5,25.5,44.8,26.2,44.8,27.2z M62.6,26.4c0.3,0.1,0.6,0.4,0.6,0.8v0.6
				c0,0.4-0.3,0.7-0.7,0.8c0-0.3,0.1-0.6,0.1-0.9c0-0.3,0-0.6-0.1-0.9C62.5,26.7,62.5,26.5,62.6,26.4z M47.8,26.7
				c0-0.2,0.1-0.3,0.1-0.5c0.9-0.7,2.1-1.7,2.6-2.6c0,0,7.6,1.8,10.4,2c0.1,0,0.2,0,0.2,0c0.1,0.3,0.2,0.7,0.2,1
				c0.1,0.3,0.1,0.7,0.1,1c0,0.2,0,0.5,0,0.7c0,0.4-0.1,0.8-0.2,1.2c-0.8,2.8-3.5,4.8-6.6,4.8c-3.1,0-5.7-2-6.6-4.8
				c-0.1-0.4-0.2-0.8-0.2-1.2c0-0.2,0-0.5,0-0.7C47.7,27.3,47.7,27,47.8,26.7z M45.9,27.2c0-0.4,0.3-0.7,0.7-0.8c0,0.2,0,0.3,0,0.5
				c0,0.3-0.1,0.5-0.1,0.8c0,0.3,0,0.6,0.1,0.9c-0.4-0.1-0.7-0.4-0.7-0.8V27.2z"/>
		</g>
		<path class="st0" d="M53.5,26.8c-0.1-0.1-0.1-0.1-0.2-0.1h-5c-0.1,0-0.2,0-0.2,0.1c-0.1,0.1-0.1,0.2,0,0.2l0.6,2.4
			c0,0.1,0.1,0.2,0.3,0.2h3.8c0.1,0,0.2-0.1,0.3-0.2l0.3-1.4c0.1-0.1,0.2-0.2,0.4-0.3c0.2-0.1,0.5-0.1,0.8-0.1
			c0.3,0,0.6,0.1,0.8,0.1c0.2,0.1,0.3,0.2,0.4,0.3l0.3,1.4c0,0.1,0.1,0.2,0.3,0.2h3.8c0.1,0,0.2-0.1,0.3-0.2L61,27
			c0-0.1,0-0.2,0-0.2c-0.1-0.1-0.1-0.1-0.2-0.1h-5c-0.1,0-0.2,0-0.2,0.1c-0.1,0.1-0.1,0.2-0.1,0.2l0,0.2c-0.3-0.1-0.7-0.2-1-0.2
			c-0.4,0-0.7,0.1-1,0.2l0-0.2C53.6,26.9,53.6,26.8,53.5,26.8z M52.8,27.8C52.8,27.8,52.8,27.8,52.8,27.8L52.8,27.8l-0.2,1.3h-3.4
			l-0.5-1.8H53L52.8,27.8z M60.4,27.2l-0.5,1.8h-3.4l-0.2-1.2l0,0c0,0,0-0.1-0.1-0.1l-0.1-0.5H60.4z"/>
	</g>
	<path class="st0" d="M62.5,60.4h-6.9V49.3c0-0.6-0.5-1.1-1.1-1.1c-0.6,0-1.1,0.5-1.1,1.1v11.1h-6.9c-0.6,0-1.1,0.5-1.1,1.1
		c0,0.6,0.5,1.1,1.1,1.1h15.8c0.6,0,1.1-0.5,1.1-1.1C63.5,60.9,63,60.4,62.5,60.4z"/>
</g>
</svg>
