<?xml version="1.0" encoding="utf-8"?>
<!-- Generator: Adobe Illustrator 23.0.0, SVG Export Plug-In . SVG Version: 6.00 Build 0)  -->
<svg version="1.1" id="Capa_1" xmlns="http://www.w3.org/2000/svg" xmlns:xlink="http://www.w3.org/1999/xlink" x="0px" y="0px"
	 viewBox="0 0 342.7 100.9" style="enable-background:new 0 0 342.7 100.9;" xml:space="preserve">
<style type="text/css">
	.st0{fill:#065F85;}
	.st1{fill:#4C4D4F;}
	.st2{fill:none;stroke:#065F85;stroke-width:2;stroke-miterlimit:10;}
	.st3{fill:none;}
	.st4{fill:#FFFFFF;}
	.st5{fill:#145F85;}
	.st6{fill:#00A0DF;}
	.st7{font-family:'VerdanaPro-CondRegular';}
	.st8{font-size:21px;}
	.st9{fill:none;stroke:#FFFFFF;stroke-width:3;stroke-miterlimit:10;}
	.st10{fill:url(#SVGID_1_);}
	.st11{fill:url(#SVGID_2_);}
	.st12{fill:url(#SVGID_3_);}
	.st13{fill:#B5D173;}
	.st14{fill:#073651;}
	.st15{fill:#979593;}
	.st16{fill:url(#SVGID_4_);}
	.st17{fill:none;stroke:#073651;stroke-width:5;stroke-miterlimit:10;}
	.st18{fill:#F9F9F9;stroke:#065F85;stroke-width:3;stroke-miterlimit:10;}
	.st19{fill:url(#SVGID_5_);}
	.st20{fill:url(#SVGID_6_);}
	.st21{fill:url(#SVGID_7_);}
	.st22{fill:url(#SVGID_8_);}
	.st23{filter:url(#Adobe_OpacityMaskFilter);}
	.st24{mask:url(#SVGID_9_);}
	.st25{opacity:0.26;fill:#C6C6C5;}
	.st26{fill:#C6C6C5;}
	.st27{fill:#169BD7;}
	.st28{filter:url(#Adobe_OpacityMaskFilter_1_);}
	.st29{fill:none;stroke:#F5F5F5;stroke-width:0.25;stroke-miterlimit:10;}
	.st30{clip-path:url(#SVGID_11_);}
	.st31{clip-path:url(#SVGID_13_);fill-rule:evenodd;clip-rule:evenodd;fill:#13110C;}
	.st32{clip-path:url(#SVGID_13_);fill:#00A0DD;}
	.st33{clip-path:url(#SVGID_13_);fill:#FFFFFF;}
	.st34{clip-path:url(#SVGID_13_);fill:#13110C;}
	.st35{fill:none;stroke:#C6C6C5;stroke-width:2;stroke-miterlimit:10;}
	.st36{filter:url(#Adobe_OpacityMaskFilter_2_);}
	.st37{fill-rule:evenodd;clip-rule:evenodd;fill:#065F85;}
</style>
<path class="st0" d="M249.5,86.9H64.7c-6.3,0-11.5-5.1-11.5-11.5V29c0-6.3,5.1-11.5,11.5-11.5h184.8c6.3,0,11.5,5.1,11.5,11.5v46.5
	C261,81.8,255.8,86.9,249.5,86.9z"/>
<g>
	<path class="st4" d="M71.1,75.7h26.2c1.7,0,3-1.4,3-3V28c0-1.7-1.4-3-3-3H71.1c-1.7,0-3,1.4-3,3v44.7
		C68.1,74.4,69.4,75.7,71.1,75.7z M84.2,72.8c-1,0-1.9-0.8-1.9-1.9c0-1,0.8-1.9,1.9-1.9c1,0,1.9,0.8,1.9,1.9
		C86.1,71.9,85.2,72.8,84.2,72.8z M72.8,29.2h22.7v37.7H72.8V29.2z"/>
	<rect x="75" y="31.6" class="st4" width="18.4" height="13.6"/>
	<rect x="75" y="46.3" class="st4" width="4.4" height="1.7"/>
	<rect x="75" y="49.5" class="st4" width="8.5" height="8"/>
	<rect x="79.7" y="46.3" class="st4" width="4.4" height="1.7"/>
	<rect x="84.3" y="46.3" class="st4" width="4.4" height="1.7"/>
	<rect x="84.6" y="49.7" class="st4" width="8.8" height="1.1"/>
	<rect x="84.6" y="51.6" class="st4" width="8.8" height="1.1"/>
	<rect x="84.6" y="53.6" class="st4" width="8.8" height="1.1"/>
	<rect x="84.6" y="55.6" class="st4" width="4.6" height="1.1"/>
	<rect x="84.6" y="58.4" class="st4" width="8.8" height="1.1"/>
	<rect x="84.6" y="60.4" class="st4" width="8.8" height="1.1"/>
	<rect x="89" y="46.3" class="st4" width="4.4" height="1.7"/>
</g>
<rect x="112.1" y="30.6" class="st3" width="158.7" height="50.4"/>
<text transform="matrix(1 0 0 1 112.0689 46.5538)"><tspan x="0" y="0" class="st4 st7 st8">Seguimento </tspan><tspan x="0" y="25.2" class="st4 st7 st8">Satélital web</tspan></text>
</svg>
