<?xml version="1.0" encoding="utf-8"?>
<!-- Generator: Adobe Illustrator 23.0.0, SVG Export Plug-In . SVG Version: 6.00 Build 0)  -->
<svg version="1.1" id="Capa_1" xmlns="http://www.w3.org/2000/svg" xmlns:xlink="http://www.w3.org/1999/xlink" x="0px" y="0px"
	 viewBox="0 0 104.1 95.4" style="enable-background:new 0 0 104.1 95.4;" xml:space="preserve">
<style type="text/css">
	.st0{fill:none;stroke:#155F86;stroke-width:3;stroke-miterlimit:10;}
	.st1{fill:#155F86;}
</style>
<circle class="st0" cx="52.7" cy="48.2" r="44.7"/>
<g>
	<path class="st1" d="M65.9,17.6H39.2c-2.7,0-5,2.2-5,5v49.6c0,2.7,2.2,5,5,5h26.6c2.7,0,5-2.2,5-5V22.6
		C70.9,19.9,68.6,17.6,65.9,17.6z M69.9,57.5c-0.1-0.2-0.4-0.9-2.8-2.3l-1.4,2.5c0.9,0.6,2,1.7,3,2.5v9c0,1.7-1.4,3.2-3.2,3.2H39.6
		c-1.7,0-3.2-1.4-3.2-3.2V49.3c0.1,0.1,0.1,0.1,0.2,0.2l2.6-1.6c-1.3-1.2-3.5-5.5-3.5-5.5l-1,5l0,0l1-5.1c0,0,0.3,0.6,0.8,1.4V27.2
		c0-1.7,1.4-3.2,3.2-3.2h25.9c1.7,0,3.2,1.4,3.2,3.2v28.9c0.9,0.8,1.2,1.1,1.3,1.2L69.9,57.5z"/>
	<path class="st1" d="M60.5,36.1c0-4.4-3.6-7.9-7.9-7.9s-7.9,3.6-7.9,7.9c0,5.5,7.9,14.9,7.9,14.9S60.5,41.3,60.5,36.1z M50.2,38.4
		c-1.3-1.3-1.3-3.5,0-4.8c0.6-0.6,1.5-1,2.4-1c0.9,0,1.8,0.3,2.4,1c1.3,1.3,1.3,3.5,0,4.8c-0.7,0.7-1.5,1-2.4,1
		C51.7,39.4,50.8,39.1,50.2,38.4z"/>
	<path class="st1" d="M38.1,50.7c1.2,0.9,2.6,1.7,4.3,2.3l2-2.1c-1.4-0.5-2.6-1.1-3.6-1.8L38.1,50.7z"/>
	<path class="st1" d="M46.5,51.5l-2,2.2c1.6,0.4,3.4,0.6,5.3,0.5l0.8-2.6C49.1,51.7,47.8,51.7,46.5,51.5z"/>
	<path class="st1" d="M59.2,54.6c1.7,0.4,3.2,1,4.4,1.7l1.3-2.4c-1.4-0.7-2.9-1.3-4.6-1.7L59.2,54.6z"/>
	<path class="st1" d="M52.4,54c1.6-0.1,3.1-0.1,4.4,0.1l1-2.4c-1.5-0.3-3.1-0.3-4.8-0.3L52.4,54z"/>
</g>
</svg>
