<?xml version="1.0" encoding="utf-8"?>
<!-- Generator: Adobe Illustrator 23.0.0, SVG Export Plug-In . SVG Version: 6.00 Build 0)  -->
<svg version="1.1" id="Capa_1" xmlns="http://www.w3.org/2000/svg" xmlns:xlink="http://www.w3.org/1999/xlink" x="0px" y="0px"
	 viewBox="0 0 104.1 95.4" style="enable-background:new 0 0 104.1 95.4;" xml:space="preserve">
<style type="text/css">
	.st0{fill:none;stroke:#155F86;stroke-width:3;stroke-miterlimit:10;}
	.st1{fill:#155F86;}
</style>
<circle class="st0" cx="52.7" cy="48.2" r="44.7"/>
<g>
	<g>
		<path class="st1" d="M52,15.9c-9.6,0-18.2,4.1-24.2,10.7c-5.3,5.8-8.5,13.6-8.5,22C19.3,66.8,34,81.5,52,81.5
			c8.5,0,16.2-3.2,22-8.5c6.6-6,10.7-14.6,10.7-24.2C84.8,30.6,70.1,15.9,52,15.9z M71,69.8c-4.5,4-10.3,6.7-16.7,7.2v-4.3
			c0-1.2-1-2.2-2.2-2.2s-2.2,1-2.2,2.2V77c-0.7-0.1-1.5-0.1-2.2-0.3C35.5,74.8,25.9,65.2,24,53.1c-0.1-0.7-0.2-1.4-0.3-2.2H28
			c1.2,0,2.2-1,2.2-2.2s-1-2.2-2.2-2.2h-4.3c0.5-6.4,3.1-12.2,7.2-16.7c4.7-5.3,11.4-8.8,18.9-9.4v4.3c0,1.2,1,2.2,2.2,2.2
			s2.2-1,2.2-2.2v-1.8v-2.4c13.9,1.1,25,12.2,26.1,26.1h-2.4h-1.8c-1.2,0-2.2,1-2.2,2.2s1,2.2,2.2,2.2h4.3
			C79.8,58.4,76.3,65.1,71,69.8z"/>
	</g>
	<g>
		<path class="st1" d="M75.1,38.2c-0.3-0.5-0.9-0.8-1.5-0.5l-18.9,9.1c-0.6-0.8-1.6-1.4-2.6-1.4c-1.3,0-2.4,0.7-2.9,1.8l-10.3-3
			c-0.6-0.2-1.2,0.2-1.4,0.8c-0.2,0.6,0.2,1.2,0.8,1.4l9,2.6l1.6,0.5c0.3,1.5,1.6,2.6,3.2,2.6c0.3,0,0.6-0.1,0.9-0.2
			c0.9-0.3,1.6-0.8,2-1.6c0.2-0.4,0.3-0.8,0.4-1.3L73,40.6l1.7-0.8C75.1,39.4,75.3,38.8,75.1,38.2z"/>
	</g>
</g>
</svg>
