<?xml version="1.0" encoding="utf-8"?>
<!-- Generator: Adobe Illustrator 23.0.0, SVG Export Plug-In . SVG Version: 6.00 Build 0)  -->
<svg version="1.1" id="Capa_1" xmlns="http://www.w3.org/2000/svg" xmlns:xlink="http://www.w3.org/1999/xlink" x="0px" y="0px"
	 viewBox="0 0 104.1 95.4" style="enable-background:new 0 0 104.1 95.4;" xml:space="preserve">
<style type="text/css">
	.st0{fill:#065F85;}
</style>
<g>
	<path class="st0" d="M38.1,42.5H25.3c-1.6,0-2.8,1.3-2.6,2.9l-0.1,25.2c0,0.1,0,0.1,0,0.2c0.2,1.7,1.8,3,3.4,3h16.4
		c1.6,0,2.7-1.2,2.6-2.8l-3.6-26.3c0,0,0,0-0.1,0C40.9,43.5,39.5,42.5,38.1,42.5z"/>
	<path class="st0" d="M82.9,53.4c-0.2-1.9-1.1-3.3-2.4-4.3c0.9-0.7,1.5-1.7,1.6-2.9c0.2-1.7-0.3-4.2-2-6.1c-0.9-0.9-2.5-2.1-5-2.1
		H63.5c0-1.7,0-4.3,0.1-6.7c0.2-3.4-1.7-7.5-3.6-9.7c-1-1.1-2-1.8-3-1.9c-0.3,0-0.6-0.1-1-0.1c-2.2,0-4.7,0.9-5.2,2.7
		c-0.2,0.8,0,1.7,0.2,2.6c0.3,1.2,0.6,2.7,0.3,4.8c-0.6,3.6-6.1,12.3-7.8,13.8l3.7,27c2.4,0.9,8,3,10.9,3h14.6c1,0,4.3-0.2,5.3-3
		c0.5-1.3,0.3-2.6-0.2-3.7c0-0.1,0-0.2,0-0.3c0,0,0,0,0-0.1c1.8-0.5,3-1.7,3.3-3.5c0.4-2.2-0.3-3.7-0.9-4.6
		C82.1,57.6,83.1,55.8,82.9,53.4z"/>
</g>
</svg>
