<?xml version="1.0" encoding="utf-8"?>
<!-- Generator: Adobe Illustrator 23.0.0, SVG Export Plug-In . SVG Version: 6.00 Build 0)  -->
<svg version="1.1" id="Capa_1" xmlns="http://www.w3.org/2000/svg" xmlns:xlink="http://www.w3.org/1999/xlink" x="0px" y="0px"
	 viewBox="0 0 104.1 95.4" style="enable-background:new 0 0 104.1 95.4;" xml:space="preserve">
<style type="text/css">
	.st0{fill:#065F85;}
</style>
<g id="g_2_">
	<g id="g_3_">
		<path id="s_9_" class="st0" d="M87.4,60.5c0,0.3-0.1,0.6-0.4,0.8c-0.3,0.2-0.6,0.3-1,0.3h-8c0-1-0.2-2-0.6-2.8h9.9V60.5z"/>
		<path id="s_8_" class="st0" d="M62.5,61.7H41.3c0-1-0.2-2-0.6-2.8h22.4C62.7,59.7,62.5,60.7,62.5,61.7z"/>
		<path id="s_7_" class="st0" d="M19.1,37.8c2.2-2,5-3.8,7.7-4.2c2.7-0.4,8-0.4,8-0.4v21.1c-0.4-0.1-0.9-0.1-1.3-0.1
			c-4.3,0-7.8,3.3-7.8,7.4h-6.6c-0.8,0-1.7-0.3-2.3-0.9c-0.6-0.6-1-1.4-1-2.2V45.3C15.8,42.6,16.9,39.9,19.1,37.8z M18.1,47.8
			c0,0.3,0.1,0.6,0.4,0.8c0.3,0.2,0.6,0.3,1,0.2l11.6-2.2c0.3,0,0.5-0.2,0.7-0.4c0.2-0.2,0.3-0.5,0.3-0.7v-9.4c0,0-3.9,0-5.9,0.3
			c-2,0.3-4.1,1.6-5.6,3.1c-1.6,1.5-2.4,3.5-2.4,5.4V47.8z"/>
		<path id="s_6_" class="st0" d="M64.7,58.1c0.1-0.1,0.2-0.3,0.3-0.4c1.2-1.5,3.1-2.4,5.2-2.4c2.1,0,4,0.9,5.2,2.4
			c0.1,0.1,0.2,0.3,0.3,0.4c0.2,0.2,0.3,0.5,0.4,0.7c0.5,0.9,0.7,1.8,0.7,2.8c0,3.5-3,6.3-6.7,6.3c-3.7,0-6.7-2.8-6.7-6.3
			c0-1,0.3-2,0.7-2.8C64.4,58.6,64.6,58.4,64.7,58.1z M70.3,64.9c1.9,0,3.5-1.5,3.5-3.3c0-1.2-0.7-2.3-1.7-2.8
			c-0.5-0.3-1.1-0.4-1.7-0.4c-0.6,0-1.2,0.2-1.7,0.4c-1,0.6-1.7,1.6-1.7,2.8C66.8,63.5,68.4,64.9,70.3,64.9z"/>
		<path id="s_5_" class="st0" d="M33.4,55.4c0.4,0,0.9,0,1.3,0.1c0.5,0.1,1.1,0.3,1.5,0.5c1.1,0.5,2,1.2,2.7,2.2
			c0.7,1,1.1,2.2,1.1,3.5c0,3.5-3,6.3-6.7,6.3c-3.7,0-6.7-2.8-6.7-6.3C26.8,58.2,29.7,55.4,33.4,55.4z M33.4,64.9
			c1.9,0,3.5-1.5,3.5-3.3c0-0.7-0.2-1.3-0.6-1.9c-0.4-0.5-0.9-0.9-1.5-1.2c-0.4-0.2-0.8-0.2-1.3-0.2c-1.9,0-3.5,1.5-3.5,3.3
			S31.5,64.9,33.4,64.9z"/>
		<g>
			<rect x="36.3" y="25.5" class="st0" width="51.1" height="2.8"/>
			<path class="st0" d="M36.3,54.8c1.6,0.6,2.9,1.6,3.8,3h23.6c1.4-2.1,3.8-3.5,6.6-3.5c2.8,0,5.2,1.4,6.6,3.5h10.5V29.1H36.3V54.8z
				"/>
		</g>
	</g>
</g>
</svg>
