<?xml version="1.0" encoding="utf-8"?>
<!-- Generator: Adobe Illustrator 23.0.0, SVG Export Plug-In . SVG Version: 6.00 Build 0)  -->
<svg version="1.1" id="Capa_1" xmlns="http://www.w3.org/2000/svg" xmlns:xlink="http://www.w3.org/1999/xlink" x="0px" y="0px"
	 viewBox="0 0 79.4 79.4" style="enable-background:new 0 0 79.4 79.4;" xml:space="preserve">
<style type="text/css">
	.st0{fill:#FFFFFF;}
</style>
<g>
	<g>
		<path class="st0" d="M41,6.9c-9.6,0-18.2,4.1-24.2,10.7c-5.3,5.8-8.5,13.6-8.5,22C8.3,57.8,23,72.5,41,72.5c8.5,0,16.2-3.2,22-8.5
			c6.6-6,10.7-14.6,10.7-24.2C73.8,21.6,59.1,6.9,41,6.9z M60,60.8c-4.5,4-10.3,6.7-16.7,7.2v-4.3c0-1.2-1-2.2-2.2-2.2
			c-1.2,0-2.2,1-2.2,2.2V68c-0.7-0.1-1.5-0.1-2.2-0.3C24.5,65.8,14.9,56.2,13,44.1c-0.1-0.7-0.2-1.4-0.3-2.2H17c1.2,0,2.2-1,2.2-2.2
			c0-1.2-1-2.2-2.2-2.2h-4.3c0.5-6.4,3.1-12.2,7.2-16.7c4.7-5.3,11.4-8.8,18.9-9.4v4.3c0,1.2,1,2.2,2.2,2.2c1.2,0,2.2-1,2.2-2.2
			v-1.8v-2.4c13.9,1.1,25,12.2,26.1,26.1h-2.4h-1.8c-1.2,0-2.2,1-2.2,2.2c0,1.2,1,2.2,2.2,2.2h4.3C68.8,49.4,65.3,56.1,60,60.8z"/>
	</g>
	<g>
		<path class="st0" d="M64.1,29.2c-0.3-0.5-0.9-0.8-1.5-0.5l-18.9,9.1c-0.6-0.8-1.6-1.4-2.6-1.4c-1.3,0-2.4,0.7-2.9,1.8l-10.3-3
			c-0.6-0.2-1.2,0.2-1.4,0.8c-0.2,0.6,0.2,1.2,0.8,1.4l9,2.6l1.6,0.5c0.3,1.5,1.6,2.6,3.2,2.6c0.3,0,0.6-0.1,0.9-0.2
			c0.9-0.3,1.6-0.8,2-1.6c0.2-0.4,0.3-0.8,0.4-1.3l17.6-8.4l1.7-0.8C64.1,30.4,64.3,29.8,64.1,29.2z"/>
	</g>
</g>
</svg>
