<?xml version="1.0" encoding="utf-8"?>
<!-- Generator: Adobe Illustrator 23.0.0, SVG Export Plug-In . SVG Version: 6.00 Build 0)  -->
<svg version="1.1" id="Capa_1" xmlns="http://www.w3.org/2000/svg" xmlns:xlink="http://www.w3.org/1999/xlink" x="0px" y="0px"
	 viewBox="0 0 104.1 95.4" style="enable-background:new 0 0 104.1 95.4;" xml:space="preserve">
<style type="text/css">
	.st0{fill:none;stroke:#155F86;stroke-width:3;stroke-miterlimit:10;}
	.st1{fill:#155F86;}
</style>
<circle class="st0" cx="52.5" cy="47.5" r="44.7"/>
<g>
	<g>
		<path class="st1" d="M66.4,16.5H38.7c-2.9,0-5.2,2.3-5.2,5.2v51.5c0,2.9,2.3,5.2,5.2,5.2h27.7c2.9,0,5.2-2.3,5.2-5.2V21.7
			C71.6,18.8,69.2,16.5,66.4,16.5z M69.2,69.9c0,1.8-1.5,3.3-3.3,3.3H39.1c-1.8,0-3.3-1.5-3.3-3.3V26.4c0-1.8,1.5-3.3,3.3-3.3H66
			c1.8,0,3.3,1.5,3.3,3.3V69.9z"/>
	</g>
	<path class="st1" d="M53,30H52c-0.4,0-0.8-0.3-0.8-0.7v-6.5c0-0.4,0.3-0.8,0.8-0.8H53c0.4,0,0.7,0.3,0.7,0.8v6.5
		C53.7,29.7,53.4,30,53,30z"/>
	<path class="st1" d="M42.1,47v0.9c0,0.4-0.3,0.7-0.7,0.7h-6.5c-0.4,0-0.7-0.3-0.7-0.7V47c0-0.4,0.3-0.7,0.7-0.7h6.5
		C41.8,46.3,42.1,46.6,42.1,47z"/>
	<path class="st1" d="M70.9,47v0.9c0,0.4-0.3,0.7-0.7,0.7h-6.5c-0.4,0-0.7-0.3-0.7-0.7V47c0-0.4,0.3-0.7,0.7-0.7h6.5
		C70.5,46.3,70.9,46.6,70.9,47z"/>
	<path class="st1" d="M53,76.1H52c-0.4,0-0.8-0.3-0.8-0.7v-6.5c0-0.4,0.3-0.8,0.8-0.8H53c0.4,0,0.7,0.3,0.7,0.8v6.5
		C53.7,75.8,53.4,76.1,53,76.1z"/>
	<circle class="st1" cx="52.5" cy="47.5" r="2.7"/>
	<path class="st1" d="M52.3,48.5L51.4,48c-0.4-0.2-0.5-0.7-0.3-1.1L60,31.4c0.2-0.4,0.7-0.5,1.1-0.3l0.9,0.5
		c0.4,0.2,0.5,0.7,0.3,1.1l-8.9,15.4C53.2,48.6,52.7,48.8,52.3,48.5z"/>
	<path class="st1" d="M59.8,58.2L59,58.7c-0.4,0.2-0.9,0.1-1.2-0.3l-6.6-10.4c-0.2-0.4-0.1-0.9,0.3-1.2l0.9-0.6
		c0.4-0.2,0.9-0.1,1.2,0.3L60.1,57C60.3,57.4,60.2,57.9,59.8,58.2z"/>
</g>
</svg>
