<?xml version="1.0" encoding="utf-8"?>
<!-- Generator: Adobe Illustrator 23.0.0, SVG Export Plug-In . SVG Version: 6.00 Build 0)  -->
<svg version="1.1" id="Capa_1" xmlns="http://www.w3.org/2000/svg" xmlns:xlink="http://www.w3.org/1999/xlink" x="0px" y="0px"
	 viewBox="0 0 104.1 95.4" style="enable-background:new 0 0 104.1 95.4;" xml:space="preserve">
<style type="text/css">
	.st0{fill:#065F85;}
	.st1{fill:#4C4D4F;}
	.st2{fill:none;stroke:#065F85;stroke-width:2;stroke-miterlimit:10;}
	.st3{fill:none;}
	.st4{fill:#FFFFFF;}
	.st5{fill:#145F85;}
	.st6{fill:none;stroke:#FFFFFF;stroke-width:3;stroke-miterlimit:10;}
	.st7{fill:#00A0DF;}
	.st8{fill:url(#SVGID_1_);}
	.st9{fill:url(#SVGID_2_);}
	.st10{fill:url(#SVGID_3_);}
	.st11{fill:#B5D173;}
	.st12{fill:#073651;}
	.st13{fill:#979593;}
	.st14{fill:url(#SVGID_4_);}
	.st15{fill:none;stroke:#073651;stroke-width:5;stroke-miterlimit:10;}
	.st16{fill:#F9F9F9;stroke:#065F85;stroke-width:3;stroke-miterlimit:10;}
	.st17{filter:url(#Adobe_OpacityMaskFilter);}
	.st18{mask:url(#SVGID_5_);}
	.st19{opacity:0.26;fill:#C6C6C5;}
	.st20{fill:#C6C6C5;}
	.st21{fill:#169BD7;}
	.st22{filter:url(#Adobe_OpacityMaskFilter_1_);}
	.st23{fill:none;stroke:#F5F5F5;stroke-width:0.25;stroke-miterlimit:10;}
	.st24{clip-path:url(#SVGID_7_);}
	.st25{clip-path:url(#SVGID_9_);fill-rule:evenodd;clip-rule:evenodd;fill:#13110C;}
	.st26{clip-path:url(#SVGID_9_);fill:#00A0DD;}
	.st27{clip-path:url(#SVGID_9_);fill:#FFFFFF;}
	.st28{clip-path:url(#SVGID_9_);fill:#13110C;}
	.st29{fill:none;stroke:#C6C6C5;stroke-width:2;stroke-miterlimit:10;}
	.st30{filter:url(#Adobe_OpacityMaskFilter_2_);}
	.st31{fill-rule:evenodd;clip-rule:evenodd;fill:#065F85;}
</style>
<path class="st2" d="M86.3,91.8H19.3c-8.2,0-14.8-6.6-14.8-14.8V18.4c0-8.2,6.6-14.8,14.8-14.8h67.1c8.2,0,14.8,6.6,14.8,14.8V77
	C101.1,85.2,94.5,91.8,86.3,91.8z"/>
<g>
	<g>
		<path class="st0" d="M60.6,73.6c-0.1,0.2-0.2,0.4-0.4,0.5c-0.4,0.6-0.8,1.1-1.2,1.6c-0.2,0-0.4,0-0.6,0.1c-0.4,0-0.7,0.1-1.1,0.1
			c0.2-0.4,0.4-0.7,0.6-1.1c0.2-0.5,0.5-1.1,0.7-1.6c0-0.1,0.1-0.2,0.1-0.3c0.7-0.1,1.3-0.2,2-0.2c0.1-0.7,0.1-1.4,0.2-2.3
			c-0.5,0.1-0.9,0.1-1.4,0.2c0-0.1,0.1-0.3,0.1-0.4c-0.6,0-1.3,0-1.9-0.1c0,0.2-0.1,0.4-0.2,0.6c-0.5,0-1.1,0.1-1.7,0.1
			c-0.4,0-0.8,0-1.2,0.1c0.1-0.3,0.1-0.7,0.2-1c-0.6-0.1-1.2-0.1-1.8-0.2c0,0.4-0.1,0.7-0.1,1.1c0,0.1,0,0.2,0,0.2c0,0,0,0,0,0
			c-0.3,0-0.6,0-1,0c-0.3,0-0.6,0-0.9,0c0,0-0.1,0-0.1,0c-0.1-0.6-0.1-1.1-0.2-1.7c-0.6-0.1-1.3-0.3-1.9-0.4
			c0.1,0.7,0.3,1.4,0.4,2.1c-0.2,0-0.4,0-0.6,0c-0.6,0-1.3-0.1-1.9-0.1c-0.1,0-0.2,0-0.3,0c-0.2-0.8-0.4-1.7-0.6-2.6
			c0-0.1,0-0.1,0-0.2c-0.7-0.2-1.5-0.5-2.2-0.7c0.1,0.2,0.1,0.5,0.2,0.7c0.2,0.9,0.4,1.8,0.7,2.6c-0.2,0-0.5-0.1-0.7-0.1
			c-0.7-0.1-1.4-0.2-2.1-0.3c-0.1,0-0.2,0-0.2,0c-0.4-0.8-0.7-1.7-1.1-2.7c-0.2-0.6-0.4-1.2-0.6-1.9c-0.9-0.4-1.8-0.8-2.6-1.3
			c0,0.1,0.1,0.2,0.1,0.3c0.2,0.8,0.5,1.6,0.8,2.4c0.3,0.9,0.7,1.8,1.1,2.7c-0.3-0.1-0.6-0.1-0.9-0.2c-0.6-0.1-1.1-0.2-1.6-0.4
			c-0.9-1.6-1.7-3.3-2.4-5.2c-0.1-0.2-0.2-0.5-0.3-0.7c0.1,0,0.2,0.1,0.4,0.1c0.8,0.3,1.6,0.5,2.4,0.7c0.1,0,0.1,0,0.2,0
			c-2.2-1.2-4.4-2.7-6.4-4.3c-0.1,0-0.1-0.1-0.2-0.1c-0.6-0.3-1.2-0.5-1.7-0.8c-0.2-0.1-0.5-0.2-0.7-0.4c-0.1-0.5-0.2-0.9-0.4-1.4
			c-1-1.1-2-2.2-2.9-3.4c0.1,0.6,0.1,1.2,0.2,1.7c0.1,0.4,0.1,0.8,0.2,1.2c-0.1,0-0.1-0.1-0.2-0.1c-0.8-0.7-1.4-1.3-1.9-1.9
			c-0.2-1.3-0.4-2.6-0.4-3.9c-0.8-1.5-1.6-3-2.2-4.6c-0.1,1.2-0.2,2.4-0.2,3.6c0,1.8,0.1,3.5,0.4,5.2c0.1,0.7,0.3,1.4,0.4,2.1
			c0.2,0.9,0.4,1.7,0.7,2.5c1,3.1,2.5,5.9,4.2,8.3c0.1,0.1,0.2,0.2,0.3,0.4c3.4,4.6,7.8,7.8,11.7,9.6c2,0.9,3.9,1.5,5.6,1.9
			c1.4,0.4,2.9,0.7,4.5,0.9c0.3,0,0.7,0.1,1,0.1c0.5,0,1,0.1,1.5,0.1c0.4,0,0.9,0,1.3,0c0.1,0,0.2,0,0.4,0c0.3,0,0.7,0,1,0
			c0.1,0,0.2,0,0.2,0c5-0.2,9.7-1.5,13.8-3.8c2.1-1.1,4.2-2.6,6.3-4.4c1.4-1.2,2.7-2.6,3.9-4.2c-5.5,3.8-11.1,7-17.1,9.7
			C60.4,76.3,60.5,75,60.6,73.6z M27.5,65.5c-0.2-0.1-0.4-0.2-0.5-0.4c-1.5-2.5-2.7-5.3-3.5-8.2c0.5,0.6,1.1,1.1,1.8,1.7
			c0.1,0.1,0.2,0.2,0.3,0.3c0.2,0.7,0.4,1.4,0.6,2c0.3,0.8,0.6,1.6,0.9,2.4c0.4,1,0.9,1.9,1.3,2.8C28.1,65.9,27.8,65.7,27.5,65.5z
			 M31,70.2c-0.6-0.7-1.3-1.4-1.9-2.1c0.3,0.2,0.6,0.3,0.9,0.5c0.4,0.6,0.8,1.1,1.2,1.7c0.2,0.3,0.5,0.6,0.7,0.9
			C31.6,70.9,31.3,70.6,31,70.2z M32.9,68c-0.3-0.1-0.6-0.2-0.9-0.3c-1.3-2-2.5-4.3-3.4-6.8c0.7,0.4,1.4,0.7,2.2,1.1
			c0.1,0.1,0.3,0.1,0.4,0.2c0.1,0.3,0.2,0.7,0.3,1c0.3,0.8,0.6,1.6,0.9,2.4c0.4,1,0.9,1.9,1.4,2.8C33.5,68.2,33.2,68.1,32.9,68z
			 M37.5,74.1C37.5,74,37.5,74,37.5,74.1c-1-0.8-2-1.8-2.9-2.8c-0.1-0.1-0.3-0.3-0.4-0.4c-0.1-0.2-0.3-0.3-0.4-0.5
			c0.1,0,0.1,0,0.2,0.1c0.4,0.1,0.8,0.3,1.3,0.4c0.2,0.3,0.3,0.5,0.5,0.7c0.7,0.9,1.4,1.8,2.1,2.6c0,0,0,0,0,0.1
			C37.8,74.1,37.7,74.1,37.5,74.1z M41.4,75.1c-0.2-0.1-0.3-0.3-0.5-0.4c-0.9-0.9-1.8-1.9-2.6-3c0.3,0.1,0.6,0.1,0.9,0.2
			c0.4,0.1,0.8,0.2,1.2,0.3c0,0.1,0.1,0.2,0.2,0.3c0.5,0.9,1.1,1.7,1.6,2.5c0.1,0.1,0.2,0.2,0.2,0.3c0.1,0.1,0.1,0.1,0.2,0.2
			C42.1,75.3,41.7,75.2,41.4,75.1z M45.1,75.7c-0.1,0-0.2,0-0.3,0c-0.4-0.5-0.8-1-1.2-1.5c-0.4-0.5-0.7-1.1-1-1.7
			c0.5,0.1,1.1,0.1,1.6,0.2c0.2,0,0.4,0.1,0.6,0.1c0.1,0,0.3,0,0.4,0.1c0,0.1,0.1,0.2,0.1,0.3c0.3,0.7,0.6,1.4,0.9,2
			c0.1,0.2,0.2,0.5,0.3,0.7C46.1,75.9,45.6,75.8,45.1,75.7z M47.7,78.3c0.2,0,0.4,0,0.5,0.1c0.2,0.2,0.4,0.4,0.6,0.6
			C48.4,78.8,48.1,78.6,47.7,78.3z M48.2,76c-0.4-0.9-0.8-1.9-1.2-3c0.9,0.1,1.8,0.1,2.7,0.1c0.2,0.8,0.3,1.5,0.5,2.2
			c0.1,0.2,0.1,0.5,0.2,0.7c0,0,0,0.1,0,0.1c0,0,0,0,0,0c-0.4,0-0.8,0-1.2-0.1C48.9,76.1,48.6,76.1,48.2,76z M50.3,79.2
			c-0.1-0.1-0.3-0.2-0.4-0.4c-0.1-0.1-0.2-0.2-0.3-0.3c0.5,0,1,0,1.5,0.1c0.1,0.3,0.2,0.5,0.3,0.7C51,79.2,50.7,79.2,50.3,79.2z
			 M51.9,78.5L51.9,78.5L51.9,78.5L51.9,78.5z M52.2,76.2c-0.1,0-0.3,0-0.4,0c0,0-0.1,0-0.1,0h-0.1c-0.1-0.9-0.2-1.9-0.4-3
			c0.2,0,0.5,0,0.7,0c0.2,0,0.5,0,0.7,0c-0.1,0.7-0.2,1.4-0.3,2.1C52.3,75.6,52.3,75.9,52.2,76.2z M54,78.8
			c-0.1,0.2-0.3,0.3-0.4,0.4c-0.4,0-0.7,0-1.1,0c0.1-0.2,0.2-0.4,0.2-0.7c0.5,0,1,0,1.5-0.1C54.1,78.6,54.1,78.7,54,78.8z M55.1,79
			c0.2-0.2,0.4-0.4,0.6-0.6c0.2,0,0.4,0,0.5-0.1C55.8,78.6,55.5,78.8,55.1,79z M55.7,76.1c-0.4,0-0.9,0-1.3,0.1c-0.3,0-0.6,0-0.9,0
			c0.1-0.3,0.2-0.6,0.3-1c0.2-0.6,0.3-1.3,0.5-2c0.9,0,1.8-0.1,2.7-0.1C56.5,74.2,56.1,75.2,55.7,76.1z"/>
	</g>
	<g>
		<path class="st0" d="M83.5,52.8c0.1-1,0.2-2.1,0.2-3.1c0-6.9-2.3-13.4-5.8-18.2c-2.2-3.1-4.9-5.6-7.6-7.4
			c-5.1-3.6-11.3-5.7-18-5.7c-3.4,0-6.7,0.5-9.7,1.5c-1.4,0.4-2.9,0.9-4.5,1.7c-1.3,0.6-2.6,1.3-3.9,2.2c-0.3,0.1-0.6,0.3-1,0.6
			c-0.2,0.1-0.4,0.3-0.5,0.5c-1.5,1.1-2.9,2.4-4.3,3.9c-0.8,0.9-1.5,1.8-2.2,2.7c-0.8,1.1-1.6,2.3-2.2,3.6c-0.1-0.3-0.2-0.6-0.3-0.8
			c-1.1-2.7-1.9-5.8-2.4-9.1c-0.5,3.2-0.7,6.1-0.6,8.9c1.2,23.5,24.7,34.1,42.4,34c-0.3,3.2-0.4,4.8-0.6,8
			c10.5-4.8,20.2-11.1,29.3-19.4c0.8-0.7,1.5-1.4,2.3-2.1C90.3,54.1,86.9,53.6,83.5,52.8z M80.1,41.1c0.6,1.9,0.9,3.9,1.1,6
			c0,0.3,0.1,0.7,0.1,1c-0.4,0.6-1,1.2-1.8,1.8c0-0.1,0-0.2,0-0.2c0-2.4-0.2-4.8-0.7-7.1c0.4-0.4,0.7-0.7,1-1.1
			C79.9,41.3,80,41.2,80.1,41.1z M76.9,33.9c1.1,1.8,2.1,3.9,2.8,6c0,0.1-0.1,0.1-0.1,0.2c0,0.1-0.1,0.1-0.2,0.2
			c-0.2,0.3-0.5,0.6-0.9,0.9c-0.6-2.3-1.3-4.5-2.3-6.5c0.1-0.1,0.1-0.1,0.2-0.2C76.6,34.3,76.7,34.1,76.9,33.9z M72.7,37
			c0.6-0.3,1.2-0.6,1.7-0.9c0,0.1,0.1,0.2,0.1,0.3c0.8,1.9,1.5,4,2,6.2c-0.1,0-0.2,0.1-0.2,0.1c-0.6,0.3-1.3,0.6-2,0.9
			C73.9,41.3,73.3,39.1,72.7,37z M71.4,27.4c1.7,1.5,3.3,3.3,4.7,5.3c0.1,0.1,0.2,0.2,0.3,0.4c-0.1,0.2-0.3,0.4-0.6,0.6
			c0,0,0,0-0.1,0.1c-0.1-0.2-0.2-0.4-0.3-0.6c-0.1-0.2-0.3-0.5-0.4-0.7C73.9,30.5,72.7,28.9,71.4,27.4L71.4,27.4z M70,28.8
			c1.2,1.5,2.4,3.3,3.4,5.1c0.2,0.3,0.3,0.6,0.5,0.9c-0.2,0.1-0.4,0.2-0.6,0.3c-0.3,0.1-0.7,0.3-1,0.4c-0.8-2.2-1.8-4.2-2.8-6
			c0,0,0,0,0,0c0-0.1-0.1-0.1-0.1-0.2C69.4,29.2,69.7,29,70,28.8z M67,36c-0.5-1.8-1-3.5-1.7-5.1c0.7-0.2,1.3-0.4,2-0.7
			c0.2,0.3,0.3,0.6,0.5,0.8c0.9,1.6,1.6,3.4,2.3,5.3c-0.2,0.1-0.3,0.1-0.5,0.2c-0.7,0.2-1.4,0.4-2.1,0.6c0,0-0.1,0-0.1,0
			C67.2,36.7,67.1,36.3,67,36z M67.9,40.3c-0.1-0.4-0.2-0.9-0.2-1.3c1-0.3,2-0.6,2.9-1c0.1,0.3,0.2,0.7,0.3,1c0.5,1.7,0.8,3.5,1,5.4
			c0,0-0.1,0-0.1,0c-0.7,0.2-1.5,0.4-2.2,0.7c-0.3,0.1-0.7,0.2-1,0.3C68.4,43.6,68.2,41.9,67.9,40.3z M65.5,24.5
			c1.2,0.9,2.3,1.9,3.4,3.2c-0.2,0.1-0.4,0.2-0.7,0.3c-0.9-1.4-2-2.6-3-3.6c-0.1-0.1-0.1-0.1-0.2-0.2C65.2,24.2,65.4,24.3,65.5,24.5
			z M60.8,22.7c0.5,0.4,1,0.8,1.6,1.3c1.4,1.2,2.7,2.8,3.9,4.6c-0.2,0-0.3,0.1-0.5,0.1c-0.2,0-0.4,0.1-0.6,0.1
			C65,28.9,64.8,29,64.5,29c-0.4-0.9-0.9-1.8-1.4-2.6c0,0,0-0.1-0.1-0.1c-0.5-0.8-1-1.6-1.6-2.3c-0.3-0.4-0.7-0.9-1-1.3
			C60.6,22.8,60.7,22.8,60.8,22.7z M60.6,33.6c-0.1-0.6-0.2-1.1-0.4-1.7c1.1-0.2,2.1-0.3,3.1-0.6c0.2,0.5,0.3,0.9,0.5,1.4
			c0.5,1.5,0.9,3.1,1.3,4.7c-0.1,0-0.2,0-0.4,0.1c-0.7,0.1-1.4,0.3-2.2,0.4c-0.4,0.1-0.8,0.1-1.3,0.2C61.2,36.5,60.9,35,60.6,33.6z
			 M58.8,23.2c0.5,0.5,0.9,1.1,1.4,1.8c0.5,0.7,1,1.5,1.4,2.4c0.3,0.6,0.7,1.3,1,2c-0.3,0.1-0.6,0.1-1,0.1c-0.6,0.1-1.2,0.2-1.9,0.2
			c-0.4-1.3-0.8-2.6-1.2-3.7c-0.4-0.9-0.7-1.8-1.1-2.6C57.9,23.4,58.3,23.3,58.8,23.2z M55.3,32.4c1-0.1,2-0.1,2.9-0.2
			c0.1,0.6,0.2,1.2,0.3,1.8c0.2,1.4,0.4,2.9,0.6,4.4c-0.1,0-0.1,0-0.2,0c-0.7,0.1-1.4,0.1-2.2,0.2c-0.2,0-0.5,0-0.7,0.1
			c-0.1-1.5-0.3-2.9-0.5-4.3C55.5,33.7,55.4,33,55.3,32.4z M56.3,40.9c1-0.1,2.1-0.2,3-0.3c0.2,2,0.3,4.1,0.3,6.2
			C59,46.9,58.2,47,57.5,47c-0.3,0-0.6,0-0.9,0.1c0-1.5-0.1-2.9-0.2-4.2C56.4,42.2,56.4,41.6,56.3,40.9z M57,26.6
			c0.3,1,0.6,2.2,0.9,3.4c-0.3,0-0.5,0-0.8,0c-0.6,0-1.2,0.1-1.8,0.1c-0.1,0-0.2,0-0.3,0c-0.1-0.8-0.3-1.6-0.4-2.4
			c-0.3-1.5-0.6-2.8-0.9-4c0.8,0,1.5-0.1,2.3-0.1c0.2,0.5,0.5,1.1,0.7,1.7C56.7,25.8,56.8,26.2,57,26.6z M52.1,41.1c0.7,0,1.3,0,2,0
			c0.1,2,0.2,4,0.2,6.1c-0.7,0-1.4,0-2.2,0c0,0-0.1,0-0.1,0c-0.8,0-1.6,0-2.4,0c0-1.3,0.1-2.7,0.1-3.9c0-0.7,0.1-1.5,0.1-2.2
			C50.6,41.1,51.3,41.1,52.1,41.1z M50,38.7c0.1-1.4,0.2-2.8,0.3-4.1c0.1-0.7,0.1-1.4,0.2-2.1c0.4,0,0.8,0,1.1,0c0.6,0,1.2,0,1.7,0
			c0.1,0.7,0.1,1.3,0.2,2c0.1,1.3,0.2,2.8,0.3,4.2c0,0-0.1,0-0.1,0c-0.6,0-1.1,0-1.7,0c-0.1,0-0.3,0-0.4,0
			C51.1,38.7,50.5,38.7,50,38.7z M56.4,21C56.4,21,56.4,21,56.4,21c-0.2,0-0.4,0-0.6,0c0-0.1-0.1-0.1-0.1-0.2
			c-0.2-0.2-0.4-0.5-0.6-0.7C55.5,20.4,56,20.7,56.4,21z M53.5,20c0.2,0.1,0.3,0.3,0.5,0.5c0.1,0.1,0.1,0.1,0.2,0.2
			c0.1,0.1,0.2,0.3,0.4,0.5c-0.5,0-1.1,0-1.6,0c-0.1-0.2-0.2-0.5-0.2-0.7c-0.1-0.2-0.1-0.4-0.2-0.6C52.8,19.9,53.2,20,53.5,20z
			 M51.9,20.7c0,0.2,0,0.3,0.1,0.5h0c0,0-0.1,0-0.1,0C51.9,21,51.9,20.8,51.9,20.7z M52,23.8c0.1,0,0.2,0,0.4,0
			c0.1,0.6,0.2,1.3,0.3,2c0.2,1.3,0.3,2.7,0.5,4.3c-0.2,0-0.5,0-0.7,0c-0.3,0-0.5,0-0.8,0c-0.3,0-0.6,0-0.9,0c0,0,0,0,0,0
			c0,0,0,0,0,0c0.3-2.5,0.6-4.6,0.8-6.3C51.7,23.8,51.8,23.8,52,23.8z M49.9,20.4C49.9,20.4,49.9,20.4,49.9,20.4
			c0.2-0.2,0.3-0.3,0.4-0.4c0.4,0,0.7,0,1.1-0.1c-0.1,0.1-0.1,0.3-0.2,0.5c-0.1,0.2-0.2,0.5-0.3,0.8c-0.5,0-1.1,0-1.6,0
			C49.6,20.9,49.7,20.6,49.9,20.4z M48.4,20.5c0.1-0.1,0.3-0.2,0.4-0.2c-0.1,0.1-0.1,0.1-0.2,0.2c-0.2,0.2-0.4,0.4-0.5,0.6
			c-0.2,0-0.4,0-0.5,0C47.8,20.8,48.1,20.6,48.4,20.5z M47.2,25.8c0.3-0.8,0.5-1.5,0.8-2.2c0.7,0.1,1.5,0.1,2.3,0.1
			c-0.2,0.7-0.3,1.4-0.5,2.2c-0.3,1.3-0.6,2.7-0.8,4.2c0,0,0,0,0,0c-0.6,0-1.1,0-1.7-0.1c-0.4,0-0.8,0-1.2-0.1
			c0.3-1.2,0.6-2.3,0.9-3.4C47,26.3,47.1,26.1,47.2,25.8z M45.2,40.7c0.8,0.1,1.6,0.2,2.4,0.2c-0.2,2-0.3,4-0.3,6.1
			c-0.7,0-1.4-0.1-2-0.1c-0.3,0-0.7,0-1-0.1c0-1.3,0.1-2.6,0.2-3.9c0-0.8,0.1-1.6,0.2-2.3c0,0,0,0,0,0C44.7,40.6,45,40.6,45.2,40.7z
			 M44.7,38.3c0.1-1.4,0.3-2.7,0.5-3.9c0.1-0.8,0.2-1.5,0.4-2.3c1,0.1,1.9,0.2,2.9,0.2c-0.3,1.9-0.6,4-0.8,6.2
			c-0.6,0-1.2-0.1-1.9-0.2C45.5,38.4,45.1,38.4,44.7,38.3z M43.7,25.1c0.5-0.7,0.9-1.3,1.4-1.8c0.5,0.1,0.9,0.2,1.4,0.2
			c-0.4,0.8-0.8,1.7-1.1,2.6c-0.4,1.1-0.8,2.4-1.2,3.7c-0.5,0-1-0.1-1.4-0.2c-0.5-0.1-1-0.1-1.4-0.2c0.6-1.5,1.4-2.8,2.1-4
			C43.5,25.3,43.6,25.2,43.7,25.1z M35.3,45.5c-0.6-0.1-1.3-0.3-1.9-0.5c-0.5-0.1-1-0.3-1.5-0.4c0.2-1.4,0.4-2.7,0.7-4
			c0.1-0.6,0.3-1.2,0.4-1.8c0.1-0.3,0.1-0.6,0.2-0.8c0.4,0.2,0.9,0.3,1.4,0.5c0.5,0.2,1,0.3,1.5,0.5C35.8,41,35.5,43.2,35.3,45.5z
			 M35.2,36.6c-0.5-0.1-0.9-0.3-1.3-0.4c0.4-1.3,0.9-2.5,1.5-3.6c0.3-0.6,0.6-1.2,0.9-1.7c0.1-0.2,0.2-0.5,0.4-0.7
			c0.3,0.1,0.6,0.2,1,0.4c0.3,0.1,0.7,0.2,1,0.3c-0.8,1.9-1.4,3.9-1.9,6.1C36.1,36.8,35.6,36.7,35.2,36.6z M38,42
			c0.1-0.7,0.2-1.4,0.3-2.1c0-0.1,0-0.3,0.1-0.4c0.7,0.2,1.4,0.3,2.1,0.5c0.6,0.1,1.2,0.2,1.8,0.3c-0.2,2-0.4,4.1-0.4,6.3
			c-0.7-0.1-1.3-0.2-2-0.3c-0.8-0.1-1.5-0.2-2.2-0.4C37.7,44.6,37.9,43.3,38,42z M42.5,38.1c-0.6-0.1-1.2-0.2-1.8-0.3
			c-0.7-0.1-1.4-0.2-2-0.4c0.3-1.3,0.6-2.5,1-3.7c0.2-0.7,0.4-1.4,0.7-2.1c0-0.1,0.1-0.2,0.1-0.3c0.5,0.1,1,0.2,1.6,0.3
			c0.5,0.1,1,0.2,1.5,0.2C43.2,33.8,42.8,35.9,42.5,38.1z M41.5,24c0.5-0.5,1.1-0.9,1.6-1.3c0.1,0,0.2,0.1,0.3,0.1
			c-0.4,0.4-0.7,0.8-1.1,1.3c-1.1,1.4-2.1,3.1-3,4.9c-0.3-0.1-0.6-0.1-0.9-0.2c-0.3-0.1-0.6-0.2-0.9-0.2c0.6-0.9,1.3-1.8,1.9-2.6
			C40.2,25.3,40.8,24.6,41.5,24z M38.9,24.1c-1.1,1.1-2.2,2.4-3.2,3.8c-0.1,0-0.2-0.1-0.3-0.1c0,0,0,0,0,0c-0.1,0-0.2-0.1-0.3-0.1
			c0,0,0,0,0,0C36.2,26.2,37.5,25,38.9,24.1z M33.1,29.9c0.3-0.3,0.5-0.7,0.8-1c0.1,0.1,0.2,0.1,0.3,0.2c0.1,0.1,0.2,0.1,0.3,0.2
			c0.1,0,0.1,0.1,0.2,0.1c-1.1,1.8-2.1,3.9-2.9,6.1c-0.4-0.1-0.7-0.3-1.1-0.4c-0.2-0.1-0.4-0.2-0.6-0.3c0.6-1.3,1.3-2.5,2.1-3.6
			C32.5,30.8,32.8,30.3,33.1,29.9z M28.9,31.4c1-1.3,2.1-2.5,3.3-3.6c-1.2,1.4-2.3,2.9-3.3,4.6c-0.3,0.4-0.5,0.9-0.7,1.3
			c-0.2-0.2-0.4-0.3-0.6-0.5l0,0l0,0C28,32.5,28.4,31.9,28.9,31.4z M25.1,37.8C25.1,37.7,25.1,37.7,25.1,37.8c0.1-0.4,0.2-0.7,0.4-1
			c0.2-0.3,0.3-0.7,0.5-1c0.3-0.6,0.7-1.2,1-1.8c0,0,0,0,0,0c0.2,0.2,0.4,0.5,0.6,0.7c-0.7,1.4-1.2,2.9-1.7,4.5
			C25.7,38.7,25.4,38.3,25.1,37.8z M28.2,42.4c-0.2-0.2-0.4-0.5-0.6-0.7c0.2-1,0.5-2,0.8-2.9c0.2-0.5,0.3-1,0.5-1.4
			c0.2-0.4,0.3-0.9,0.5-1.3c0.2,0.1,0.4,0.2,0.6,0.3c0.4,0.2,0.7,0.4,1.1,0.6c-0.7,2.1-1.2,4.4-1.5,6.7c-0.2-0.1-0.4-0.2-0.6-0.3
			C28.8,43.1,28.5,42.8,28.2,42.4z M33.2,47.3c-0.3-0.2-0.6-0.5-0.9-0.7c0.3,0.1,0.6,0.2,0.9,0.3c0.6,0.2,1.3,0.4,2,0.6
			c0,0.4,0,0.8,0,1.2C34.5,48.3,33.9,47.8,33.2,47.3z M39.7,51.2c-0.3-0.1-0.6-0.3-0.9-0.4c-0.4-0.2-0.8-0.4-1.2-0.6
			c0-0.2,0-0.4,0-0.5c0-0.4,0-0.8,0-1.2c0-0.1,0-0.2,0-0.3c0.7,0.2,1.5,0.3,2.2,0.4c0.7,0.1,1.4,0.2,2.1,0.3c0,0.3,0,0.5,0,0.8
			c0,0.9,0,1.7,0,2.5C41.1,51.9,40.4,51.6,39.7,51.2z M45.1,53.2c-0.3-0.1-0.6-0.2-0.9-0.3c0-0.5,0-1,0-1.5c0-0.6,0-1.2,0-1.8
			c0-0.2,0-0.3,0-0.5c1,0.1,2,0.2,3,0.3c0,0.1,0,0.2,0,0.2c0,1.4,0,2.8,0.1,4.2C46.6,53.6,45.9,53.4,45.1,53.2z M52.2,54.6
			c-0.8-0.1-1.7-0.2-2.5-0.3c0-0.9,0-1.7-0.1-2.6c0-0.7,0-1.3,0-2c0,0,0-0.1,0-0.1c0.8,0,1.6,0,2.4,0.1c0.8,0,1.6,0,2.3,0
			c0,0,0,0.1,0,0.1c0,1.8,0,3.5-0.1,5.2C53.5,54.7,52.9,54.7,52.2,54.6z M57.6,54.9c-0.3,0-0.7,0-1,0c0.1-1.2,0.1-2.3,0.1-3.5
			c0-0.6,0-1.1,0-1.7c0-0.1,0-0.1,0-0.2c1-0.1,2.1-0.2,3-0.3c0,0.2,0,0.3,0,0.5c0,1.8-0.1,3.5-0.1,5.2
			C58.9,54.9,58.2,54.9,57.6,54.9z M64.8,48.5c-0.2,1.9-0.4,3.5-0.6,6c-0.6,0.1-1.3,0.1-1.9,0.2c-0.1,0-0.2,0-0.3,0
			c0.1-1.3,0.1-2.7,0.1-4.1c0-0.3,0-0.7,0-1c0-0.3,0-0.5,0-0.8c0.3,0,0.6-0.1,0.8-0.1c0-0.4,0.1-0.8,0.1-1.2c0.5,0.3,1,0.6,1.5,0.9
			c0.1,0,0.2,0,0.2-0.1C64.8,48.4,64.8,48.5,64.8,48.5z M65.2,45.4c0,0.2-0.1,0.5-0.1,0.7c-0.4,0.1-0.7,0.1-1.1,0.2
			c-0.6,0.1-1.3,0.2-2,0.3c0-1.6-0.1-3.1-0.3-4.6c0-0.6-0.1-1.1-0.1-1.7c1.4-0.2,2.7-0.5,3.9-0.8c0.1,0.5,0.2,1,0.2,1.5
			c0.2,1.2,0.3,2.5,0.4,3.8c0,0.4,0.1,0.7,0.1,1.1c-0.1,0-0.1,0-0.2,0C65.8,45.8,65.5,45.6,65.2,45.4z M68.8,47.4
			c1.2-0.3,2.3-0.7,3.3-1.1c0.1,0.9,0.1,1.8,0.1,2.7C71.1,48.5,69.9,48,68.8,47.4z M75,50.1c-0.1-0.1-0.3-0.1-0.4-0.2
			c0-0.1,0-0.2,0-0.3c0-1.1,0-2.2-0.1-3.3c0-0.3,0-0.6-0.1-0.9c0.1-0.1,0.2-0.1,0.4-0.2c0.7-0.3,1.4-0.7,2-1.1c0,0.2,0,0.3,0.1,0.5
			c0.1,0.8,0.2,1.7,0.3,2.5c0.1,0.8,0.1,1.7,0.1,2.5c0,0.4,0,0.9,0,1.3C76.4,50.7,75.7,50.4,75,50.1z M79.5,51.7
			C79.5,51.6,79.5,51.6,79.5,51.7c0.8-0.7,1.4-1.3,1.9-1.9c0,0.8,0,1.6-0.1,2.4C80.6,52,80,51.8,79.5,51.7z"/>
	</g>
</g>
</svg>
