<?xml version="1.0" encoding="utf-8"?>
<!-- Generator: Adobe Illustrator 23.0.0, SVG Export Plug-In . SVG Version: 6.00 Build 0)  -->
<svg version="1.1" id="Capa_1" xmlns="http://www.w3.org/2000/svg" xmlns:xlink="http://www.w3.org/1999/xlink" x="0px" y="0px"
	 viewBox="0 0 104.1 95.4" style="enable-background:new 0 0 104.1 95.4;" xml:space="preserve">
<style type="text/css">
	.st0{fill:#065F85;}
	.st1{fill:#4C4D4F;}
	.st2{fill:none;stroke:#065F85;stroke-width:2;stroke-miterlimit:10;}
	.st3{fill:none;}
	.st4{fill:#FFFFFF;}
	.st5{fill:#145F85;}
	.st6{fill:none;stroke:#FFFFFF;stroke-width:3;stroke-miterlimit:10;}
	.st7{fill:#00A0DF;}
	.st8{fill:url(#SVGID_1_);}
	.st9{fill:url(#SVGID_2_);}
	.st10{fill:url(#SVGID_3_);}
	.st11{fill:#B5D173;}
	.st12{fill:#073651;}
	.st13{fill:#979593;}
	.st14{fill:url(#SVGID_4_);}
	.st15{fill:none;stroke:#073651;stroke-width:5;stroke-miterlimit:10;}
	.st16{fill:#F9F9F9;stroke:#065F85;stroke-width:3;stroke-miterlimit:10;}
	.st17{filter:url(#Adobe_OpacityMaskFilter);}
	.st18{mask:url(#SVGID_5_);}
	.st19{opacity:0.26;fill:#C6C6C5;}
	.st20{fill:#C6C6C5;}
	.st21{fill:#169BD7;}
	.st22{filter:url(#Adobe_OpacityMaskFilter_1_);}
	.st23{fill:none;stroke:#F5F5F5;stroke-width:0.25;stroke-miterlimit:10;}
	.st24{clip-path:url(#SVGID_7_);}
	.st25{clip-path:url(#SVGID_9_);fill-rule:evenodd;clip-rule:evenodd;fill:#13110C;}
	.st26{clip-path:url(#SVGID_9_);fill:#00A0DD;}
	.st27{clip-path:url(#SVGID_9_);fill:#FFFFFF;}
	.st28{clip-path:url(#SVGID_9_);fill:#13110C;}
	.st29{fill:none;stroke:#C6C6C5;stroke-width:2;stroke-miterlimit:10;}
	.st30{filter:url(#Adobe_OpacityMaskFilter_2_);}
	.st31{fill-rule:evenodd;clip-rule:evenodd;fill:#065F85;}
</style>
<path class="st2" d="M86.3,91.8H19.3c-8.2,0-14.8-6.6-14.8-14.8V18.4c0-8.2,6.6-14.8,14.8-14.8h67.1c8.2,0,14.8,6.6,14.8,14.8V77
	C101.1,85.2,94.5,91.8,86.3,91.8z"/>
<g>
	<path class="st0" d="M83.5,34.3c0.7-0.2,1.9-0.5,2.4-0.7c0.7-0.2,0.8-0.5,0.6-1.1c-2.9-9.1-7.9-16-16.7-18.9
		c-0.7-0.2-1.1-0.1-1.3,0.7c-0.2,0.5-0.3,1.1-0.2,1.8c0,0.8,0.2,1.1,0.5,1.4c6.6,6.1,9.3,10.3,10.1,20.2c0.5,6.3,2.8,18,4.5,23.1
		c1.2,3.5-1.6,7.5-5.4,7.5c-3.2,0-5.7-2.6-5.7-5.7V46.1c0-4.5-3.7-7.8-7.7-7.8c-0.1,0-0.5,0-0.9,0V17.5c0-2.1-1.7-3.8-3.8-3.8H33.7
		c-2.1,0-3.8,1.7-3.8,3.8c0,3.2,0,56.5,0,56.6c0,0.6-0.5,1.1-1.1,1.1c0,0-0.3,0-1.2,0c-0.6,0-1.1,0.5-1.1,1.1v2.5
		c0,0.6,0.5,1.1,1.1,1.1h38.3c0.6,0,1.1-0.5,1.1-1.1v-2.5c0-0.6-0.5-1.1-1.1-1.1c-0.9,0-1.2,0-1.2,0c-0.6,0-1.1-0.5-1.1-1.1V42.7
		c0.3,0,0.6,0,0.6,0c2.6,0,3.6,2,3.6,3.4c0,4.3,0,12,0,16.5c0,5.6,4.5,10.1,10.1,10.1c6.4,0,11.8-6.2,9.6-13.1
		c-2.1-6.7-4.4-18-4.6-24.6C82.9,34.7,83.1,34.4,83.5,34.3z M59.3,36.4c0,0.6-0.5,1.1-1.1,1.1H35.7c-0.6,0-1.1-0.5-1.1-1.1V19.3
		c0-0.6,0.5-1.1,1.1-1.1h22.5c0.6,0,1.1,0.5,1.1,1.1V36.4z"/>
</g>
</svg>
