<?xml version="1.0" encoding="utf-8"?>
<!-- Generator: Adobe Illustrator 23.0.0, SVG Export Plug-In . SVG Version: 6.00 Build 0)  -->
<svg version="1.1" id="Capa_1" xmlns="http://www.w3.org/2000/svg" xmlns:xlink="http://www.w3.org/1999/xlink" x="0px" y="0px"
	 viewBox="0 0 342.7 100.9" style="enable-background:new 0 0 342.7 100.9;" xml:space="preserve">
<style type="text/css">
	.st0{fill:#065F85;}
	.st1{fill:#4C4D4F;}
	.st2{fill:none;stroke:#065F85;stroke-width:2;stroke-miterlimit:10;}
	.st3{fill:none;}
	.st4{fill:#FFFFFF;}
	.st5{fill:#145F85;}
	.st6{fill:#00A0DF;}
	.st7{fill:none;stroke:#FFFFFF;stroke-width:3;stroke-miterlimit:10;}
	.st8{font-family:'VerdanaPro-CondRegular';}
	.st9{font-size:25px;}
	.st10{fill:url(#SVGID_1_);}
	.st11{fill:url(#SVGID_2_);}
	.st12{fill:url(#SVGID_3_);}
	.st13{fill:#B5D173;}
	.st14{fill:#073651;}
	.st15{fill:#979593;}
	.st16{fill:#004876;}
	.st17{font-family:'Verdana-Bold';}
	.st18{font-size:8.5195px;}
	.st19{font-size:4.2597px;}
	.st20{fill:url(#SVGID_4_);}
	.st21{fill:none;stroke:#073651;stroke-width:5;stroke-miterlimit:10;}
	.st22{fill:#F9F9F9;stroke:#065F85;stroke-width:3;stroke-miterlimit:10;}
	.st23{fill:url(#SVGID_5_);}
	.st24{fill:url(#SVGID_6_);}
	.st25{fill:url(#SVGID_7_);}
	.st26{fill:url(#SVGID_8_);}
	.st27{filter:url(#Adobe_OpacityMaskFilter);}
	.st28{mask:url(#SVGID_9_);}
	.st29{opacity:0.26;fill:#C6C6C5;}
	.st30{fill:#C6C6C5;}
	.st31{fill:#169BD7;}
	.st32{filter:url(#Adobe_OpacityMaskFilter_1_);}
	.st33{fill:none;stroke:#F5F5F5;stroke-width:0.25;stroke-miterlimit:10;}
	.st34{clip-path:url(#SVGID_11_);}
	.st35{clip-path:url(#SVGID_13_);fill-rule:evenodd;clip-rule:evenodd;fill:#13110C;}
	.st36{clip-path:url(#SVGID_13_);fill:#00A0DD;}
	.st37{clip-path:url(#SVGID_13_);fill:#FFFFFF;}
	.st38{clip-path:url(#SVGID_13_);fill:#13110C;}
	.st39{fill:none;stroke:#C6C6C5;stroke-width:2;stroke-miterlimit:10;}
	.st40{filter:url(#Adobe_OpacityMaskFilter_2_);}
	.st41{fill-rule:evenodd;clip-rule:evenodd;fill:#065F85;}
</style>
<g>
	<g>
		<path class="st7" d="M219.3,68h-75.2c-1,0-1.8-0.8-1.8-1.8V38.7c0-1,0.8-1.8,1.8-1.8h75.2c1,0,1.8,0.8,1.8,1.8v27.5
			C221.1,67.2,220.3,68,219.3,68z"/>
	</g>
	<path class="st4" d="M181,63.1h-31.8c-0.4,0-0.7-0.3-0.7-0.7v-1c0-0.4,0.3-0.7,0.7-0.7H181c0.4,0,0.7,0.3,0.7,0.7v1
		C181.7,62.8,181.4,63.1,181,63.1z"/>
	<path class="st4" d="M214.4,63.1h-25.5c-0.4,0-0.7-0.3-0.7-0.7v-1c0-0.4,0.3-0.7,0.7-0.7h25.5c0.4,0,0.7,0.3,0.7,0.7v1
		C215.1,62.8,214.8,63.1,214.4,63.1z"/>
	<circle class="st4" cx="197.3" cy="48.3" r="7.4"/>
	<path class="st4" d="M157.6,59.6h-8.3c-0.4,0-0.7-0.3-0.7-0.7v-3.2c0-0.4,0.3-0.7,0.7-0.7h8.3c0.4,0,0.7,0.3,0.7,0.7v3.2
		C158.4,59.2,158,59.6,157.6,59.6z"/>
	<path class="st4" d="M173.7,59.6h-8.3c-0.4,0-0.7-0.3-0.7-0.7v-3.2c0-0.4,0.3-0.7,0.7-0.7h8.3c0.4,0,0.7,0.3,0.7,0.7v3.2
		C174.5,59.2,174.1,59.6,173.7,59.6z"/>
	<path class="st4" d="M181,52.5h-31.7c-0.4,0-0.7-0.3-0.7-0.7v-9.1c0-0.4,0.3-0.7,0.7-0.7H181c0.4,0,0.7,0.3,0.7,0.7v9.1
		C181.7,52.1,181.4,52.5,181,52.5z"/>
</g>
<rect x="224.5" y="42.8" class="st3" width="132.1" height="33.9"/>
<text transform="matrix(1 0 0 1 224.5194 61.7844)" class="st0 st8 st9">FMD 1000</text>
<linearGradient id="SVGID_1_" gradientUnits="userSpaceOnUse" x1="45.0223" y1="52.4237" x2="202.9737" y2="52.4237">
	<stop  offset="0" style="stop-color:#00503E"/>
	<stop  offset="1" style="stop-color:#043222"/>
</linearGradient>
<path class="st10" d="M203,51.7c0-7.6-4.9-14-11.8-16.2c-1.6-4.1-5.5-7-10.1-7h-112c-4.4,0-8.2,2.6-9.9,6.3
	C51.2,36.2,45,43.2,45,51.7c0,8.2,5.9,15.1,13.6,16.7c1.3,4.6,5.5,8,10.4,8h112c5.2,0,9.6-3.7,10.6-8.7C198.3,65.3,203,59,203,51.7z
	"/>
<linearGradient id="SVGID_2_" gradientUnits="userSpaceOnUse" x1="160.9547" y1="12.0644" x2="85.9729" y2="63.1884">
	<stop  offset="0" style="stop-color:#C5A24D"/>
	<stop  offset="1" style="stop-color:#60993E"/>
</linearGradient>
<rect x="86.5" y="34.6" class="st11" width="74.9" height="5.4"/>
<linearGradient id="SVGID_3_" gradientUnits="userSpaceOnUse" x1="170.6943" y1="26.3491" x2="95.7123" y2="77.4732">
	<stop  offset="0" style="stop-color:#C5A24D"/>
	<stop  offset="1" style="stop-color:#60993E"/>
</linearGradient>
<rect x="79.4" y="46.3" class="st12" width="89.1" height="23.9"/>
<path class="st13" d="M62.1,64.3L62.1,64.3c-7,0-12.6-5.6-12.6-12.6l0,0c0-7,5.6-12.6,12.6-12.6l0,0c7,0,12.6,5.6,12.6,12.6l0,0
	C74.7,58.6,69.1,64.3,62.1,64.3z"/>
<g>
	<path class="st0" d="M201.9,82.5H27.1c-3.9,0-7-3.1-7-7V27.8c0-3.9,3.1-7,7-7h174.8c3.9,0,7,3.1,7,7v47.7
		C208.9,79.3,205.7,82.5,201.9,82.5z"/>
	<path class="st4" d="M204,83.5H24.9c-3.3,0-5.9-2.6-5.9-5.8V25.5c0-3.2,2.6-5.8,5.9-5.8H204c3.3,0,5.9,2.6,5.9,5.8v52.2
		C210,80.9,207.3,83.5,204,83.5z M24.9,21.9c-2.1,0-3.7,1.6-3.7,3.6v52.2c0,2,1.7,3.6,3.7,3.6H204c2.1,0,3.7-1.6,3.7-3.6V25.5
		c0-2-1.7-3.6-3.7-3.6H24.9z"/>
</g>
<g>
	<rect x="34" y="32.8" class="st14" width="60.5" height="26.7"/>
</g>
<g>
	<path class="st14" d="M199.2,76.5h-71.5V26.6h71.5V76.5z M129.8,74.4H197V28.8h-67.2V74.4z"/>
</g>
<g>
	<path class="st14" d="M93.3,73.4H34c-0.2,0-0.4-0.2-0.4-0.4v-4.1c0-0.2,0.2-0.4,0.4-0.4h59.3c0.2,0,0.4,0.2,0.4,0.4v4.1
		C93.7,73.3,93.5,73.4,93.3,73.4z"/>
</g>
<g>
	<path class="st14" d="M201.4,29.6h-74.9c-0.2,0-0.4-0.2-0.4-0.4v-4.1c0-0.2,0.2-0.4,0.4-0.4h74.9c0.2,0,0.4,0.2,0.4,0.4v4.1
		C201.7,29.4,201.6,29.6,201.4,29.6z"/>
</g>
<g>
	<path class="st14" d="M123.8,67.1H98.6c-0.2,0-0.3-0.1-0.3-0.3v-3.2c0-0.2,0.1-0.3,0.3-0.3h25.2c0.2,0,0.3,0.1,0.3,0.3v3.2
		C124.1,67,124,67.1,123.8,67.1z"/>
</g>
<g>
	<path class="st15" d="M192.5,65.7h-58.3c-0.5,0-0.9-0.4-0.9-0.9l0-9.8c0-0.5,0.4-0.9,0.9-0.9h58.3c0.5,0,0.9,0.4,0.9,0.9v9.8
		C193.5,65.3,193,65.7,192.5,65.7z"/>
</g>
<rect x="140.5" y="56.3" class="st3" width="47.9" height="9.4"/>
<text transform="matrix(1.0249 0 0 1 140.547 62.7469)" class="st16 st17 st18">FUL-MAR</text>
<rect x="137.6" y="67.9" class="st3" width="85.1" height="20.3"/>
<text transform="matrix(1.0249 0 0 1 137.5939 71.162)" class="st15 st17 st19">Tacógrafo FMD-1000</text>
<rect x="34" y="63.9" class="st3" width="59.3" height="8.6"/>
<text transform="matrix(1.0249 0 0 1 50.5837 67.1522)" class="st15 st17 st19">SmartCard</text>
<rect x="81.6" y="75.5" class="st3" width="59.3" height="8.6"/>
<text transform="matrix(1.0249 0 0 1 101.4689 78.7411)" class="st15 st17 st19">SD Card</text>
<g>
	<ellipse class="st14" cx="111.2" cy="65.5" rx="8" ry="7.8"/>
</g>
<g>
	<g>
		<path class="st15" d="M156.7,48.8c1.7-0.9,3.7-1.4,3.2-4c-0.2-0.7,0.3-1.1,0.7-1.5c0.9-0.4,1.7-1,2.7-0.3c0.6,0.4,0.9,1,1.5,1.4
			c0.1,0.1,0.3,0.1,0.4,0.2c0.1,0,0.2,0,0.2,0.1c0.1,0,0.2,0,0.2,0c0.2,0,0.4-0.1,0.5-0.1c0.2,0,0.4,0,0.6,0
			c0.2,0.1,0.4,0.2,0.6,0.3c0.8,1.8,2.5,3,3.5,4.6c-0.1,0.4-0.3,0.6-0.8,0.4c-4.4-1.6-8.9-2.2-13.5-0.3
			C156.5,49.2,156.5,49,156.7,48.8z"/>
	</g>
	<g>
		<path class="st15" d="M159.4,39.5c0.4-2,2.5-2.3,3.8-3.4c0.3-0.3,0.8,0.2,0.9,0.7c-0.2,0.9,0.5,1.3,1.1,1.8c0.6,0.1,1.1,0.4,1.4,1
			c-0.1,0.7-0.7,1-1.2,1.5c-0.4,0.4-1,0.5-1.5,0.6c-0.9,0.2-1.8-0.2-2.7-0.2c-0.6-0.1-1-0.5-1.4-0.9C159.5,40.3,159.1,40,159.4,39.5
			z"/>
	</g>
	<g>
		<path class="st15" d="M148.3,44.1c2.1,1.4,3.8,3,5.3,5c-2.3-1.1-4-2.9-5.8-4.6C147.7,44.1,147.9,44,148.3,44.1z"/>
	</g>
	<g>
		<path class="st15" d="M170.2,45.9c0-1.1,0.1-2.2,0.9-3c0.5,0.3,0.3,0.8,0.4,1.2c-1,2.2,0.9,2.9,2,4.1c-0.2,0.2-0.4,0.3-0.5,0.5
			c-0.6,0.4-1,0-1.3-0.4c-0.2-0.1-0.4-0.3-0.6-0.4C170.9,47.3,170.2,46.8,170.2,45.9z"/>
	</g>
	<g>
		<path class="st15" d="M166,41c0.7,0.6-0.9,1.3,0,1.9c0.1,0.4,0,0.7-0.3,1c-0.9,0.7-1.6,0.3-2.2-0.4c-0.4-0.6-0.2-1.1,0.2-1.6
			c0.4-0.4,1-0.6,1.4-0.9C165.4,40.7,165.7,40.7,166,41z"/>
	</g>
	<g>
		<path class="st15" d="M165.2,38.6c-0.6-0.1-1.4,0.8-1.7-0.3c-0.2-0.5-0.5-1.4,0.6-1.5C164.3,37.5,165.9,37.4,165.2,38.6z"/>
	</g>
	<g>
		<path class="st15" d="M159.4,39.5c0.4,0.2,0.7,0.5,1.1,0.7c0.2,0.6,0.2,1.3-0.1,1.9c-0.1,0.2-0.3,0.3-0.5,0.4
			c-0.3,0.1-0.6,0.1-1,0.1c-0.4-0.1-0.8-0.2-0.9-0.7C158.5,41.1,158.9,40.3,159.4,39.5z"/>
	</g>
	<g>
		<path class="st15" d="M159,42.1c0.2-0.1,0.4-0.2,0.6-0.2c0.5,0.2,1.3-0.2,1.6,0.5c0.2,0.6-0.1,1-0.4,1.4c-0.3,0.3-0.7,0.6-1,0.9
			c-0.3-0.6-0.6-1.3-0.8-1.9C158.7,42.6,158.7,42.4,159,42.1z"/>
	</g>
	<g>
		<path class="st15" d="M162.8,50.9c-0.5-0.1-0.8-0.5-0.8-0.9c0-0.5,0.2-0.9,0.8-0.8c0.6,0.1,0.7,0.5,0.6,1
			C163.3,50.5,163.4,50.9,162.8,50.9z"/>
	</g>
	<g>
		<path class="st15" d="M147.1,43.1c1.2-0.6,2.4-0.3,3.5,0c0,0.4-0.4,0.3-0.6,0.5c-0.6,0-1.3,0-1.9,0.1
			C147.6,43.9,147.4,43.6,147.1,43.1z"/>
	</g>
	<g>
		<path class="st15" d="M150.1,43.6c0.2-0.2,0.4-0.3,0.6-0.5c1,0.1,2-0.2,3.1,0.9C152.4,43.9,151.2,43.8,150.1,43.6z"/>
	</g>
	<g>
		<path class="st15" d="M166,41c-0.3,0-0.6,0-0.9-0.1c-0.2-0.1-0.2-0.2-0.2-0.2c0.1-0.1,0.1-0.1,0.2-0.1c0.5-0.3,0.9-0.6,1.4-1
			C167.4,40.4,166.5,40.6,166,41z"/>
	</g>
	<g>
		<path class="st15" d="M159,42.1c0,0.2,0,0.5,0,0.7c-0.8,0-1.6,0-2.6,0c0.3-0.9,1.2-0.5,1.6-1C158.3,41.9,158.6,42,159,42.1z"/>
	</g>
	<g>
		<path class="st15" d="M165.5,43.2c0.1-0.1,0.3-0.3,0.4-0.4c0.3,0.1,0.6,0.3,1,0.4c0,0.6,0.4,1.2,0,1.8c0,0-0.2,0-0.2,0l-0.2,0
			C165.5,44.8,165.1,44.3,165.5,43.2z"/>
	</g>
	<g>
		<path class="st15" d="M171.8,48.3c0.4,0.1,0.9,0.3,1.3,0.4c0.3,0.3,0.6,0.5,0.5,1c-0.5,0.5-1,0.4-1.6,0c-0.2-0.1-0.3-0.3-0.4-0.5
			C171.6,48.9,171.7,48.6,171.8,48.3z"/>
	</g>
	<g>
		<path class="st15" d="M172.6,41.4c0.2-0.8,0.3-1.7,0.5-2.5c0.3,0.4,0.6,0.7,0.8,1.1C173.7,40.7,173.4,41.3,172.6,41.4z"/>
	</g>
	<g>
		<path class="st15" d="M171.6,49.2c0.2,0.1,0.5,0.1,0.7,0.2c0.2,0.4,0.3,0.8-0.3,1.1c-0.6-0.3-1.4-0.1-1.8-0.7
			c0.2-0.1,0.3-0.3,0.5-0.4C171,49.2,171.3,49.2,171.6,49.2z"/>
	</g>
	<g>
		<path class="st15" d="M156.7,48.8c0,0.2,0,0.4,0,0.6c-0.7,0.3-1.3,0.7-2.2,0.5C155,49.1,155.9,49,156.7,48.8z"/>
	</g>
	<g>
		<path class="st15" d="M174,38.3c-0.2-0.3-0.4-0.7-0.6-1c0.3-0.6,1-0.7,1.3-0.3C174.9,37.4,174.5,38,174,38.3z"/>
	</g>
	<g>
		<path class="st15" d="M172,50.4c0.1-0.4,0.2-0.7,0.3-1.1c0.4,0.1,0.9,0.2,1.3,0.3C173.3,50.5,172.6,50.4,172,50.4z"/>
	</g>
	<g>
		<path class="st15" d="M147.1,43.1c0.4,0.2,0.7,0.4,1.1,0.6c0,0.1,0,0.3,0,0.4c-0.2,0.1-0.3,0.3-0.5,0.4
			C147.4,44.1,146.5,44,147.1,43.1z"/>
	</g>
	<g>
		<path class="st15" d="M171.6,44.1c-0.1-0.4-0.3-0.8-0.4-1.2c0.2-0.7,0.6-1.3,1.4-1.5C172.5,42.4,172.1,43.3,171.6,44.1z"/>
	</g>
	<g>
		<path class="st15" d="M160.8,43.8c-0.1-0.4-0.7-0.7,0-1.1c0.2-0.2,0.3-0.4,0.3-0.6c0-0.3,0-0.6,0.1-0.9c0-0.1,0-0.2,0.1-0.2
			c0.8-1,1.5,0.2,2.2,0c0.3,0.2,0.5,0.5,0.6,0.9c-0.2,0.5-0.3,0.9-0.5,1.4c0,0.3-0.2,0.5-0.5,0.5C162.4,43,161.6,43.7,160.8,43.8z"
			/>
	</g>
	<g>
		<path class="st15" d="M163.2,43.7c0.2-0.2,0.3-0.3,0.5-0.5c0.6,0.7,1.2,0,1.9,0c0.5,0.5,1,1,1,1.9c0,0.1-0.1,0.2-0.1,0.4
			c-0.7,0.4-1.5,0.8-2.2,0.1C164.2,44.7,163.3,44.5,163.2,43.7z"/>
	</g>
	<g>
		<path class="st15" d="M164.2,45.5c0.7,0,1.5,0,2.2-0.1c-0.6,0.8-1.2,1.5-2.3,0.9c-0.1-0.1-0.2-0.3-0.2-0.4c0-0.2,0-0.3,0.1-0.5
			C164.1,45.5,164.1,45.5,164.2,45.5z"/>
	</g>
	<g>
		<path class="st15" d="M164,45.5c0,0.2,0.1,0.3,0.1,0.5c-0.2,0.1-0.3,0.1-0.4,0C163.8,45.9,163.9,45.7,164,45.5z"/>
	</g>
	<g>
		<path class="st15" d="M163.7,46c0.1,0,0.3,0,0.4,0c0,0.1,0,0.2,0,0.3C163.8,46.4,163.7,46.3,163.7,46z"/>
	</g>
	<g>
		<path class="st15" d="M170.2,45.9c0.3,0.7,0.6,1.3,1,2C170.5,47.4,169.3,47.2,170.2,45.9z"/>
	</g>
	<g>
		<path class="st15" d="M159.9,41.9c-0.4-0.7,0.4-1.1,0.6-1.6c0.3,0.3,0.6,0.5,0.9,0.8l0,0c0.2,0.5-0.1,0.9-0.5,1.1
			C160.5,42.1,160.2,42.1,159.9,41.9z"/>
	</g>
	<g>
		<path class="st15" d="M164.2,41.9c-0.2-0.3-0.4-0.6-0.6-0.9c0.5-0.2,1-0.3,1.5-0.5c0,0.1,0,0.2,0,0.4
			C164.8,41.2,164.5,41.5,164.2,41.9z"/>
	</g>
	<g>
		<path class="st15" d="M159.9,41.9c0.3,0,0.7,0,1,0c0.7-0.1,0.9,0.3,1,0.9c-0.4,0-0.7,0-1.1,0.1c-0.1-0.8-1.1-0.2-1.3-0.9
			C159.7,41.9,159.8,41.9,159.9,41.9z"/>
	</g>
	<g>
		<path class="st15" d="M161.9,42.7c-0.2-0.4-0.5-0.8-1-0.9c0.1-0.3,0.3-0.6,0.4-0.9C161.7,41.5,162.2,42,161.9,42.7z"/>
	</g>
</g>
<linearGradient id="SVGID_4_" gradientUnits="userSpaceOnUse" x1="163.8942" y1="8.4583" x2="163.8942" y2="27.9427">
	<stop  offset="2.061856e-02" style="stop-color:#D9D9D9"/>
	<stop  offset="0.5722" style="stop-color:#FFFFFF"/>
	<stop  offset="1" style="stop-color:#868686"/>
</linearGradient>
<path class="st20" d="M128,27.9h69c0,0,10.5-8.1,0-19.5h-70.8C126.1,8.5,135.5,17.5,128,27.9z"/>
<circle class="st21" cx="111.3" cy="37.4" r="8.2"/>
<line class="st22" x1="96.9" y1="23" x2="125.7" y2="51.9"/>
<line class="st22" x1="96.9" y1="51.9" x2="125.7" y2="23"/>
<circle class="st14" cx="111.3" cy="37.4" r="3.8"/>
</svg>
