<?xml version="1.0" encoding="utf-8"?>
<!-- Generator: Adobe Illustrator 23.0.0, SVG Export Plug-In . SVG Version: 6.00 Build 0)  -->
<svg version="1.1" id="Capa_1" xmlns="http://www.w3.org/2000/svg" xmlns:xlink="http://www.w3.org/1999/xlink" x="0px" y="0px"
	 viewBox="0 0 104.1 95.4" style="enable-background:new 0 0 104.1 95.4;" xml:space="preserve">
<style type="text/css">
	.st0{fill:#065F85;}
	.st1{fill:#4C4D4F;}
	.st2{fill:none;stroke:#065F85;stroke-width:2;stroke-miterlimit:10;}
	.st3{fill:none;}
	.st4{fill:#FFFFFF;}
	.st5{fill:#145F85;}
	.st6{fill:none;stroke:#FFFFFF;stroke-width:3;stroke-miterlimit:10;}
	.st7{fill:#00A0DF;}
	.st8{fill:url(#SVGID_1_);}
	.st9{fill:url(#SVGID_2_);}
	.st10{fill:url(#SVGID_3_);}
	.st11{fill:#B5D173;}
	.st12{fill:#073651;}
	.st13{fill:#979593;}
	.st14{fill:url(#SVGID_4_);}
	.st15{fill:none;stroke:#073651;stroke-width:5;stroke-miterlimit:10;}
	.st16{fill:#F9F9F9;stroke:#065F85;stroke-width:3;stroke-miterlimit:10;}
	.st17{filter:url(#Adobe_OpacityMaskFilter);}
	.st18{mask:url(#SVGID_5_);}
	.st19{opacity:0.26;fill:#C6C6C5;}
	.st20{fill:#C6C6C5;}
	.st21{fill:#169BD7;}
	.st22{filter:url(#Adobe_OpacityMaskFilter_1_);}
	.st23{fill:none;stroke:#F5F5F5;stroke-width:0.25;stroke-miterlimit:10;}
	.st24{clip-path:url(#SVGID_7_);}
	.st25{clip-path:url(#SVGID_9_);fill-rule:evenodd;clip-rule:evenodd;fill:#13110C;}
	.st26{clip-path:url(#SVGID_9_);fill:#00A0DD;}
	.st27{clip-path:url(#SVGID_9_);fill:#FFFFFF;}
	.st28{clip-path:url(#SVGID_9_);fill:#13110C;}
	.st29{fill:none;stroke:#C6C6C5;stroke-width:2;stroke-miterlimit:10;}
	.st30{filter:url(#Adobe_OpacityMaskFilter_2_);}
	.st31{fill-rule:evenodd;clip-rule:evenodd;fill:#065F85;}
</style>
<path class="st2" d="M86.3,91.8H19.3c-8.2,0-14.8-6.6-14.8-14.8V18.4c0-8.2,6.6-14.8,14.8-14.8h67.1c8.2,0,14.8,6.6,14.8,14.8V77
	C101.1,85.2,94.5,91.8,86.3,91.8z"/>
<g>
	<g>
		<path class="st0" d="M54.6,17.8c-9.6,0-18.2,4.1-24.2,10.7c-5.3,5.8-8.5,13.6-8.5,22c0,18.1,14.7,32.8,32.8,32.8
			c8.5,0,16.2-3.2,22-8.5c6.6-6,10.7-14.6,10.7-24.2C87.3,32.6,72.6,17.8,54.6,17.8z M73.5,71.7c-4.5,4-10.3,6.7-16.7,7.2v-4.3
			c0-1.2-1-2.2-2.2-2.2c-1.2,0-2.2,1-2.2,2.2v4.3c-0.7-0.1-1.5-0.1-2.2-0.3C38,76.8,28.4,67.2,26.5,55c-0.1-0.7-0.2-1.4-0.3-2.2h4.3
			c1.2,0,2.2-1,2.2-2.2c0-1.2-1-2.2-2.2-2.2h-4.3c0.5-6.4,3.1-12.2,7.2-16.7c4.7-5.3,11.4-8.8,18.9-9.4v4.3c0,1.2,1,2.2,2.2,2.2
			c1.2,0,2.2-1,2.2-2.2v-1.8v-2.4c13.9,1.1,25,12.2,26.1,26.1h-2.4h-1.8c-1.2,0-2.2,1-2.2,2.2c0,1.2,1,2.2,2.2,2.2h4.3
			C82.3,60.3,78.8,67,73.5,71.7z"/>
	</g>
	<g>
		<path class="st0" d="M77.6,40.1c-0.3-0.5-0.9-0.8-1.5-0.5l-18.9,9.1c-0.6-0.8-1.6-1.4-2.6-1.4c-1.3,0-2.4,0.7-2.9,1.8l-10.3-3
			c-0.6-0.2-1.2,0.2-1.4,0.8c-0.2,0.6,0.2,1.2,0.8,1.4l9,2.6l1.6,0.5c0.3,1.5,1.6,2.6,3.2,2.6c0.3,0,0.6-0.1,0.9-0.2
			c0.9-0.3,1.6-0.8,2-1.6c0.2-0.4,0.3-0.8,0.4-1.3l17.6-8.4l1.7-0.8C77.6,41.3,77.8,40.7,77.6,40.1z"/>
	</g>
</g>
</svg>
