<?xml version="1.0" encoding="utf-8"?>
<!-- Generator: Adobe Illustrator 23.0.0, SVG Export Plug-In . SVG Version: 6.00 Build 0)  -->
<svg version="1.1" id="Capa_1" xmlns="http://www.w3.org/2000/svg" xmlns:xlink="http://www.w3.org/1999/xlink" x="0px" y="0px"
	 viewBox="0 0 98.8 109.4" style="enable-background:new 0 0 98.8 109.4;" xml:space="preserve">
<style type="text/css">
	.Sombra_x0020_paralela{fill:none;}
	.Esquinas_x0020_redondeadas_x0020_2_x0020_pt_x002E_{fill:#FFFFFF;stroke:#000000;stroke-miterlimit:10;}
	.Reflejo_x0020_vivo_x0020_X{fill:none;}
	.Bisel_x0020_suave{fill:url(#SVGID_1_);}
	.Atardecer{fill:#FFFFFF;}
	.Follaje_GS{fill:#FFDD00;}
	.Pompadour_GS{fill-rule:evenodd;clip-rule:evenodd;fill:#51AEE2;}
	.st0{fill:#ECECEC;}
	.st1{clip-path:url(#SVGID_3_);fill:url(#SVGID_4_);}
	.st2{clip-path:url(#SVGID_3_);fill:url(#SVGID_5_);}
	.st3{clip-path:url(#SVGID_3_);fill:url(#SVGID_6_);}
	.st4{clip-path:url(#SVGID_3_);fill:url(#SVGID_7_);}
	.st5{fill:#106086;}
	.st6{clip-path:url(#SVGID_9_);fill:url(#SVGID_10_);}
	.st7{clip-path:url(#SVGID_9_);fill:url(#SVGID_11_);}
	.st8{clip-path:url(#SVGID_9_);fill:url(#SVGID_12_);}
	.st9{clip-path:url(#SVGID_9_);fill:url(#SVGID_13_);}
	.st10{clip-path:url(#SVGID_15_);fill:url(#SVGID_16_);}
	.st11{clip-path:url(#SVGID_15_);fill:url(#SVGID_17_);}
	.st12{clip-path:url(#SVGID_15_);fill:url(#SVGID_18_);}
	.st13{clip-path:url(#SVGID_15_);fill:url(#SVGID_19_);}
	.st14{fill:url(#SVGID_22_);}
	.st15{fill:#D31126;}
	.st16{fill:#D41216;}
	.st17{opacity:0.44;fill:url(#SVGID_23_);enable-background:new    ;}
	.st18{opacity:0.36;fill:#E52823;stroke:#BE1622;stroke-width:2;stroke-miterlimit:10;enable-background:new    ;}
	.st19{fill:url(#SVGID_24_);}
	.st20{clip-path:url(#SVGID_26_);fill:#066087;}
	.st21{clip-path:url(#SVGID_28_);fill:#066087;}
	.st22{fill:#066087;}
</style>
<linearGradient id="SVGID_1_" gradientUnits="userSpaceOnUse" x1="265.8298" y1="-182.8396" x2="266.5369" y2="-182.1325">
	<stop  offset="0" style="stop-color:#E6E6EB"/>
	<stop  offset="0.1738" style="stop-color:#E2E2E6"/>
	<stop  offset="0.352" style="stop-color:#D5D4D8"/>
	<stop  offset="0.5323" style="stop-color:#C0BFC2"/>
	<stop  offset="0.7139" style="stop-color:#A4A2A4"/>
	<stop  offset="0.8949" style="stop-color:#828282"/>
	<stop  offset="1" style="stop-color:#6B6E6E"/>
</linearGradient>
<g>
	<defs>
		<rect id="SVGID_27_" x="8.9" y="6.2" width="81.7" height="342.2"/>
	</defs>
	<clipPath id="SVGID_3_">
		<use xlink:href="#SVGID_27_"  style="overflow:visible;"/>
	</clipPath>
	<path style="clip-path:url(#SVGID_3_);fill:#066087;" d="M72,62.5h-8.5V46.9h8.3v2.9h-5.2v3.2h4.9v2.9h-4.9v3.7H72V62.5z
		 M61.6,62.5h-8.4V46.9h3v12.6h5.3V62.5z M48.2,62.5l-1-4h-3.8l-1,4h-3.1l4.1-15.5h4l4.1,15.5H48.2z M32.8,62.7
		c-1.5,0-3-0.5-3.8-0.9l0.6-2.9c0.8,0.5,2.1,1,3.4,1c1.4,0,2.1-0.7,2.1-1.7c0-1-0.6-1.5-2.2-2.2c-2.2-0.9-3.7-2.3-3.7-4.6
		c0-2.7,1.9-4.7,5.1-4.7c1.5,0,2.6,0.4,3.4,0.8L37,50.3c-0.5-0.3-1.5-0.7-2.8-0.7c-1.3,0-1.9,0.7-1.9,1.5c0,1,0.8,1.4,2.5,2.2
		c2.4,1,3.5,2.4,3.5,4.6C38.2,60.5,36.5,62.7,32.8,62.7 M90.7,57.4l-4.8-7.5l2.8-8.4c0.4-1.2-0.1-2.4-1.1-3L79.9,34l-1.4-8.8
		c-0.2-1.2-1.2-2.1-2.4-2.1l-8.9-0.3l-5.4-7.1c-0.7-1-2-1.3-3.1-0.8l-8.1,3.8l-8.1-3.8c-1.1-0.5-2.4-0.2-3.1,0.8l-5.4,7.1L25,23.1
		c-1.2,0-2.2,0.9-2.4,2.1L21.1,34l-7.8,4.4c-1.1,0.6-1.5,1.9-1.2,3l2.8,8.4l-4.8,7.5c-0.7,1-0.5,2.4,0.4,3.2l6.5,6.2l-0.7,8.9
		c-0.1,1.2,0.7,2.3,1.8,2.7l8.6,2.5l3.5,8.2c0.5,1.1,1.7,1.8,2.9,1.5l8.8-1.8l6.9,5.6c0.5,0.4,1,0.6,1.6,0.6s1.2-0.2,1.6-0.6
		l6.9-5.6l8.8,1.8c1.2,0.3,2.4-0.4,2.9-1.5l3.5-8.2l8.6-2.5c1.2-0.3,1.9-1.4,1.8-2.7l-0.7-8.9l6.5-6.2
		C91.2,59.8,91.4,58.4,90.7,57.4"/>
</g>
</svg>
