<?xml version="1.0" encoding="utf-8"?>
<!-- Generator: Adobe Illustrator 23.0.0, SVG Export Plug-In . SVG Version: 6.00 Build 0)  -->
<svg version="1.1" id="Capa_1" xmlns="http://www.w3.org/2000/svg" xmlns:xlink="http://www.w3.org/1999/xlink" x="0px" y="0px"
	 viewBox="0 0 98.8 109.4" style="enable-background:new 0 0 98.8 109.4;" xml:space="preserve">
<style type="text/css">
	.Sombra_x0020_paralela{fill:none;}
	.Esquinas_x0020_redondeadas_x0020_2_x0020_pt_x002E_{fill:#FFFFFF;stroke:#000000;stroke-miterlimit:10;}
	.Reflejo_x0020_vivo_x0020_X{fill:none;}
	.Bisel_x0020_suave{fill:url(#SVGID_1_);}
	.Atardecer{fill:#FFFFFF;}
	.Follaje_GS{fill:#FFDD00;}
	.Pompadour_GS{fill-rule:evenodd;clip-rule:evenodd;fill:#51AEE2;}
	.st0{fill:#ECECEC;}
	.st1{clip-path:url(#SVGID_3_);fill:url(#SVGID_4_);}
	.st2{clip-path:url(#SVGID_3_);fill:url(#SVGID_5_);}
	.st3{clip-path:url(#SVGID_3_);fill:url(#SVGID_6_);}
	.st4{clip-path:url(#SVGID_3_);fill:url(#SVGID_7_);}
	.st5{fill:#106086;}
	.st6{clip-path:url(#SVGID_9_);fill:url(#SVGID_10_);}
	.st7{clip-path:url(#SVGID_9_);fill:url(#SVGID_11_);}
	.st8{clip-path:url(#SVGID_9_);fill:url(#SVGID_12_);}
	.st9{clip-path:url(#SVGID_9_);fill:url(#SVGID_13_);}
	.st10{clip-path:url(#SVGID_15_);fill:url(#SVGID_16_);}
	.st11{clip-path:url(#SVGID_15_);fill:url(#SVGID_17_);}
	.st12{clip-path:url(#SVGID_15_);fill:url(#SVGID_18_);}
	.st13{clip-path:url(#SVGID_15_);fill:url(#SVGID_19_);}
	.st14{fill:url(#SVGID_22_);}
	.st15{fill:#D31126;}
	.st16{fill:#D41216;}
	.st17{opacity:0.44;fill:url(#SVGID_23_);enable-background:new    ;}
	.st18{opacity:0.36;fill:#E52823;stroke:#BE1622;stroke-width:2;stroke-miterlimit:10;enable-background:new    ;}
	.st19{fill:url(#SVGID_24_);}
	.st20{clip-path:url(#SVGID_26_);fill:#066087;}
	.st21{clip-path:url(#SVGID_28_);fill:#066087;}
	.st22{fill:#066087;}
</style>
<linearGradient id="SVGID_1_" gradientUnits="userSpaceOnUse" x1="383.0213" y1="-182.8396" x2="383.7284" y2="-182.1325">
	<stop  offset="0" style="stop-color:#E6E6EB"/>
	<stop  offset="0.1738" style="stop-color:#E2E2E6"/>
	<stop  offset="0.352" style="stop-color:#D5D4D8"/>
	<stop  offset="0.5323" style="stop-color:#C0BFC2"/>
	<stop  offset="0.7139" style="stop-color:#A4A2A4"/>
	<stop  offset="0.8949" style="stop-color:#828282"/>
	<stop  offset="1" style="stop-color:#6B6E6E"/>
</linearGradient>
<g>
	<defs>
		<rect id="SVGID_25_" x="8.9" y="6.2" width="81.7" height="342.2"/>
	</defs>
	<clipPath id="SVGID_3_">
		<use xlink:href="#SVGID_25_"  style="overflow:visible;"/>
	</clipPath>
	<path style="clip-path:url(#SVGID_3_);fill:#066087;" d="M69.7,58.9c0,2.2-1.8,3.9-4,3.9H33.3c-2.2,0-4-1.8-4-3.9V24.5
		c0-2.2,1.8-3.9,4-3.9h32.5c2.2,0,4,1.8,4,3.9V58.9z M69.7,73c0,0.4-0.6,0.7-1.4,0.7H57.3c-0.7,0-1.4-0.3-1.4-0.7v-6.5
		c0-0.4,0.6-0.7,1.4-0.7h11.1c0.7,0,1.4,0.3,1.4,0.7V73z M53.3,73c0,0.4-0.3,0.7-0.7,0.7h-6.1c-0.4,0-0.7-0.3-0.7-0.7v-6.5
		c0-0.4,0.3-0.7,0.7-0.7h6.1c0.4,0,0.7,0.3,0.7,0.7V73z M42.9,73c0,0.4-0.6,0.7-1.3,0.7H30.7c-0.7,0-1.3-0.3-1.3-0.7v-6.5
		c0-0.4,0.6-0.7,1.3-0.7h10.9c0.7,0,1.3,0.3,1.3,0.7V73z M68.7,14.5H38.8v-3.8c0-2.5-2.1-4.5-4.6-4.5c-2.5,0-4.6,2-4.6,4.5v3.8
		c-3.5,0.4-6.3,3.4-6.3,7v68c0,3.9,3.2,7,7.1,7h38.3c3.9,0,7.1-3.2,7.1-7v-68C75.7,17.7,72.6,14.5,68.7,14.5"/>
</g>
</svg>
