<?xml version="1.0" encoding="utf-8"?>
<!-- Generator: Adobe Illustrator 23.0.0, SVG Export Plug-In . SVG Version: 6.00 Build 0)  -->
<svg version="1.1" id="Capa_1" xmlns="http://www.w3.org/2000/svg" xmlns:xlink="http://www.w3.org/1999/xlink" x="0px" y="0px"
	 viewBox="0 0 207.8 100.9" style="enable-background:new 0 0 207.8 100.9;" xml:space="preserve">
<style type="text/css">
	.st0{fill:#065F85;}
	.st1{fill:#FFFFFF;}
</style>
<path class="st0" d="M196.3,86.9H11.5C5.2,86.9,0,81.8,0,75.4V29c0-6.3,5.1-11.5,11.5-11.5h184.8c6.3,0,11.5,5.1,11.5,11.5v46.5
	C207.8,81.8,202.6,86.9,196.3,86.9z"/>
<g>
	<path class="st1" d="M17.9,75.7h26.2c1.7,0,3-1.4,3-3V28c0-1.7-1.4-3-3-3H17.9c-1.7,0-3,1.4-3,3v44.7
		C14.9,74.4,16.2,75.7,17.9,75.7z M31,72.8c-1,0-1.9-0.8-1.9-1.9c0-1,0.8-1.9,1.9-1.9c1,0,1.9,0.8,1.9,1.9
		C32.9,71.9,32,72.8,31,72.8z M19.6,29.2h22.7v37.7H19.6V29.2z"/>
	<rect x="21.8" y="31.6" class="st1" width="18.4" height="13.6"/>
	<rect x="21.8" y="46.3" class="st1" width="4.4" height="1.7"/>
	<rect x="21.8" y="49.5" class="st1" width="8.5" height="8"/>
	<rect x="26.5" y="46.3" class="st1" width="4.4" height="1.7"/>
	<rect x="31.1" y="46.3" class="st1" width="4.4" height="1.7"/>
	<rect x="31.4" y="49.7" class="st1" width="8.8" height="1.1"/>
	<rect x="31.4" y="51.6" class="st1" width="8.8" height="1.1"/>
	<rect x="31.4" y="53.6" class="st1" width="8.8" height="1.1"/>
	<rect x="31.4" y="55.6" class="st1" width="4.6" height="1.1"/>
	<rect x="31.4" y="58.4" class="st1" width="8.8" height="1.1"/>
	<rect x="31.4" y="60.4" class="st1" width="8.8" height="1.1"/>
	<rect x="35.8" y="46.3" class="st1" width="4.4" height="1.7"/>
</g>
<g>
	<path class="st1" d="M59.7,45.6v-2h0.2c1.2,1.1,2.7,1.6,4.5,1.6c2.1,0,3.1-0.9,3.1-2.7c0-0.7-0.2-1.2-0.7-1.5s-1.4-0.7-2.9-1.2
		c-1.8-0.5-3-1.2-3.5-1.8c-0.5-0.7-0.8-1.5-0.8-2.5c0-1.3,0.4-2.3,1.3-3.1s2-1.2,3.3-1.2c1.6,0,3.1,0.4,4.5,1.1v1.9h-0.2
		c-1.1-0.9-2.5-1.4-4.2-1.4c-0.9,0-1.6,0.2-2.1,0.7s-0.7,1.1-0.7,1.8s0.2,1.3,0.7,1.6c0.4,0.4,1.3,0.7,2.7,1.1c1.2,0.3,2,0.7,2.6,1
		s1,0.7,1.4,1.3c0.3,0.5,0.5,1.2,0.5,2c0,1.4-0.5,2.6-1.4,3.4c-0.9,0.8-2.1,1.2-3.6,1.2C62.6,46.8,61,46.4,59.7,45.6z"/>
	<path class="st1" d="M72.8,41.5c0,2.6,1.1,3.8,3.1,3.8c1.2,0,2.3-0.3,3.4-1h0.1v1.5c-1.2,0.6-2.5,0.9-3.8,0.9
		c-1.5,0-2.7-0.5-3.5-1.5s-1.3-2.3-1.3-4.1s0.4-3.1,1.3-4.2s2-1.6,3.4-1.6c1.2,0,2.3,0.4,3,1.3c0.8,0.9,1.2,2.1,1.2,3.6v1.1h-6.9
		V41.5z M78,40.2c0-1-0.2-1.7-0.6-2.3c-0.4-0.6-1-0.9-1.8-0.9s-1.4,0.3-1.9,0.8c-0.5,0.6-0.8,1.3-0.8,2.3H78V40.2z"/>
	<path class="st1" d="M90.3,45.4c0,3.7-1.7,5.6-5.1,5.6c-1,0-2-0.2-3-0.5v-1.7h0.2c0.8,0.4,1.8,0.7,2.9,0.7c2,0,3-1.1,3-3.3v-0.8
		c-0.9,0.9-2,1.4-3.3,1.4s-2.2-0.5-2.9-1.4s-1-2.3-1-4c0-1.8,0.4-3.2,1.3-4.2c0.8-1,1.9-1.5,3.2-1.5c1,0,1.9,0.3,2.7,0.9l0.2-0.7
		h1.7v9.5H90.3z M88.4,37.9c-0.7-0.5-1.5-0.7-2.2-0.7c-0.9,0-1.6,0.3-2.2,1c-0.5,0.7-0.8,1.7-0.8,3c0,2.6,0.8,3.9,2.5,3.9
		c0.5,0,0.9-0.1,1.3-0.2s0.8-0.5,1.4-1.1V37.9z"/>
	<path class="st1" d="M101.7,46.6h-1.9v-1.3c-0.9,1-2,1.5-3.4,1.5c-1,0-1.8-0.3-2.4-0.9c-0.6-0.6-0.9-1.6-0.9-2.8v-7.2H95v6.7
		c0,1,0.2,1.6,0.5,2.1c0.3,0.4,0.8,0.6,1.6,0.6c1,0,1.9-0.4,2.7-1.3v-8.1h1.9L101.7,46.6L101.7,46.6z"/>
	<path class="st1" d="M106.9,33.5h-2.1v-2.2h2.2L106.9,33.5L106.9,33.5z M106.8,46.6h-1.9V35.8h1.9V46.6z"/>
	<path class="st1" d="M118.6,46.6h-1.9V40c0-1.1-0.2-1.8-0.5-2.2s-0.9-0.6-1.6-0.6c-1,0-1.9,0.4-2.6,1.2v8.1h-1.9V35.8h1.9V37
		c0.9-1,2-1.6,3.4-1.6c1.5,0,2.5,0.6,3,1.8c0.9-1.2,2.1-1.8,3.5-1.8c2.3,0,3.4,1.3,3.4,3.8v7.2h-1.9v-6.6c0-0.9-0.2-1.6-0.5-2.1
		c-0.3-0.4-0.9-0.7-1.6-0.7c-1,0-1.9,0.4-2.7,1.3c0,0.2,0.1,0.5,0.1,1L118.6,46.6L118.6,46.6z"/>
	<path class="st1" d="M129.3,41.5c0,2.6,1.1,3.8,3.1,3.8c1.2,0,2.3-0.3,3.4-1h0.1v1.5c-1.2,0.6-2.5,0.9-3.8,0.9
		c-1.5,0-2.7-0.5-3.5-1.5s-1.3-2.3-1.3-4.1s0.4-3.1,1.3-4.2s2-1.6,3.4-1.6c1.2,0,2.3,0.4,3,1.3c0.8,0.9,1.2,2.1,1.2,3.6v1.1h-6.9
		V41.5z M134.5,40.2c0-1-0.2-1.7-0.6-2.3c-0.4-0.6-1-0.9-1.8-0.9s-1.4,0.3-1.9,0.8c-0.5,0.6-0.8,1.3-0.8,2.3h5.1V40.2z"/>
	<path class="st1" d="M146.9,46.6H145v-6.7c0-1-0.2-1.7-0.5-2.1c-0.3-0.4-0.8-0.6-1.6-0.6c-1,0-1.9,0.4-2.7,1.2v8.1h-1.9V35.8h1.9
		V37c0.9-1,1.9-1.6,3.2-1.6c2.3,0,3.5,1.3,3.5,3.8V46.6z"/>
	<path class="st1" d="M148.6,37.3v-1.5h1.2v-3.6h1.9v3.6h3.2v1.5h-3.1v5.1c0,1,0.1,1.7,0.3,2.1c0.2,0.4,0.6,0.6,1.3,0.6
		c0.5,0,1-0.1,1.5-0.3h0.1v1.6c-0.6,0.2-1.2,0.3-1.9,0.3c-1.2,0-2-0.3-2.5-0.9c-0.5-0.6-0.8-1.5-0.8-2.7v-5.8
		C149.8,37.3,148.6,37.3,148.6,37.3z"/>
	<path class="st1" d="M160.6,46.8c-1.4,0-2.5-0.5-3.4-1.5c-0.8-1-1.2-2.4-1.2-4.1s0.4-3.1,1.3-4.1c0.8-1,2-1.5,3.3-1.5
		c1.4,0,2.5,0.5,3.4,1.5c0.8,1,1.2,2.4,1.2,4.1c0,1.8-0.4,3.1-1.2,4.1C163.2,46.3,162.1,46.8,160.6,46.8z M160.6,45.3
		c0.8,0,1.5-0.4,2-1.1c0.5-0.7,0.7-1.7,0.7-3.1c0-1.3-0.2-2.4-0.7-3.1s-1.1-1.1-2-1.1c-0.8,0-1.5,0.4-1.9,1.1
		c-0.5,0.7-0.7,1.7-0.7,3.1c0,1.4,0.2,2.4,0.7,3.1C159.1,45,159.8,45.3,160.6,45.3z"/>
	<path class="st1" d="M59.7,70.8v-2h0.2c1.2,1.1,2.7,1.6,4.5,1.6c2.1,0,3.1-0.9,3.1-2.7c0-0.7-0.2-1.2-0.7-1.5s-1.4-0.7-2.9-1.2
		c-1.8-0.5-3-1.2-3.5-1.8c-0.5-0.7-0.8-1.5-0.8-2.5c0-1.3,0.4-2.3,1.3-3.1s2-1.2,3.3-1.2c1.6,0,3.1,0.4,4.5,1.1v1.9h-0.2
		C67.4,58.5,66,58,64.3,58c-0.9,0-1.6,0.2-2.1,0.7s-0.7,1.1-0.7,1.8s0.2,1.3,0.7,1.6c0.4,0.4,1.3,0.7,2.7,1.1c1.2,0.3,2,0.7,2.6,1
		c0.6,0.3,1,0.7,1.4,1.3c0.3,0.5,0.5,1.2,0.5,2c0,1.4-0.5,2.6-1.4,3.4s-2.1,1.2-3.6,1.2C62.6,72,61,71.6,59.7,70.8z"/>
	<path class="st1" d="M77.6,70.7C76.7,71.6,75.5,72,74,72c-0.9,0-1.7-0.3-2.4-0.9c-0.6-0.6-0.9-1.4-0.9-2.4c0-1.5,0.6-2.5,1.8-3.1
		c1.2-0.6,2.9-0.9,5.2-1v-0.3c0-0.7-0.2-1.3-0.7-1.7S75.8,62,75,62c-0.9,0-1.9,0.2-3,0.7h-0.1V61c1.1-0.4,2.1-0.6,3.2-0.6
		c1.6,0,2.8,0.3,3.5,0.9s1.1,1.6,1.1,3v7.1h-1.9v-0.7H77.6z M77.7,66.1c-1.7,0.1-2.9,0.3-3.8,0.6c-0.8,0.3-1.2,1-1.2,2
		c0,1.3,0.7,2,2.2,2c1,0,1.9-0.4,2.8-1.2V66.1z"/>
	<path class="st1" d="M81.3,62.5V61h1.2v-3.6h1.9V61h3.2v1.5h-3.2v5.1c0,1,0.1,1.7,0.3,2.1s0.6,0.6,1.3,0.6c0.5,0,1-0.1,1.5-0.3h0.1
		v1.6c-0.6,0.2-1.2,0.3-1.9,0.3c-1.2,0-2-0.3-2.5-0.9s-0.8-1.5-0.8-2.7v-5.8C82.4,62.5,81.3,62.5,81.3,62.5z"/>
	<path class="st1" d="M90.6,66.7c0,2.6,1.1,3.8,3.1,3.8c1.2,0,2.3-0.3,3.4-1h0.1V71c-1.2,0.6-2.5,0.9-3.8,0.9
		c-1.5,0-2.7-0.5-3.5-1.5s-1.3-2.3-1.3-4.1s0.4-3.1,1.3-4.2s2-1.6,3.4-1.6c1.2,0,2.3,0.4,3,1.3c0.8,0.9,1.2,2.1,1.2,3.6v1.1h-6.9
		V66.7z M95.8,65.4c0-1-0.2-1.7-0.6-2.3c-0.4-0.6-1-0.9-1.8-0.9S92,62.5,91.5,63c-0.5,0.6-0.8,1.3-0.8,2.3L95.8,65.4L95.8,65.4z
		 M95.5,55.4L95.5,55.4l-2.3,3.8h-1.3l1.7-3.8H95.5z"/>
	<path class="st1" d="M101.6,71.8h-1.9v-16h1.9V71.8z"/>
	<path class="st1" d="M106.8,58.7h-2.2v-2.2h2.2V58.7z M106.7,71.8h-1.9V61h1.9V71.8z"/>
	<path class="st1" d="M108.9,62.5V61h1.2v-3.6h1.9V61h3.2v1.5H112v5.1c0,1,0.1,1.7,0.3,2.1s0.6,0.6,1.3,0.6c0.5,0,1-0.1,1.5-0.3h0.1
		v1.6c-0.6,0.2-1.2,0.3-1.9,0.3c-1.2,0-2-0.3-2.5-0.9s-0.8-1.5-0.8-2.7v-5.8C110,62.5,108.9,62.5,108.9,62.5z"/>
	<path class="st1" d="M123.1,70.7c-0.9,0.9-2.1,1.3-3.6,1.3c-0.9,0-1.7-0.3-2.4-0.9c-0.6-0.6-0.9-1.4-0.9-2.4c0-1.5,0.6-2.5,1.8-3.1
		s2.9-0.9,5.2-1v-0.3c0-0.7-0.2-1.3-0.7-1.7s-1.2-0.6-2-0.6c-0.9,0-1.9,0.2-3,0.7h-0.1V61c1.1-0.4,2.1-0.6,3.2-0.6
		c1.6,0,2.8,0.3,3.5,0.9s1.1,1.6,1.1,3v7.1h-1.9v-0.7H123.1z M123.2,66.1c-1.7,0.1-2.9,0.3-3.8,0.6c-0.8,0.3-1.2,1-1.2,2
		c0,1.3,0.7,2,2.2,2c1,0,1.9-0.4,2.8-1.2V66.1z"/>
	<path class="st1" d="M129.8,71.8h-2v-16h1.9v16H129.8z"/>
	<path class="st1" d="M152.5,61l-2.9,10.8h-1.8l-2.6-8.2l-2.7,8.2h-1.7l-3-10.8h1.8l2.2,8.3l2.6-8.3h1.6l2.7,8.3l2-8.3
		C150.7,61,152.5,61,152.5,61z"/>
	<path class="st1" d="M155.5,66.7c0,2.6,1.1,3.8,3.1,3.8c1.2,0,2.3-0.3,3.4-1h0.1V71c-1.2,0.6-2.5,0.9-3.8,0.9
		c-1.5,0-2.7-0.5-3.5-1.5s-1.3-2.3-1.3-4.1s0.4-3.1,1.3-4.2s2-1.6,3.4-1.6c1.2,0,2.3,0.4,3,1.3c0.8,0.9,1.2,2.1,1.2,3.6v1.1h-6.9
		V66.7z M160.7,65.4c0-1-0.2-1.7-0.6-2.3c-0.4-0.6-1-0.9-1.8-0.9s-1.4,0.3-1.9,0.8c-0.5,0.6-0.8,1.3-0.8,2.3L160.7,65.4L160.7,65.4z
		"/>
	<path class="st1" d="M166.4,71.2l-0.1,0.6h-1.8v-16h1.9v6.3c1-0.9,2.2-1.4,3.3-1.4c1.2,0,2.2,0.5,2.8,1.4c0.7,0.9,1,2.2,1,3.9
		c0,1.8-0.4,3.2-1.2,4.3s-1.9,1.6-3.2,1.6C168.1,71.9,167.2,71.7,166.4,71.2z M166.4,63.5v6.4c0.5,0.4,1.3,0.6,2.3,0.6
		s1.7-0.4,2.2-1.1s0.8-1.8,0.8-3.1c0-2.7-0.8-4-2.4-4C168.2,62.3,167.3,62.7,166.4,63.5z"/>
</g>
</svg>
