<?xml version="1.0" encoding="utf-8"?>
<!-- Generator: Adobe Illustrator 23.0.0, SVG Export Plug-In . SVG Version: 6.00 Build 0)  -->
<svg version="1.1" id="Capa_1" xmlns="http://www.w3.org/2000/svg" xmlns:xlink="http://www.w3.org/1999/xlink" x="0px" y="0px"
	 viewBox="0 0 226.3 122.9" style="enable-background:new 0 0 226.3 122.9;" xml:space="preserve">
<style type="text/css">
	.st0{fill:#00A0DF;}
	.st1{fill:#FFFFFF;}
	.st2{fill:#065F85;}
	.st3{fill:url(#SVGID_1_);}
	.st4{fill:url(#SVGID_2_);}
	.st5{fill:url(#SVGID_3_);}
	.st6{fill:#B5D173;}
	.st7{fill:#073651;}
	.st8{fill:#979593;}
	.st9{fill:#004876;}
	.st10{fill:url(#SVGID_4_);}
	.st11{fill:none;stroke:#073651;stroke-width:5;stroke-miterlimit:10;}
	.st12{fill:none;stroke:#065F85;stroke-width:3;stroke-miterlimit:10;}
</style>
<path class="st0" d="M212.9,122.9H13.4c-7.4,0-13.4-6-13.4-13.4v-96C0,6,6,0,13.4,0h199.4c7.4,0,13.4,6,13.4,13.4v96
	C226.3,116.9,220.3,122.9,212.9,122.9z"/>
<g>
	<path class="st1" d="M181,63.1h-31.8c-0.4,0-0.7-0.3-0.7-0.7v-1c0-0.4,0.3-0.7,0.7-0.7H181c0.4,0,0.7,0.3,0.7,0.7v1
		C181.7,62.8,181.4,63.1,181,63.1z"/>
	<circle class="st1" cx="197.3" cy="48.3" r="7.4"/>
	<path class="st1" d="M157.6,59.6h-8.3c-0.4,0-0.7-0.3-0.7-0.7v-3.2c0-0.4,0.3-0.7,0.7-0.7h8.3c0.4,0,0.7,0.3,0.7,0.7v3.2
		C158.4,59.2,158,59.6,157.6,59.6z"/>
	<path class="st1" d="M173.7,59.6h-8.3c-0.4,0-0.7-0.3-0.7-0.7v-3.2c0-0.4,0.3-0.7,0.7-0.7h8.3c0.4,0,0.7,0.3,0.7,0.7v3.2
		C174.5,59.2,174.1,59.6,173.7,59.6z"/>
	<path class="st1" d="M181,52.5h-31.7c-0.4,0-0.7-0.3-0.7-0.7v-9.1c0-0.4,0.3-0.7,0.7-0.7H181c0.4,0,0.7,0.3,0.7,0.7v9.1
		C181.7,52.1,181.4,52.5,181,52.5z"/>
</g>
<g>
	<path class="st2" d="M68.2,93.9h-7.5V99h6.2v2.1h-6.2v8.9h-2.4V91.8h9.9V93.9z"/>
	<path class="st2" d="M85.2,110h-2.3V94.5l-4.4,10.4h-1.6l-4.4-10.4V110h-2.2V91.8h3.2l4.3,10.4l4.3-10.4h3.1L85.2,110L85.2,110z"/>
	<path class="st2" d="M88.7,110V91.8h4c2.8,0,5,0.8,6.5,2.3s2.3,3.8,2.3,6.8c0,2.9-0.8,5.2-2.4,6.7s-3.7,2.3-6.3,2.3L88.7,110
		L88.7,110z M91.1,93.9V108h1.6c2,0,3.6-0.6,4.7-1.8c1.1-1.2,1.7-3,1.7-5.3s-0.5-4-1.6-5.2c-1.1-1.2-2.6-1.8-4.7-1.8
		C92.8,93.9,91.1,93.9,91.1,93.9z"/>
	<path class="st2" d="M121.7,110h-9.6v-2h3.8V95.9h-3.8v-1.8c1.5,0,2.6-0.2,3.1-0.6c0.6-0.4,0.9-1,1-2h1.9V108h3.5v2H121.7z"/>
	<path class="st2" d="M129.8,110.3c-1.9,0-3.3-0.7-4.2-2.2c-0.8-1.5-1.3-3.9-1.3-7.2c0-3.4,0.4-5.8,1.3-7.2c0.8-1.5,2.2-2.2,4.2-2.2
		c1.9,0,3.3,0.7,4.1,2.2c0.9,1.5,1.3,3.9,1.3,7.2s-0.4,5.7-1.3,7.2S131.8,110.3,129.8,110.3z M129.8,93.5c-1.2,0-2.1,0.6-2.5,1.8
		s-0.6,3.1-0.6,5.6s0.2,4.3,0.6,5.5s1.2,1.8,2.4,1.8c1.1,0,1.9-0.6,2.4-1.7c0.5-1.1,0.7-3,0.7-5.7c0-2.6-0.2-4.4-0.6-5.6
		C131.9,94.1,131.1,93.5,129.8,93.5z"/>
	<path class="st2" d="M143,110.3c-1.9,0-3.3-0.7-4.2-2.2c-0.8-1.5-1.3-3.9-1.3-7.2c0-3.4,0.4-5.8,1.3-7.2c0.8-1.5,2.2-2.2,4.2-2.2
		c1.9,0,3.3,0.7,4.1,2.2c0.9,1.5,1.3,3.9,1.3,7.2s-0.4,5.7-1.3,7.2S144.9,110.3,143,110.3z M143,93.5c-1.2,0-2.1,0.6-2.5,1.8
		s-0.6,3.1-0.6,5.6s0.2,4.3,0.6,5.5s1.2,1.8,2.4,1.8c1.1,0,1.9-0.6,2.4-1.7c0.5-1.1,0.7-3,0.7-5.7c0-2.6-0.2-4.4-0.6-5.6
		C145,94.1,144.2,93.5,143,93.5z"/>
	<path class="st2" d="M156.1,110.3c-1.9,0-3.3-0.7-4.2-2.2c-0.8-1.5-1.3-3.9-1.3-7.2c0-3.4,0.4-5.8,1.3-7.2c0.8-1.5,2.2-2.2,4.2-2.2
		c1.9,0,3.3,0.7,4.1,2.2c0.9,1.5,1.3,3.9,1.3,7.2s-0.4,5.7-1.3,7.2S158.1,110.3,156.1,110.3z M156.1,93.5c-1.2,0-2.1,0.6-2.5,1.8
		s-0.6,3.1-0.6,5.6s0.2,4.3,0.6,5.5s1.2,1.8,2.4,1.8c1.1,0,1.9-0.6,2.4-1.7c0.5-1.1,0.7-3,0.7-5.7c0-2.6-0.2-4.4-0.6-5.6
		C158.2,94.1,157.4,93.5,156.1,93.5z"/>
</g>
<linearGradient id="SVGID_1_" gradientUnits="userSpaceOnUse" x1="45" y1="49.4398" x2="203" y2="49.4398" gradientTransform="matrix(1 0 0 -1 0 101.8898)">
	<stop  offset="0" style="stop-color:#00503E"/>
	<stop  offset="1" style="stop-color:#043222"/>
</linearGradient>
<path class="st3" d="M203,51.7c0-7.6-4.9-14-11.8-16.2c-1.6-4.1-5.5-7-10.1-7h-112c-4.4,0-8.2,2.6-9.9,6.3
	c-8,1.4-14.2,8.4-14.2,16.9c0,8.2,5.9,15.1,13.6,16.7c1.3,4.6,5.5,8,10.4,8h112c5.2,0,9.6-3.7,10.6-8.7C198.3,65.3,203,59,203,51.7z
	"/>
<linearGradient id="SVGID_2_" gradientUnits="userSpaceOnUse" x1="160.9571" y1="89.8219" x2="85.9753" y2="38.6979" gradientTransform="matrix(1 0 0 -1 0 101.8898)">
	<stop  offset="0" style="stop-color:#C5A24D"/>
	<stop  offset="1" style="stop-color:#60993E"/>
</linearGradient>
<rect x="86.5" y="34.6" class="st4" width="74.9" height="5.4"/>
<linearGradient id="SVGID_3_" gradientUnits="userSpaceOnUse" x1="170.7082" y1="75.5203" x2="95.7262" y2="24.3962" gradientTransform="matrix(1 0 0 -1 0 101.8898)">
	<stop  offset="0" style="stop-color:#C5A24D"/>
	<stop  offset="1" style="stop-color:#60993E"/>
</linearGradient>
<rect x="79.4" y="46.3" class="st5" width="89.1" height="23.9"/>
<path class="st6" d="M62.1,64.3L62.1,64.3c-7,0-12.6-5.6-12.6-12.6l0,0c0-7,5.6-12.6,12.6-12.6l0,0c7,0,12.6,5.6,12.6,12.6l0,0
	C74.7,58.6,69.1,64.3,62.1,64.3z"/>
<g>
	<path class="st2" d="M201.9,82.5H27.1c-3.9,0-7-3.1-7-7V27.8c0-3.9,3.1-7,7-7h174.8c3.9,0,7,3.1,7,7v47.7
		C208.9,79.3,205.7,82.5,201.9,82.5z"/>
	<path class="st1" d="M204,83.5H24.9c-3.3,0-5.9-2.6-5.9-5.8V25.5c0-3.2,2.6-5.8,5.9-5.8H204c3.3,0,5.9,2.6,5.9,5.8v52.2
		C210,80.9,207.3,83.5,204,83.5z M24.9,21.9c-2.1,0-3.7,1.6-3.7,3.6v52.2c0,2,1.7,3.6,3.7,3.6H204c2.1,0,3.7-1.6,3.7-3.6V25.5
		c0-2-1.7-3.6-3.7-3.6H24.9z"/>
</g>
<g>
	<rect x="34" y="32.8" class="st7" width="60.5" height="26.7"/>
</g>
<g>
	<path class="st7" d="M199.2,76.5h-71.5V26.6h71.5V76.5z M129.8,74.4H197V28.8h-67.2V74.4z"/>
</g>
<g>
	<path class="st7" d="M93.3,73.4H34c-0.2,0-0.4-0.2-0.4-0.4v-4.1c0-0.2,0.2-0.4,0.4-0.4h59.3c0.2,0,0.4,0.2,0.4,0.4V73
		C93.7,73.3,93.5,73.4,93.3,73.4z"/>
</g>
<g>
	<path class="st7" d="M201.4,29.6h-74.9c-0.2,0-0.4-0.2-0.4-0.4v-4.1c0-0.2,0.2-0.4,0.4-0.4h74.9c0.2,0,0.4,0.2,0.4,0.4v4.1
		C201.7,29.4,201.6,29.6,201.4,29.6z"/>
</g>
<g>
	<path class="st7" d="M123.8,67.1H98.6c-0.2,0-0.3-0.1-0.3-0.3v-3.2c0-0.2,0.1-0.3,0.3-0.3h25.2c0.2,0,0.3,0.1,0.3,0.3v3.2
		C124.1,67,124,67.1,123.8,67.1z"/>
</g>
<g>
	<path class="st8" d="M192.5,65.7h-58.3c-0.5,0-0.9-0.4-0.9-0.9V55c0-0.5,0.4-0.9,0.9-0.9h58.3c0.5,0,0.9,0.4,0.9,0.9v9.8
		C193.5,65.3,193,65.7,192.5,65.7z"/>
</g>
<g>
	<path class="st9" d="M145.9,57.8H143V59h2.7v1.2H143v2.6h-1.6v-6.2h4.5V57.8z"/>
	<path class="st9" d="M152.6,60.5c0,0.8-0.2,1.4-0.7,1.8c-0.5,0.4-1.2,0.6-2.1,0.6c-0.9,0-1.6-0.2-2.1-0.6c-0.5-0.4-0.7-1-0.7-1.8
		v-4h1.6v3.9c0,0.4,0.1,0.8,0.3,1s0.5,0.3,0.9,0.3s0.7-0.1,0.9-0.3s0.3-0.5,0.3-1v-3.9h1.6V60.5z"/>
	<path class="st9" d="M158.7,62.7h-4.6v-6.2h1.6v5h2.9v1.2H158.7z"/>
	<path class="st9" d="M162.6,60.6h-3.3v-1.2h3.3V60.6z"/>
	<path class="st9" d="M170.5,62.7h-1.6v-4.1l-1.2,2.7h-1.1l-1.2-2.7v4.1h-1.5v-6.2h1.9l1.4,3.1l1.4-3.1h1.9L170.5,62.7L170.5,62.7z"
		/>
	<path class="st9" d="M178,62.7h-1.7l-0.4-1.3h-2.3l-0.4,1.3h-1.6l2.3-6.2h1.9L178,62.7z M175.5,60.4l-0.8-2.2l-0.8,2.2H175.5z"/>
	<path class="st9" d="M185,62.7h-2l-1.7-2.3h-0.8v2.3h-1.6v-6.2h2.7c0.4,0,0.7,0,1,0.1c0.3,0,0.5,0.1,0.8,0.3
		c0.2,0.1,0.4,0.3,0.6,0.5c0.1,0.2,0.2,0.5,0.2,0.8c0,0.5-0.1,0.8-0.3,1.1s-0.5,0.5-0.9,0.7L185,62.7z M182.5,58.4
		c0-0.2,0-0.3-0.1-0.4c-0.1-0.1-0.2-0.2-0.3-0.3c-0.1,0-0.2-0.1-0.4-0.1c-0.1,0-0.3,0-0.5,0h-0.6v1.7h0.5c0.3,0,0.5,0,0.7,0
		s0.3-0.1,0.4-0.2c0.1-0.1,0.2-0.2,0.2-0.3C182.5,58.8,182.5,58.6,182.5,58.4z"/>
</g>
<g>
	<path class="st8" d="M140.5,68.7h-1v2.5h-0.8v-2.5h-1v-0.6h2.8V68.7z"/>
	<path class="st8" d="M142.4,70.9c0,0-0.1,0.1-0.2,0.1c-0.1,0-0.1,0.1-0.2,0.1c-0.1,0-0.2,0.1-0.2,0.1c-0.1,0-0.2,0-0.3,0
		c-0.2,0-0.4-0.1-0.6-0.2s-0.2-0.3-0.2-0.5s0-0.3,0.1-0.4s0.2-0.2,0.3-0.3c0.1-0.1,0.3-0.1,0.5-0.1s0.4,0,0.7-0.1l0,0
		c0-0.1-0.1-0.2-0.2-0.3c-0.1,0-0.3-0.1-0.5-0.1c-0.1,0-0.3,0-0.4,0.1s-0.2,0.1-0.3,0.1h0.1v-0.6c0.1,0,0.2,0,0.4-0.1s0.4,0,0.5,0
		c0.4,0,0.8,0.1,0.9,0.2c0.2,0.1,0.3,0.3,0.3,0.6v1.6h-0.8v-0.2H142.4z M142.4,70.6v-0.5c-0.1,0-0.2,0-0.3,0s-0.2,0-0.3,0.1
		c-0.1,0-0.1,0.1-0.2,0.1s-0.1,0.1-0.1,0.2v0.1c0,0,0,0.1,0.1,0.1c0,0,0.1,0,0.1,0.1c0,0,0.1,0,0.2,0c0.1,0,0.2,0,0.2,0
		C142.3,70.6,142.3,70.6,142.4,70.6z"/>
	<path class="st8" d="M145.1,71.2c-0.2,0-0.4,0-0.6-0.1c-0.2,0-0.3-0.1-0.5-0.2c-0.1-0.1-0.2-0.2-0.3-0.4c-0.1-0.2-0.1-0.3-0.1-0.5
		s0-0.4,0.1-0.6s0.2-0.3,0.3-0.4s0.3-0.2,0.4-0.2c0.2,0,0.3-0.1,0.5-0.1s0.3,0,0.5,0.1c0.1,0,0.3,0.1,0.4,0.1v0.6h-0.1l-0.1-0.1
		c0,0-0.1-0.1-0.2-0.1c-0.1,0-0.1-0.1-0.2-0.1c-0.1,0-0.2,0-0.2,0c-0.2,0-0.4,0.1-0.5,0.2s-0.2,0.3-0.2,0.5s0.1,0.4,0.2,0.5
		c0.1,0.1,0.3,0.2,0.5,0.2c0.1,0,0.2,0,0.3,0s0.1,0,0.2-0.1l0.1-0.1l0.1-0.1h0.1V71c-0.1,0.1-0.2,0.1-0.4,0.1
		C145.4,71.2,145.3,71.2,145.1,71.2z"/>
	<path class="st8" d="M148.9,70c0,0.4-0.1,0.7-0.3,0.9c-0.2,0.2-0.6,0.3-1,0.3s-0.7-0.1-1-0.3c-0.2-0.2-0.3-0.5-0.3-0.9
		s0.1-0.7,0.3-0.9c0.2-0.2,0.6-0.3,1-0.3s0.7,0.1,1,0.3C148.8,69.3,148.9,69.6,148.9,70z M148.3,67.7L148.3,67.7l-0.8,0.8H147
		l0.5-0.8H148.3z M147.9,70.6c0-0.1,0.1-0.1,0.1-0.2s0-0.2,0-0.3c0-0.1,0-0.3,0-0.3c0-0.1-0.1-0.2-0.1-0.2c0-0.1-0.1-0.1-0.2-0.1
		c-0.1,0-0.1,0-0.2,0s-0.1,0-0.2,0s-0.1,0.1-0.2,0.1c0,0.1-0.1,0.1-0.1,0.2s0,0.2,0,0.4c0,0.1,0,0.2,0,0.3c0,0.1,0.1,0.2,0.1,0.2
		c0,0.1,0.1,0.1,0.2,0.1c0.1,0,0.1,0,0.2,0c0.1,0,0.1,0,0.2,0C147.8,70.7,147.9,70.6,147.9,70.6z"/>
	<path class="st8" d="M151.7,70.9c0,0.2,0,0.4-0.1,0.6c-0.1,0.1-0.2,0.3-0.3,0.4s-0.3,0.1-0.4,0.2c-0.2,0-0.3,0.1-0.6,0.1
		c-0.2,0-0.3,0-0.5,0s-0.3,0-0.4-0.1v-0.6h0.1c0.1,0,0.2,0.1,0.3,0.1s0.3,0,0.4,0c0.1,0,0.3,0,0.3,0c0.1,0,0.2-0.1,0.2-0.1
		s0.1-0.1,0.1-0.2s0-0.2,0-0.2l0,0c-0.1,0.1-0.2,0.1-0.3,0.2c-0.1,0-0.2,0.1-0.4,0.1c-0.3,0-0.6-0.1-0.8-0.3
		c-0.2-0.2-0.3-0.5-0.3-0.9c0-0.2,0-0.4,0.1-0.5s0.1-0.3,0.2-0.4c0.1-0.1,0.2-0.2,0.3-0.2c0.1-0.1,0.3-0.1,0.4-0.1
		c0.1,0,0.2,0,0.4,0c0.1,0,0.2,0.1,0.3,0.1V69h0.7v1.9H151.7z M151,70.4v-1.1c0,0-0.1,0-0.2,0c-0.1,0-0.1,0-0.2,0
		c-0.2,0-0.4,0.1-0.5,0.2S150,69.7,150,70c0,0.2,0,0.4,0.1,0.5s0.2,0.1,0.4,0.1c0.1,0,0.2,0,0.2,0S150.9,70.5,151,70.4z"/>
	<path class="st8" d="M154.2,69.5L154.2,69.5c-0.1,0-0.2,0-0.2,0s-0.1,0-0.2,0c-0.1,0-0.2,0-0.3,0s-0.2,0-0.3,0.1v1.6h-0.8v-2.3h0.8
		v0.3c0.2-0.1,0.3-0.2,0.4-0.3c0.1,0,0.2-0.1,0.3-0.1h0.1h0.1L154.2,69.5L154.2,69.5z"/>
	<path class="st8" d="M156.1,70.9c0,0-0.1,0.1-0.2,0.1c-0.1,0-0.1,0.1-0.2,0.1c-0.1,0-0.2,0.1-0.2,0.1c-0.1,0-0.2,0-0.3,0
		c-0.2,0-0.4-0.1-0.6-0.2s-0.2-0.3-0.2-0.5s0-0.3,0.1-0.4s0.2-0.2,0.3-0.3c0.1-0.1,0.3-0.1,0.5-0.1s0.4,0,0.7-0.1l0,0
		c0-0.1-0.1-0.2-0.2-0.3c-0.1,0-0.3-0.1-0.5-0.1c-0.1,0-0.3,0-0.4,0.1s-0.2,0.1-0.3,0.1h-0.1v-0.6c0.1,0,0.2,0,0.4-0.1s0.4,0,0.5,0
		c0.4,0,0.8,0.1,0.9,0.2c0.2,0.1,0.3,0.3,0.3,0.6v1.6h-0.8v-0.2H156.1z M156.1,70.6v-0.5c-0.1,0-0.2,0-0.3,0s-0.2,0-0.3,0.1
		c-0.1,0-0.1,0.1-0.2,0.1s-0.1,0.1-0.1,0.2v0.1c0,0,0,0.1,0.1,0.1c0,0,0.1,0,0.1,0.1c0,0,0.1,0,0.2,0c0.1,0,0.2,0,0.2,0
		C156,70.6,156,70.6,156.1,70.6z"/>
	<path class="st8" d="M159.1,68.5L159.1,68.5c-0.1,0-0.1,0-0.2,0s-0.1,0-0.2,0c-0.2,0-0.3,0-0.3,0.1s-0.1,0.2-0.1,0.3l0,0h0.6v0.5
		h-0.6v1.8h-0.8v-1.8h-0.3v-0.5h0.3v-0.1c0-0.3,0.1-0.5,0.2-0.6s0.4-0.2,0.7-0.2c0.1,0,0.2,0,0.3,0s0.2,0,0.2,0v0.5H159.1z"/>
	<path class="st8" d="M161.8,70c0,0.4-0.1,0.7-0.3,0.9c-0.2,0.2-0.6,0.3-1,0.3s-0.7-0.1-1-0.3c-0.2-0.2-0.3-0.5-0.3-0.9
		s0.1-0.7,0.3-0.9c0.2-0.2,0.6-0.3,1-0.3s0.7,0.1,1,0.3C161.7,69.3,161.8,69.6,161.8,70z M160.9,70.6c0-0.1,0.1-0.1,0.1-0.2
		s0-0.2,0-0.3c0-0.1,0-0.3,0-0.3c0-0.1-0.1-0.2-0.1-0.2c0-0.1-0.1-0.1-0.2-0.1c-0.1,0-0.1,0-0.2,0s-0.1,0-0.2,0s-0.1,0.1-0.2,0.1
		c0,0.1-0.1,0.1-0.1,0.2s0,0.2,0,0.4c0,0.1,0,0.2,0,0.3c0,0.1,0.1,0.2,0.1,0.2c0,0.1,0.1,0.1,0.2,0.1c0.1,0,0.1,0,0.2,0
		c0.1,0,0.1,0,0.2,0C160.8,70.7,160.9,70.6,160.9,70.6z"/>
	<path class="st8" d="M166.2,68.7h-1.5v0.6h1.4v0.6h-1.4v1.3h-0.8v-3.1h2.3V68.7z"/>
	<path class="st8" d="M170.1,71.2h-0.8v-2.1l-0.6,1.3h-0.6l-0.6-1.3v2.1h-0.8v-3.1h1l0.7,1.6l0.7-1.6h1L170.1,71.2L170.1,71.2z"/>
	<path class="st8" d="M173.9,69.6c0,0.3-0.1,0.5-0.2,0.8c-0.1,0.2-0.3,0.4-0.5,0.5s-0.3,0.2-0.5,0.2s-0.4,0.1-0.7,0.1h-1.1v-3.1h1.2
		c0.3,0,0.5,0,0.7,0.1c0.2,0,0.3,0.1,0.5,0.2s0.4,0.3,0.5,0.5C173.8,69.1,173.9,69.3,173.9,69.6z M173.1,69.6c0-0.2,0-0.4-0.1-0.5
		s-0.2-0.3-0.4-0.3c-0.1,0-0.2-0.1-0.3-0.1s-0.2,0-0.4,0h-0.2v1.9h0.2c0.2,0,0.3,0,0.4,0s0.2,0,0.3-0.1s0.3-0.2,0.3-0.3
		C173,70,173.1,69.8,173.1,69.6z"/>
	<path class="st8" d="M176,70.1h-1.6v-0.6h1.6V70.1z"/>
	<path class="st8" d="M178.9,71.2h-2.1v-0.5h0.7V69h-0.7v-0.5c0.1,0,0.2,0,0.3,0s0.2,0,0.2-0.1c0.1,0,0.1-0.1,0.2-0.1
		c0-0.1,0.1-0.1,0.1-0.2h0.7v2.6h0.7L178.9,71.2L178.9,71.2z"/>
	<path class="st8" d="M182.2,69.6c0,0.3,0,0.5-0.1,0.7s-0.1,0.4-0.2,0.5c-0.1,0.1-0.2,0.2-0.4,0.3c-0.2,0.1-0.4,0.1-0.6,0.1
		c-0.2,0-0.4,0-0.6-0.1s-0.3-0.2-0.4-0.3c-0.1-0.1-0.2-0.3-0.2-0.5s-0.1-0.4-0.1-0.7c0-0.3,0-0.5,0.1-0.7s0.1-0.4,0.2-0.5
		c0.1-0.1,0.2-0.2,0.4-0.3c0.2-0.1,0.4-0.1,0.6-0.1c0.2,0,0.4,0,0.6,0.1c0.2,0.1,0.3,0.2,0.4,0.3c0.1,0.1,0.2,0.3,0.2,0.5
		S182.2,69.4,182.2,69.6z M181.4,69.6c0-0.4,0-0.6-0.1-0.8c-0.1-0.2-0.2-0.2-0.4-0.2s-0.3,0.1-0.4,0.2c-0.1,0.2-0.1,0.4-0.1,0.8
		s0,0.6,0.1,0.8s0.2,0.2,0.4,0.2s0.3-0.1,0.4-0.2C181.3,70.2,181.4,70,181.4,69.6z"/>
	<path class="st8" d="M185.3,69.6c0,0.3,0,0.5-0.1,0.7s-0.1,0.4-0.2,0.5c-0.1,0.1-0.2,0.2-0.4,0.3c-0.2,0.1-0.4,0.1-0.6,0.1
		c-0.2,0-0.4,0-0.6-0.1s-0.3-0.2-0.4-0.3c-0.1-0.1-0.2-0.3-0.2-0.5s-0.1-0.4-0.1-0.7c0-0.3,0-0.5,0.1-0.7s0.1-0.4,0.2-0.5
		c0.1-0.1,0.2-0.2,0.4-0.3c0.2-0.1,0.4-0.1,0.6-0.1c0.2,0,0.4,0,0.6,0.1c0.2,0.1,0.3,0.2,0.4,0.3c0.1,0.1,0.2,0.3,0.2,0.5
		S185.3,69.4,185.3,69.6z M184.5,69.6c0-0.4,0-0.6-0.1-0.8c-0.1-0.2-0.2-0.2-0.4-0.2s-0.3,0.1-0.4,0.2c-0.1,0.2-0.1,0.4-0.1,0.8
		s0,0.6,0.1,0.8s0.2,0.2,0.4,0.2s0.3-0.1,0.4-0.2C184.4,70.2,184.5,70,184.5,69.6z"/>
	<path class="st8" d="M188.4,69.6c0,0.3,0,0.5-0.1,0.7s-0.1,0.4-0.2,0.5c-0.1,0.1-0.2,0.2-0.4,0.3c-0.2,0.1-0.4,0.1-0.6,0.1
		c-0.2,0-0.4,0-0.6-0.1s-0.3-0.2-0.4-0.3c-0.1-0.1-0.2-0.3-0.2-0.5s-0.1-0.4-0.1-0.7c0-0.3,0-0.5,0.1-0.7s0.1-0.4,0.2-0.5
		c0.1-0.1,0.2-0.2,0.4-0.3c0.2-0.1,0.4-0.1,0.6-0.1c0.2,0,0.4,0,0.6,0.1c0.2,0.1,0.3,0.2,0.4,0.3c0.1,0.1,0.2,0.3,0.2,0.5
		S188.4,69.4,188.4,69.6z M187.6,69.6c0-0.4,0-0.6-0.1-0.8c-0.1-0.2-0.2-0.2-0.4-0.2s-0.3,0.1-0.4,0.2c-0.1,0.2-0.1,0.4-0.1,0.8
		s0,0.6,0.1,0.8s0.2,0.2,0.4,0.2s0.3-0.1,0.4-0.2C187.5,70.2,187.6,70,187.6,69.6z"/>
</g>
<g>
	<path class="st8" d="M53.5,66.2c0,0.3-0.1,0.6-0.4,0.7c-0.3,0.2-0.6,0.3-1.1,0.3c-0.3,0-0.5,0-0.7-0.1S51,67,50.8,67v-0.7h0.1
		c0.2,0.1,0.4,0.2,0.6,0.3c0.2,0.1,0.4,0.1,0.6,0.1c0,0,0.1,0,0.2,0s0.1,0,0.2,0c0.1,0,0.1-0.1,0.2-0.1c0,0,0.1-0.1,0.1-0.2
		s0-0.1-0.1-0.2c-0.1,0-0.1-0.1-0.3-0.1C52.2,66,52.1,66,52,66s-0.3-0.1-0.4-0.1c-0.3-0.1-0.5-0.2-0.6-0.3s-0.2-0.3-0.2-0.5
		c0-0.3,0.1-0.5,0.4-0.7c0.3-0.2,0.6-0.3,1-0.3c0.2,0,0.4,0,0.6,0.1c0.2,0,0.4,0.1,0.5,0.1V65h-0.1c-0.1-0.1-0.3-0.2-0.5-0.3
		c-0.2-0.1-0.4-0.1-0.6-0.1c-0.1,0-0.1,0-0.2,0c-0.1,0-0.1,0-0.2,0.1c-0.1,0-0.1,0.1-0.1,0.1l-0.1,0.1c0,0.1,0,0.1,0.1,0.2
		c0.1,0,0.2,0.1,0.4,0.1c0.1,0,0.2,0,0.3,0.1s0.2,0.1,0.3,0.1c0.2,0.1,0.4,0.2,0.5,0.3S53.5,66,53.5,66.2z"/>
	<path class="st8" d="M56.4,65.5v1.7h-0.8V66c0-0.1,0-0.2,0-0.3s0-0.1,0-0.2s-0.1-0.1-0.1-0.1c-0.1,0-0.1,0-0.2,0
		c-0.1,0-0.1,0-0.2,0c-0.1,0-0.1,0.1-0.2,0.1v1.7H54v-2.3h0.8v0.3c0.1-0.1,0.3-0.2,0.4-0.2c0.1-0.1,0.3-0.1,0.4-0.1
		c0.2,0,0.3,0,0.4,0.1c0.1,0.1,0.2,0.2,0.3,0.3c0.2-0.1,0.3-0.2,0.4-0.3c0.1-0.1,0.3-0.1,0.4-0.1c0.3,0,0.5,0.1,0.6,0.2
		c0.1,0.2,0.2,0.4,0.2,0.7v1.5h-0.8V66c0-0.1,0-0.2,0-0.3s0-0.1,0-0.2L57,65.4c-0.1,0-0.1,0-0.2,0c-0.1,0-0.1,0-0.2,0
		S56.5,65.4,56.4,65.5z"/>
	<path class="st8" d="M60.1,66.9c0,0-0.1,0.1-0.2,0.1c-0.1,0-0.1,0.1-0.2,0.1c-0.1,0-0.2,0.1-0.2,0.1c-0.1,0-0.2,0-0.3,0
		c-0.2,0-0.4-0.1-0.6-0.2s-0.2-0.3-0.2-0.5s0-0.3,0.1-0.4s0.2-0.2,0.3-0.3c0.1-0.1,0.3-0.1,0.5-0.1s0.4,0,0.7-0.1l0,0
		c0-0.1-0.1-0.2-0.2-0.3c-0.1,0-0.3-0.1-0.5-0.1c-0.1,0-0.3,0-0.4,0.1s-0.2,0.1-0.3,0.1h-0.1v-0.6c0.1,0,0.2,0,0.4-0.1s0.4,0,0.5,0
		c0.4,0,0.8,0.1,0.9,0.2c0.2,0.1,0.3,0.3,0.3,0.6v1.6h-0.8v-0.2H60.1z M60.1,66.5V66c-0.1,0-0.2,0-0.3,0s-0.2,0-0.3,0.1
		c-0.1,0-0.1,0.1-0.2,0.1s-0.1,0.1-0.1,0.2v0.1c0,0,0,0.1,0.1,0.1c0,0,0.1,0,0.1,0.1c0,0,0.1,0,0.2,0c0.1,0,0.2,0,0.2,0
		C60,66.6,60.1,66.6,60.1,66.5z"/>
	<path class="st8" d="M63.3,65.5L63.3,65.5c-0.1,0-0.2,0-0.2,0s-0.1,0-0.2,0c-0.1,0-0.2,0-0.3,0s-0.2,0-0.3,0.1v1.6h-0.8v-2.3h0.8
		v0.3c0.2-0.1,0.3-0.2,0.4-0.3c0.1,0,0.2-0.1,0.3-0.1h0.1h0.1v0.7H63.3z"/>
	<path class="st8" d="M65.3,67.1c-0.1,0-0.2,0-0.3,0s-0.2,0-0.3,0c-0.3,0-0.5-0.1-0.7-0.2c-0.1-0.1-0.2-0.3-0.2-0.6v-1.1h-0.3v-0.5
		h0.3V64h0.8v0.7h0.7v0.5h-0.7V66c0,0.1,0,0.2,0,0.2c0,0.1,0,0.1,0,0.2l0.1,0.1c0.1,0,0.1,0,0.2,0c0,0,0.1,0,0.2,0s0.1,0,0.1,0h0.1
		L65.3,67.1L65.3,67.1z"/>
	<path class="st8" d="M67.2,67.2c-0.2,0-0.5,0-0.7-0.1s-0.4-0.2-0.5-0.3c-0.1-0.1-0.3-0.3-0.3-0.5s-0.1-0.4-0.1-0.7
		c0-0.2,0-0.5,0.1-0.7s0.2-0.4,0.3-0.5c0.1-0.1,0.3-0.2,0.5-0.3C66.8,64,67,64,67.2,64c0.1,0,0.3,0,0.4,0s0.2,0,0.3,0.1
		c0.1,0,0.2,0.1,0.3,0.1c0.1,0,0.1,0.1,0.2,0.1V65h-0.1l-0.1-0.1c-0.1,0-0.1-0.1-0.2-0.1s-0.2-0.1-0.3-0.1c-0.1,0-0.2,0-0.3,0
		c-0.1,0-0.2,0-0.3,0.1c-0.1,0-0.2,0.1-0.3,0.2c-0.1,0.1-0.2,0.2-0.2,0.3s-0.1,0.3-0.1,0.5s0,0.4,0.1,0.5s0.1,0.2,0.2,0.3
		c0.1,0.1,0.2,0.1,0.3,0.2c0.1,0,0.2,0,0.3,0c0.1,0,0.2,0,0.3,0s0.2-0.1,0.3-0.1c0.1,0,0.1-0.1,0.2-0.1s0.1-0.1,0.1-0.1h0.1v0.7
		c-0.1,0-0.2,0.1-0.2,0.1c-0.1,0-0.1,0.1-0.2,0.1s-0.2,0.1-0.3,0.1C67.5,67.2,67.4,67.2,67.2,67.2z"/>
	<path class="st8" d="M70.4,66.9c0,0-0.1,0.1-0.2,0.1s-0.1,0.1-0.2,0.1s-0.2,0.1-0.2,0.1c-0.1,0-0.2,0-0.3,0c-0.2,0-0.4-0.1-0.6-0.2
		s-0.2-0.3-0.2-0.5s0-0.3,0.1-0.4s0.2-0.2,0.3-0.3c0.1-0.1,0.3-0.1,0.5-0.1s0.4,0,0.7-0.1l0,0c0-0.1-0.1-0.2-0.2-0.3
		c-0.1,0-0.3-0.1-0.5-0.1c-0.1,0-0.3,0-0.4,0.1s-0.2,0.1-0.3,0.1h-0.1v-0.6c0.1,0,0.2,0,0.4-0.1s0.4,0,0.5,0c0.4,0,0.8,0.1,0.9,0.2
		c0.2,0.1,0.3,0.3,0.3,0.6v1.6h-0.8v-0.2H70.4z M70.4,66.5V66c-0.1,0-0.2,0-0.3,0c-0.1,0-0.2,0-0.3,0.1c-0.1,0-0.1,0.1-0.2,0.1
		s-0.1,0.1-0.1,0.2v0.1c0,0,0,0.1,0.1,0.1c0,0,0.1,0,0.1,0.1c0,0,0.1,0,0.2,0s0.2,0,0.2,0C70.2,66.6,70.3,66.6,70.4,66.5z"/>
	<path class="st8" d="M73.6,65.5L73.6,65.5c-0.1,0-0.2,0-0.2,0s-0.1,0-0.2,0s-0.2,0-0.3,0c-0.1,0-0.2,0-0.3,0.1v1.6h-0.8v-2.3h0.8
		v0.3c0.2-0.1,0.3-0.2,0.4-0.3c0.1,0,0.2-0.1,0.3-0.1h0.1h0.1L73.6,65.5L73.6,65.5z"/>
	<path class="st8" d="M76.3,67.2h-0.8V67c-0.1,0.1-0.3,0.2-0.4,0.2s-0.2,0.1-0.4,0.1c-0.3,0-0.5-0.1-0.7-0.3
		c-0.2-0.2-0.3-0.5-0.3-0.9c0-0.2,0-0.4,0.1-0.5c0.1-0.2,0.1-0.3,0.2-0.4s0.2-0.2,0.4-0.2c0.1-0.1,0.3-0.1,0.4-0.1s0.3,0,0.4,0
		s0.2,0.1,0.3,0.1v-1h0.8V67.2z M75.5,66.5v-1.1c-0.1,0-0.1,0-0.2,0s-0.1,0-0.2,0c-0.2,0-0.4,0.1-0.5,0.2s-0.2,0.3-0.2,0.5
		s0,0.4,0.1,0.5s0.2,0.2,0.4,0.2c0.1,0,0.1,0,0.2,0S75.5,66.6,75.5,66.5z"/>
</g>
<g>
	<path class="st8" d="M104.4,77.8c0,0.3-0.1,0.6-0.4,0.7c-0.3,0.2-0.6,0.3-1.1,0.3c-0.3,0-0.5,0-0.7-0.1s-0.4-0.1-0.5-0.2v-0.7h0.1
		c0.2,0.1,0.4,0.2,0.6,0.3c0.2,0.1,0.4,0.1,0.6,0.1c0,0,0.1,0,0.2,0s0.1,0,0.2,0s0.1-0.1,0.2-0.1c0,0,0.1-0.1,0.1-0.2s0-0.1-0.1-0.2
		c-0.1,0-0.1-0.1-0.3-0.1c-0.1,0-0.2-0.1-0.4-0.1c-0.1,0-0.3-0.1-0.4-0.1c-0.3-0.1-0.5-0.2-0.6-0.3s-0.2-0.3-0.2-0.5
		c0-0.3,0.1-0.5,0.4-0.7s0.6-0.3,1-0.3c0.2,0,0.4,0,0.6,0.1c0.2,0,0.4,0.1,0.5,0.1v0.7h-0.1c-0.1-0.1-0.3-0.2-0.5-0.3
		c-0.2-0.1-0.4-0.1-0.6-0.1c-0.1,0-0.1,0-0.2,0s-0.1,0-0.2,0.1c-0.1,0-0.1,0.1-0.1,0.1l-0.1,0.1c0,0.1,0,0.1,0.1,0.2
		c0.1,0,0.2,0.1,0.4,0.1c0.1,0,0.2,0,0.3,0.1s0.2,0.1,0.3,0.1c0.2,0.1,0.4,0.2,0.5,0.3S104.4,77.6,104.4,77.8z"/>
	<path class="st8" d="M108,77.2c0,0.3-0.1,0.5-0.2,0.8c-0.1,0.2-0.3,0.4-0.5,0.5s-0.3,0.2-0.5,0.2s-0.4,0.1-0.7,0.1H105v-3.1h1.2
		c0.3,0,0.5,0,0.7,0.1c0.2,0,0.3,0.1,0.5,0.2s0.4,0.3,0.5,0.5C107.9,76.6,108,76.9,108,77.2z M107.1,77.2c0-0.2,0-0.4-0.1-0.5
		s-0.2-0.3-0.4-0.3c-0.1,0-0.2-0.1-0.3-0.1s-0.2,0-0.4,0h-0.2v1.9h0.2c0.2,0,0.3,0,0.4,0s0.2,0,0.3-0.1c0.1-0.1,0.3-0.2,0.3-0.3
		C107.1,77.6,107.1,77.4,107.1,77.2z"/>
	<path class="st8" d="M111.5,78.8c-0.2,0-0.5,0-0.7-0.1s-0.4-0.2-0.5-0.3c-0.1-0.1-0.3-0.3-0.3-0.5s-0.1-0.4-0.1-0.7
		c0-0.2,0-0.5,0.1-0.7s0.2-0.4,0.3-0.5c0.1-0.1,0.3-0.2,0.5-0.3c0.2-0.1,0.4-0.1,0.7-0.1c0.1,0,0.3,0,0.4,0s0.2,0,0.3,0.1
		c0.1,0,0.2,0.1,0.3,0.1c0.1,0,0.1,0.1,0.2,0.1v0.8h-0.1l-0.1-0.1c-0.1,0-0.1-0.1-0.2-0.1s-0.2-0.1-0.3-0.1c-0.1,0-0.2,0-0.3,0
		c-0.1,0-0.2,0-0.3,0.1c-0.1,0-0.2,0.1-0.3,0.2c-0.1,0.1-0.2,0.2-0.2,0.3s-0.1,0.3-0.1,0.5s0,0.4,0.1,0.5s0.1,0.2,0.2,0.3
		c0.1,0.1,0.2,0.1,0.3,0.2c0.1,0,0.2,0,0.3,0c0.1,0,0.2,0,0.3,0s0.2-0.1,0.3-0.1c0.1,0,0.1-0.1,0.2-0.1s0.1-0.1,0.1-0.1h0.1v0.7
		c-0.1,0-0.2,0.1-0.2,0.1c-0.1,0-0.1,0.1-0.2,0.1s-0.2,0.1-0.3,0.1C111.8,78.8,111.7,78.8,111.5,78.8z"/>
	<path class="st8" d="M114.7,78.5c0,0-0.1,0.1-0.2,0.1s-0.1,0.1-0.2,0.1s-0.2,0.1-0.2,0.1c-0.1,0-0.2,0-0.3,0
		c-0.2,0-0.4-0.1-0.6-0.2s-0.2-0.3-0.2-0.5s0-0.3,0.1-0.4s0.2-0.2,0.3-0.3c0.1-0.1,0.3-0.1,0.5-0.1s0.4,0,0.7-0.1l0,0
		c0-0.1-0.1-0.2-0.2-0.3c-0.1,0-0.3-0.1-0.5-0.1c-0.1,0-0.3,0-0.4,0.1s-0.2,0.1-0.3,0.1h-0.1v-0.6c0.1,0,0.2,0,0.4-0.1s0.4,0,0.5,0
		c0.4,0,0.8,0.1,0.9,0.2c0.2,0.1,0.3,0.3,0.3,0.6v1.6h-0.8v-0.2H114.7z M114.7,78.1v-0.5c-0.1,0-0.2,0-0.3,0c-0.1,0-0.2,0-0.3,0.1
		c-0.1,0-0.1,0.1-0.2,0.1s-0.1,0.1-0.1,0.2v0.1c0,0,0,0.1,0.1,0.1c0,0,0.1,0,0.1,0.1c0,0,0.1,0,0.2,0s0.2,0,0.2,0
		C114.5,78.2,114.6,78.2,114.7,78.1z"/>
	<path class="st8" d="M117.9,77.1L117.9,77.1c-0.1,0-0.2,0-0.2,0s-0.1,0-0.2,0s-0.2,0-0.3,0c-0.1,0-0.2,0-0.3,0.1v1.6h-0.8v-2.3h0.8
		v0.3c0.2-0.1,0.3-0.2,0.4-0.3c0.1,0,0.2-0.1,0.3-0.1h0.1h0.1L117.9,77.1L117.9,77.1z"/>
	<path class="st8" d="M120.6,78.7h-0.8v-0.2c-0.1,0.1-0.3,0.2-0.4,0.2s-0.2,0.1-0.4,0.1c-0.3,0-0.5-0.1-0.7-0.3
		c-0.2-0.2-0.3-0.5-0.3-0.9c0-0.2,0-0.4,0.1-0.5c0.1-0.2,0.1-0.3,0.2-0.4s0.2-0.2,0.4-0.2c0.1-0.1,0.3-0.1,0.4-0.1s0.3,0,0.4,0
		s0.2,0.1,0.3,0.1v-1h0.8V78.7z M119.9,78.1V77c-0.1,0-0.1,0-0.2,0s-0.1,0-0.2,0c-0.2,0-0.4,0.1-0.5,0.2s-0.2,0.3-0.2,0.5
		s0,0.4,0.1,0.5s0.2,0.2,0.4,0.2c0.1,0,0.1,0,0.2,0S119.8,78.1,119.9,78.1z"/>
</g>
<g>
	<ellipse class="st7" cx="111.2" cy="65.5" rx="8" ry="7.8"/>
</g>
<g>
	<g>
		<path class="st8" d="M156.7,48.8c1.7-0.9,3.7-1.4,3.2-4c-0.2-0.7,0.3-1.1,0.7-1.5c0.9-0.4,1.7-1,2.7-0.3c0.6,0.4,0.9,1,1.5,1.4
			c0.1,0.1,0.3,0.1,0.4,0.2c0.1,0,0.2,0,0.2,0.1c0.1,0,0.2,0,0.2,0c0.2,0,0.4-0.1,0.5-0.1c0.2,0,0.4,0,0.6,0
			c0.2,0.1,0.4,0.2,0.6,0.3c0.8,1.8,2.5,3,3.5,4.6c-0.1,0.4-0.3,0.6-0.8,0.4c-4.4-1.6-8.9-2.2-13.5-0.3
			C156.5,49.2,156.5,49,156.7,48.8z"/>
	</g>
	<g>
		<path class="st8" d="M159.4,39.5c0.4-2,2.5-2.3,3.8-3.4c0.3-0.3,0.8,0.2,0.9,0.7c-0.2,0.9,0.5,1.3,1.1,1.8c0.6,0.1,1.1,0.4,1.4,1
			c-0.1,0.7-0.7,1-1.2,1.5c-0.4,0.4-1,0.5-1.5,0.6c-0.9,0.2-1.8-0.2-2.7-0.2c-0.6-0.1-1-0.5-1.4-0.9C159.5,40.3,159.1,40,159.4,39.5
			z"/>
	</g>
	<g>
		<path class="st8" d="M148.3,44.1c2.1,1.4,3.8,3,5.3,5c-2.3-1.1-4-2.9-5.8-4.6C147.7,44.1,147.9,44,148.3,44.1z"/>
	</g>
	<g>
		<path class="st8" d="M170.2,45.9c0-1.1,0.1-2.2,0.9-3c0.5,0.3,0.3,0.8,0.4,1.2c-1,2.2,0.9,2.9,2,4.1c-0.2,0.2-0.4,0.3-0.5,0.5
			c-0.6,0.4-1,0-1.3-0.4c-0.2-0.1-0.4-0.3-0.6-0.4C170.9,47.3,170.2,46.8,170.2,45.9z"/>
	</g>
	<g>
		<path class="st8" d="M166,41c0.7,0.6-0.9,1.3,0,1.9c0.1,0.4,0,0.7-0.3,1c-0.9,0.7-1.6,0.3-2.2-0.4c-0.4-0.6-0.2-1.1,0.2-1.6
			c0.4-0.4,1-0.6,1.4-0.9C165.4,40.7,165.7,40.7,166,41z"/>
	</g>
	<g>
		<path class="st8" d="M165.2,38.6c-0.6-0.1-1.4,0.8-1.7-0.3c-0.2-0.5-0.5-1.4,0.6-1.5C164.3,37.5,165.9,37.4,165.2,38.6z"/>
	</g>
	<g>
		<path class="st8" d="M159.4,39.5c0.4,0.2,0.7,0.5,1.1,0.7c0.2,0.6,0.2,1.3-0.1,1.9c-0.1,0.2-0.3,0.3-0.5,0.4
			c-0.3,0.1-0.6,0.1-1,0.1c-0.4-0.1-0.8-0.2-0.9-0.7C158.5,41.1,158.9,40.3,159.4,39.5z"/>
	</g>
	<g>
		<path class="st8" d="M159,42.1c0.2-0.1,0.4-0.2,0.6-0.2c0.5,0.2,1.3-0.2,1.6,0.5c0.2,0.6-0.1,1-0.4,1.4c-0.3,0.3-0.7,0.6-1,0.9
			c-0.3-0.6-0.6-1.3-0.8-1.9C158.7,42.6,158.7,42.4,159,42.1z"/>
	</g>
	<g>
		<path class="st8" d="M162.8,50.9c-0.5-0.1-0.8-0.5-0.8-0.9c0-0.5,0.2-0.9,0.8-0.8c0.6,0.1,0.7,0.5,0.6,1
			C163.3,50.5,163.4,50.9,162.8,50.9z"/>
	</g>
	<g>
		<path class="st8" d="M147.1,43.1c1.2-0.6,2.4-0.3,3.5,0c0,0.4-0.4,0.3-0.6,0.5c-0.6,0-1.3,0-1.9,0.1
			C147.6,43.9,147.4,43.6,147.1,43.1z"/>
	</g>
	<g>
		<path class="st8" d="M150.1,43.6c0.2-0.2,0.4-0.3,0.6-0.5c1,0.1,2-0.2,3.1,0.9C152.4,43.9,151.2,43.8,150.1,43.6z"/>
	</g>
	<g>
		<path class="st8" d="M166,41c-0.3,0-0.6,0-0.9-0.1c-0.2-0.1-0.2-0.2-0.2-0.2c0.1-0.1,0.1-0.1,0.2-0.1c0.5-0.3,0.9-0.6,1.4-1
			C167.4,40.4,166.5,40.6,166,41z"/>
	</g>
	<g>
		<path class="st8" d="M159,42.1c0,0.2,0,0.5,0,0.7c-0.8,0-1.6,0-2.6,0c0.3-0.9,1.2-0.5,1.6-1C158.3,41.9,158.6,42,159,42.1z"/>
	</g>
	<g>
		<path class="st8" d="M165.5,43.2c0.1-0.1,0.3-0.3,0.4-0.4c0.3,0.1,0.6,0.3,1,0.4c0,0.6,0.4,1.2,0,1.8h-0.2h-0.2
			C165.5,44.8,165.1,44.3,165.5,43.2z"/>
	</g>
	<g>
		<path class="st8" d="M171.8,48.3c0.4,0.1,0.9,0.3,1.3,0.4c0.3,0.3,0.6,0.5,0.5,1c-0.5,0.5-1,0.4-1.6,0c-0.2-0.1-0.3-0.3-0.4-0.5
			C171.6,48.9,171.7,48.6,171.8,48.3z"/>
	</g>
	<g>
		<path class="st8" d="M172.6,41.4c0.2-0.8,0.3-1.7,0.5-2.5c0.3,0.4,0.6,0.7,0.8,1.1C173.7,40.7,173.4,41.3,172.6,41.4z"/>
	</g>
	<g>
		<path class="st8" d="M171.6,49.2c0.2,0.1,0.5,0.1,0.7,0.2c0.2,0.4,0.3,0.8-0.3,1.1c-0.6-0.3-1.4-0.1-1.8-0.7
			c0.2-0.1,0.3-0.3,0.5-0.4C171,49.2,171.3,49.2,171.6,49.2z"/>
	</g>
	<g>
		<path class="st8" d="M156.7,48.8c0,0.2,0,0.4,0,0.6c-0.7,0.3-1.3,0.7-2.2,0.5C155,49.1,155.9,49,156.7,48.8z"/>
	</g>
	<g>
		<path class="st8" d="M174,38.3c-0.2-0.3-0.4-0.7-0.6-1c0.3-0.6,1-0.7,1.3-0.3C174.9,37.4,174.5,38,174,38.3z"/>
	</g>
	<g>
		<path class="st8" d="M172,50.4c0.1-0.4,0.2-0.7,0.3-1.1c0.4,0.1,0.9,0.2,1.3,0.3C173.3,50.5,172.6,50.4,172,50.4z"/>
	</g>
	<g>
		<path class="st8" d="M147.1,43.1c0.4,0.2,0.7,0.4,1.1,0.6c0,0.1,0,0.3,0,0.4c-0.2,0.1-0.3,0.3-0.5,0.4
			C147.4,44.1,146.5,44,147.1,43.1z"/>
	</g>
	<g>
		<path class="st8" d="M171.6,44.1c-0.1-0.4-0.3-0.8-0.4-1.2c0.2-0.7,0.6-1.3,1.4-1.5C172.5,42.4,172.1,43.3,171.6,44.1z"/>
	</g>
	<g>
		<path class="st8" d="M160.8,43.8c-0.1-0.4-0.7-0.7,0-1.1c0.2-0.2,0.3-0.4,0.3-0.6c0-0.3,0-0.6,0.1-0.9c0-0.1,0-0.2,0.1-0.2
			c0.8-1,1.5,0.2,2.2,0c0.3,0.2,0.5,0.5,0.6,0.9c-0.2,0.5-0.3,0.9-0.5,1.4c0,0.3-0.2,0.5-0.5,0.5C162.4,43,161.6,43.7,160.8,43.8z"
			/>
	</g>
	<g>
		<path class="st8" d="M163.2,43.7c0.2-0.2,0.3-0.3,0.5-0.5c0.6,0.7,1.2,0,1.9,0c0.5,0.5,1,1,1,1.9c0,0.1-0.1,0.2-0.1,0.4
			c-0.7,0.4-1.5,0.8-2.2,0.1C164.2,44.7,163.3,44.5,163.2,43.7z"/>
	</g>
	<g>
		<path class="st8" d="M164.2,45.5c0.7,0,1.5,0,2.2-0.1c-0.6,0.8-1.2,1.5-2.3,0.9c-0.1-0.1-0.2-0.3-0.2-0.4c0-0.2,0-0.3,0.1-0.5
			C164.1,45.5,164.1,45.5,164.2,45.5z"/>
	</g>
	<g>
		<path class="st8" d="M164,45.5c0,0.2,0.1,0.3,0.1,0.5c-0.2,0.1-0.3,0.1-0.4,0C163.8,45.9,163.9,45.7,164,45.5z"/>
	</g>
	<g>
		<path class="st8" d="M163.7,46c0.1,0,0.3,0,0.4,0c0,0.1,0,0.2,0,0.3C163.8,46.4,163.7,46.3,163.7,46z"/>
	</g>
	<g>
		<path class="st8" d="M170.2,45.9c0.3,0.7,0.6,1.3,1,2C170.5,47.4,169.3,47.2,170.2,45.9z"/>
	</g>
	<g>
		<path class="st8" d="M159.9,41.9c-0.4-0.7,0.4-1.1,0.6-1.6c0.3,0.3,0.6,0.5,0.9,0.8l0,0c0.2,0.5-0.1,0.9-0.5,1.1
			C160.5,42.1,160.2,42.1,159.9,41.9z"/>
	</g>
	<g>
		<path class="st8" d="M164.2,41.9c-0.2-0.3-0.4-0.6-0.6-0.9c0.5-0.2,1-0.3,1.5-0.5c0,0.1,0,0.2,0,0.4
			C164.8,41.2,164.5,41.5,164.2,41.9z"/>
	</g>
	<g>
		<path class="st8" d="M159.9,41.9c0.3,0,0.7,0,1,0c0.7-0.1,0.9,0.3,1,0.9c-0.4,0-0.7,0-1.1,0.1c-0.1-0.8-1.1-0.2-1.3-0.9
			C159.7,41.9,159.8,41.9,159.9,41.9z"/>
	</g>
	<g>
		<path class="st8" d="M161.9,42.7c-0.2-0.4-0.5-0.8-1-0.9c0.1-0.3,0.3-0.6,0.4-0.9C161.7,41.5,162.2,42,161.9,42.7z"/>
	</g>
</g>
<linearGradient id="SVGID_4_" gradientUnits="userSpaceOnUse" x1="163.9329" y1="93.4315" x2="163.9329" y2="73.9315" gradientTransform="matrix(1 0 0 -1 0 101.8898)">
	<stop  offset="2.061856e-02" style="stop-color:#D9D9D9"/>
	<stop  offset="0.5722" style="stop-color:#FFFFFF"/>
	<stop  offset="1" style="stop-color:#868686"/>
</linearGradient>
<path class="st10" d="M128,27.9h69c0,0,10.5-8.1,0-19.5h-70.8C126.1,8.5,135.5,17.5,128,27.9z"/>
<circle class="st11" cx="111.3" cy="37.4" r="8.2"/>
<line class="st12" x1="96.9" y1="23" x2="125.7" y2="51.9"/>
<line class="st12" x1="96.9" y1="51.9" x2="125.7" y2="23"/>
<circle class="st7" cx="111.3" cy="37.4" r="3.8"/>
</svg>
