<?xml version="1.0" encoding="utf-8"?>
<!-- Generator: Adobe Illustrator 23.0.0, SVG Export Plug-In . SVG Version: 6.00 Build 0)  -->
<svg version="1.1" id="Capa_1" xmlns="http://www.w3.org/2000/svg" xmlns:xlink="http://www.w3.org/1999/xlink" x="0px" y="0px"
	 viewBox="0 0 207.8 100.9" style="enable-background:new 0 0 207.8 100.9;" xml:space="preserve">
<style type="text/css">
	.st0{fill:#065F85;}
	.st1{fill:#FFFFFF;}
</style>
<path class="st0" d="M196.3,87.9H11.5C5.2,87.9,0,82.8,0,76.4V29.9c0-6.3,5.1-11.5,11.5-11.5h184.8c6.3,0,11.5,5.1,11.5,11.5v46.5
	C207.7,82.7,202.6,87.9,196.3,87.9z"/>
<g>
	<path class="st1" d="M63.9,34.1H16.6c-1.5,0-2.8,1.2-2.8,2.8v32.5c0,1.5,1.2,2.8,2.8,2.8h47.3c1.5,0,2.8-1.2,2.8-2.8V36.9
		C66.7,35.3,65.5,34.1,63.9,34.1z M35.1,71c-0.8,0-1.4-0.6-1.4-1.4s0.6-1.4,1.4-1.4s1.4,0.6,1.4,1.4S35.9,71,35.1,71z M40.3,71
		c-0.8,0-1.4-0.6-1.4-1.4s0.6-1.4,1.4-1.4s1.4,0.6,1.4,1.4S41.1,71,40.3,71z M45.5,71c-0.8,0-1.4-0.6-1.4-1.4s0.6-1.4,1.4-1.4
		s1.4,0.6,1.4,1.4S46.2,71,45.5,71z M61.9,67.2H18.7V39.1h43.2V67.2z"/>
	<path class="st1" d="M35.8,52.5c0-0.6-0.4-0.8-0.9-0.4l-9.3,7.4c-0.5,0.4-0.4,0.7,0.2,0.7l6-0.3l3.8,4.7c0.4,0.5,0.7,0.4,0.7-0.2
		L35.8,52.5z"/>
	<path class="st1" d="M51.4,42.5c-3.8,0-6.9,3.1-6.9,6.9c0,5.4,5.4,9.4,6.7,14.6c0.1,0.5,0.2,1,0.2,1v0.1V65v0.1v-0.2
		c0.8-5.7,6.9-9.8,6.9-15.6C58.3,45.5,55.2,42.5,51.4,42.5z M51.4,54.3c-2.8,0-5-2.2-5-5s2.2-5,5-5s5,2.2,5,5S54.1,54.3,51.4,54.3z"
		/>
</g>
<g>
	<path class="st1" d="M95.8,60.2c-0.5,0.4-1.2,0.7-2.1,1c-0.9,0.3-1.8,0.4-2.6,0.4c-2.1,0-3.7-0.7-4.8-2s-1.7-3.3-1.7-5.9
		c0-2.4,0.6-4.3,1.7-5.7c1.1-1.4,2.6-2.1,4.6-2.1c1.6,0,3.1,0.5,4.5,1.4v2h-0.2c-1.4-1.1-2.8-1.6-4.3-1.6c-1.3,0-2.3,0.5-3.1,1.6
		c-0.7,1.1-1.1,2.5-1.1,4.5c0,2.2,0.3,3.8,1,4.8s1.7,1.5,3.1,1.5c1.2,0,2.2-0.3,3.1-0.9v-3.8h-3.2v-1.6h5v6.4H95.8z"/>
	<path class="st1" d="M100.1,55.7v5.7h-2V46.1h3.4c1.7,0,3,0.4,3.9,1.2s1.4,1.9,1.4,3.4s-0.5,2.7-1.5,3.6c-1,0.9-2.3,1.3-4,1.3h-1.2
		V55.7z M100.1,47.8V54h1c2.5,0,3.7-1.1,3.7-3.2c0-2-1.2-3-3.6-3H100.1z"/>
	<path class="st1" d="M119.8,61.4h-2.4l-4.5-6.2h-2v6.2h-2V46.1h4.1c1.5,0,2.6,0.4,3.5,1.1c0.9,0.7,1.3,1.8,1.3,3.1
		c0,2.2-1,3.7-2.9,4.4L119.8,61.4z M111,47.8v5.9h1.5c2.2,0,3.3-1.1,3.3-3.2c0-1.8-1.1-2.7-3.4-2.7H111z"/>
	<path class="st1" d="M120.5,60.4v-2h0.2c1.2,1.1,2.7,1.6,4.5,1.6c2.1,0,3.1-0.9,3.1-2.7c0-0.7-0.2-1.2-0.7-1.5
		c-0.5-0.3-1.4-0.7-2.9-1.2c-1.8-0.5-3-1.2-3.5-1.8c-0.5-0.7-0.8-1.5-0.8-2.5c0-1.3,0.4-2.3,1.3-3.1c0.9-0.8,2-1.2,3.3-1.2
		c1.6,0,3.1,0.4,4.5,1.1V49h-0.2c-1.1-0.9-2.5-1.4-4.2-1.4c-0.9,0-1.6,0.2-2.1,0.7s-0.7,1.1-0.7,1.8s0.2,1.3,0.7,1.6
		c0.4,0.4,1.3,0.7,2.7,1.1c1.2,0.3,2,0.7,2.6,1c0.6,0.3,1,0.7,1.4,1.3c0.3,0.5,0.5,1.2,0.5,2c0,1.4-0.5,2.6-1.4,3.4
		c-0.9,0.8-2.1,1.2-3.6,1.2C123.5,61.6,121.9,61.2,120.5,60.4z"/>
</g>
</svg>
