<?xml version="1.0" encoding="utf-8"?>
<!-- Generator: Adobe Illustrator 23.0.0, SVG Export Plug-In . SVG Version: 6.00 Build 0)  -->
<svg version="1.1" id="Capa_1" xmlns="http://www.w3.org/2000/svg" xmlns:xlink="http://www.w3.org/1999/xlink" x="0px" y="0px"
	 viewBox="0 0 207.8 100.9" style="enable-background:new 0 0 207.8 100.9;" xml:space="preserve">
<style type="text/css">
	.st0{fill:#065F85;}
	.st1{fill:#FFFFFF;}
</style>
<path class="st0" d="M196.3,85.2H11.5C5.2,85.2,0,80.1,0,73.7V27.2c0-6.3,5.1-11.5,11.5-11.5h184.8c6.3,0,11.5,5.1,11.5,11.5v46.5
	C207.8,80.1,202.7,85.2,196.3,85.2z"/>
<g>
	<g>
		<path class="st1" d="M57,58.9c0.7-0.6,0.7-1.8,0-2.4L27,26.4c-0.7-0.7-1.8-0.7-2.4,0c-7.8,9-7.4,22.7,1.2,31.3
			C34.3,66.3,48,66.7,57,58.9z"/>
		<path class="st1" d="M27.8,61.7c-2,0-3.6-1.6-3.6-3.6s1.6-3.6,3.6-3.6s3.6,1.6,3.6,3.6C31.4,60.1,29.8,61.7,27.8,61.7z"/>
		<path class="st1" d="M27.8,68.2c-3.8,0-7,2.7-7.8,6.3c-0.2,0.9,0.6,1.7,1.6,1.7c1.5,0,3.9,0,6.3,0s4.7,0,6.3,0
			c1,0,1.8-0.8,1.6-1.7C34.9,70.9,31.7,68.2,27.8,68.2z"/>
		<path class="st1" d="M27.8,68.2c1.1,0,2.2,0.2,3.2,0.7l-1.5-7.6c-0.5,0.3-1,0.4-1.6,0.4s-1.1-0.2-1.6-0.4l-1.5,7.6
			C25.7,68.5,26.7,68.2,27.8,68.2z"/>
		<path class="st1" d="M47.1,36.3c-1.4-1.4-1.4-3.7,0-5.1s3.7-1.4,5.1,0s1.4,3.7,0,5.1S48.5,37.7,47.1,36.3z"/>
		<path class="st1" d="M47.1,36.3c-0.3-0.3-0.4-0.5-0.6-0.9l-5.8,4.7l2.6,2.6l4.7-5.8C47.7,36.7,47.4,36.5,47.1,36.3z"/>
	</g>
</g>
<g>
	<path class="st1" d="M77,43.6v-2h0.2c1.2,1.1,2.7,1.6,4.5,1.6c2.1,0,3.1-0.9,3.1-2.7c0-0.7-0.2-1.2-0.7-1.5s-1.4-0.7-2.9-1.2
		c-1.8-0.5-3-1.2-3.5-1.8c-0.5-0.7-0.8-1.5-0.8-2.5c0-1.3,0.4-2.3,1.3-3.1c0.9-0.8,2-1.2,3.3-1.2c1.6,0,3.1,0.4,4.5,1.1v1.9h-0.2
		c-1.1-0.9-2.5-1.4-4.2-1.4c-0.9,0-1.6,0.2-2.1,0.7s-0.7,1.1-0.7,1.8s0.2,1.3,0.7,1.6c0.4,0.4,1.3,0.7,2.7,1.1c1.2,0.3,2,0.7,2.6,1
		s1,0.7,1.4,1.3c0.3,0.5,0.5,1.2,0.5,2c0,1.4-0.5,2.6-1.4,3.4c-0.9,0.8-2.1,1.2-3.6,1.2C80,44.8,78.3,44.4,77,43.6z"/>
	<path class="st1" d="M90.1,39.5c0,2.6,1.1,3.8,3.1,3.8c1.2,0,2.3-0.3,3.4-1h0.1V44c-1.2,0.6-2.5,0.9-3.8,0.9
		c-1.5,0-2.7-0.5-3.5-1.5s-1.3-2.3-1.3-4.1s0.4-3.1,1.3-4.2s2-1.6,3.4-1.6c1.2,0,2.3,0.4,3,1.3c0.8,0.9,1.2,2.1,1.2,3.6v1.1H90.1z
		 M95.4,38.2c0-1-0.2-1.7-0.6-2.3c-0.4-0.6-1-0.9-1.8-0.9s-1.4,0.3-1.9,0.8c-0.5,0.6-0.8,1.3-0.8,2.3h5.1V38.2z"/>
	<path class="st1" d="M107.7,43.4c0,3.7-1.7,5.6-5.1,5.6c-1,0-2-0.2-3-0.5v-1.7h0.2c0.8,0.4,1.8,0.7,2.9,0.7c2,0,3-1.1,3-3.3v-0.8
		c-0.9,0.9-2,1.4-3.3,1.4s-2.2-0.5-2.9-1.4s-1-2.3-1-4c0-1.8,0.4-3.2,1.3-4.2c0.8-1,1.9-1.5,3.2-1.5c1,0,1.9,0.3,2.7,0.9l0.2-0.7
		h1.7v9.5H107.7z M105.7,35.9c-0.7-0.5-1.5-0.7-2.2-0.7c-0.9,0-1.6,0.3-2.2,1c-0.5,0.7-0.8,1.7-0.8,3c0,2.6,0.8,3.9,2.5,3.9
		c0.5,0,0.9-0.1,1.3-0.2s0.8-0.5,1.4-1.1V35.9z"/>
	<path class="st1" d="M119,44.6h-1.9v-1.3c-0.9,1-2,1.5-3.4,1.5c-1,0-1.8-0.3-2.4-0.9c-0.6-0.6-0.9-1.6-0.9-2.8v-7.2h1.9v6.7
		c0,1,0.2,1.6,0.5,2.1c0.3,0.4,0.8,0.6,1.6,0.6c1,0,1.9-0.4,2.7-1.3v-8.1h1.9L119,44.6L119,44.6z"/>
	<path class="st1" d="M124.3,31.5h-2.2v-2.2h2.2V31.5z M124.1,44.6h-1.9V33.8h1.9V44.6z"/>
	<path class="st1" d="M135.9,44.6H134V38c0-1.1-0.2-1.8-0.5-2.2s-0.9-0.6-1.6-0.6c-1,0-1.9,0.4-2.6,1.2v8.1h-1.9V33.8h1.9v1.3
		c0.9-1,2-1.6,3.4-1.6c1.5,0,2.5,0.6,3,1.8c0.9-1.2,2.1-1.8,3.5-1.8c2.3,0,3.4,1.3,3.4,3.8v7.2h-1.9v-6.6c0-0.9-0.2-1.6-0.5-2.1
		c-0.3-0.4-0.9-0.7-1.6-0.7c-1,0-1.9,0.4-2.7,1.3c0,0.2,0.1,0.5,0.1,1L135.9,44.6L135.9,44.6z"/>
	<path class="st1" d="M146.6,39.5c0,2.6,1.1,3.8,3.1,3.8c1.2,0,2.3-0.3,3.4-1h0.1V44c-1.2,0.6-2.5,0.9-3.8,0.9
		c-1.5,0-2.7-0.5-3.5-1.5s-1.3-2.3-1.3-4.1s0.4-3.1,1.3-4.2s2-1.6,3.4-1.6c1.2,0,2.3,0.4,3,1.3c0.8,0.9,1.2,2.1,1.2,3.6v1.1H146.6z
		 M151.8,38.2c0-1-0.2-1.7-0.6-2.3c-0.4-0.6-1-0.9-1.8-0.9s-1.4,0.3-1.9,0.8c-0.5,0.6-0.8,1.3-0.8,2.3h5.1V38.2z"/>
	<path class="st1" d="M164.2,44.6h-1.9v-6.7c0-1-0.2-1.7-0.5-2.1c-0.3-0.4-0.8-0.6-1.6-0.6c-1,0-1.9,0.4-2.7,1.2v8.1h-1.9V33.8h1.9
		v1.3c0.9-1,1.9-1.6,3.2-1.6c2.3,0,3.5,1.3,3.5,3.8V44.6z"/>
	<path class="st1" d="M166,35.3v-1.5h1.2v-3.6h1.9v3.6h3.2v1.5h-3.2v5.1c0,1,0.1,1.7,0.3,2.1c0.2,0.4,0.6,0.6,1.3,0.6
		c0.5,0,1-0.1,1.5-0.3h0.1v1.6c-0.6,0.2-1.2,0.3-1.9,0.3c-1.2,0-2-0.3-2.5-0.9c-0.5-0.6-0.8-1.5-0.8-2.7v-5.8
		C167.1,35.3,166,35.3,166,35.3z"/>
	<path class="st1" d="M178,44.8c-1.4,0-2.5-0.5-3.4-1.5c-0.8-1-1.2-2.4-1.2-4.1s0.4-3.1,1.3-4.1c0.8-1,2-1.5,3.3-1.5
		c1.4,0,2.5,0.5,3.4,1.5c0.8,1,1.2,2.4,1.2,4.1c0,1.8-0.4,3.1-1.2,4.1C180.5,44.3,179.4,44.8,178,44.8z M177.9,43.3
		c0.8,0,1.5-0.4,2-1.1c0.5-0.7,0.7-1.7,0.7-3.1c0-1.3-0.2-2.4-0.7-3.1s-1.1-1.1-2-1.1c-0.8,0-1.5,0.4-1.9,1.1
		c-0.5,0.7-0.7,1.7-0.7,3.1c0,1.4,0.2,2.4,0.7,3.1C176.5,43,177.1,43.3,177.9,43.3z"/>
	<path class="st1" d="M86,59l-3.9,10.8h-1.8l-4-10.8h1.9l3,8.4L84,59H86z"/>
	<path class="st1" d="M90,56.7h-2.2v-2.2H90V56.7z M89.9,69.8H88V59h1.9V69.8z"/>
	<path class="st1" d="M99.2,68.7c-0.9,0.9-2.1,1.3-3.6,1.3c-0.9,0-1.7-0.3-2.4-0.9c-0.6-0.6-0.9-1.4-0.9-2.4c0-1.5,0.6-2.5,1.8-3.1
		s2.9-0.9,5.2-1v-0.3c0-0.7-0.2-1.3-0.7-1.7s-1.2-0.6-2-0.6c-0.9,0-1.9,0.2-3,0.7h-0.1V59c1.1-0.4,2.1-0.6,3.2-0.6
		c1.6,0,2.8,0.3,3.5,0.9s1.1,1.6,1.1,3v7.1h-2.1V68.7z M99.2,64.1c-1.7,0.1-2.9,0.3-3.8,0.6c-0.8,0.3-1.2,1-1.2,2c0,1.3,0.7,2,2.2,2
		c1,0,1.9-0.4,2.8-1.2V64.1z"/>
	<path class="st1" d="M117.1,65.7H112l-1.2,4.1h-2.1l4.7-15.3h2.2l5,15.3h-2.2L117.1,65.7z M114.5,57L114.5,57c0,0.1,0,0.1,0,0.2
		l-2.1,7.1h4.4L114.5,57L114.5,57z"/>
	<path class="st1" d="M123.9,69.2V74H122V59h1.9v1.1c1.1-0.9,2.1-1.4,3.1-1.4c1.3,0,2.3,0.5,3,1.4s1,2.3,1,4c0,1.8-0.4,3.2-1.2,4.2
		c-0.8,1.1-1.9,1.6-3.3,1.6C125.6,69.9,124.8,69.7,123.9,69.2z M123.9,61.5v6.4c0.7,0.4,1.4,0.6,2.3,0.6c0.9,0,1.6-0.4,2.2-1.1
		s0.8-1.8,0.8-3.1c0-2.7-0.8-4-2.5-4C125.7,60.3,124.8,60.7,123.9,61.5z"/>
	<path class="st1" d="M135.3,69.2V74h-1.9V59h1.9v1.1c1.1-0.9,2.1-1.4,3.1-1.4c1.3,0,2.3,0.5,3,1.4s1,2.3,1,4c0,1.8-0.4,3.2-1.2,4.2
		c-0.8,1.1-1.9,1.6-3.3,1.6C137,69.9,136.1,69.7,135.3,69.2z M135.3,61.5v6.4c0.7,0.4,1.4,0.6,2.3,0.6c0.9,0,1.6-0.4,2.2-1.1
		s0.8-1.8,0.8-3.1c0-2.7-0.8-4-2.5-4C137.1,60.3,136.2,60.7,135.3,61.5z"/>
</g>
</svg>
