<?xml version="1.0" encoding="utf-8"?>
<!-- Generator: Adobe Illustrator 23.0.0, SVG Export Plug-In . SVG Version: 6.00 Build 0)  -->
<svg version="1.1" id="Capa_1" xmlns="http://www.w3.org/2000/svg" xmlns:xlink="http://www.w3.org/1999/xlink" x="0px" y="0px"
	 viewBox="0 0 104.1 95.4" style="enable-background:new 0 0 104.1 95.4;" xml:space="preserve">
<style type="text/css">
	.st0{fill:none;stroke:#065F85;stroke-width:2;stroke-miterlimit:10;}
	.st1{fill:#065F87;}
</style>
<path class="st0" d="M85.4,92.8H18.3c-8.2,0-14.8-6.6-14.8-14.8V19.4c0-8.2,6.6-14.8,14.8-14.8h67.1c8.2,0,14.8,6.6,14.8,14.8V78
	C100.2,86.2,93.5,92.8,85.4,92.8z"/>
<g>
	<path class="st1" d="M46.2,77.8c0.6,0.3,1.3,0.4,2,0.4h6.9c2.8,0,5.1-2.3,5.1-5.1V48.3l2.5,2.5l1,1c1.9,1.9,5.2,1.9,7.1,0l4.4-4.4
		c1.9-1.9,1.9-5.1,0-7.1l0,0l-7.9-7.9l-0.6-0.6c-1.2-1.2-2.9-2.9-4.5-4.5l0,0c-0.9-0.9-1.7-1.7-2.5-2.5L58,23.1l-2.5-2.5
		c-1.9-1.9-5.2-1.9-7.1,0L44.1,25c-1.9,1.9-5.2,5.2-7.1,7.1l-8.5,8.5c-1.9,1.9-1.9,5.2,0,7.1l4.4,4.4l0,0c1.9,1.9,5.1,1.9,7.1,0
		l3.6-3.6v5.1v19.7C43.3,75.3,44.5,77,46.2,77.8z"/>
</g>
</svg>
