<?xml version="1.0" encoding="utf-8"?>
<!-- Generator: Adobe Illustrator 23.0.0, SVG Export Plug-In . SVG Version: 6.00 Build 0)  -->
<svg version="1.1" id="Capa_1" xmlns="http://www.w3.org/2000/svg" xmlns:xlink="http://www.w3.org/1999/xlink" x="0px" y="0px"
	 viewBox="0 0 104.1 95.4" style="enable-background:new 0 0 104.1 95.4;" xml:space="preserve">
<style type="text/css">
	.st0{fill:none;stroke:#065F85;stroke-width:2;stroke-miterlimit:10;}
	.st1{fill:#155079;}
</style>
<path class="st0" d="M85.4,92.8H18.3c-8.2,0-14.8-6.6-14.8-14.8V19.4c0-8.2,6.6-14.8,14.8-14.8h67.1c8.2,0,14.8,6.6,14.8,14.8V78
	C100.2,86.2,93.5,92.8,85.4,92.8z"/>
<g>
	<g>
		<path class="st1" d="M57.7,43.9c-0.9-0.9-2.4-0.9-3.5-0.2l3.6,3.6C58.7,46.3,58.7,44.9,57.7,43.9z"/>
		<path class="st1" d="M57.7,43.9c0.9,0.9,0.9,2.4,0.2,3.5l1.3,1.3c1.4-1.7,1.4-4.3-0.2-5.8c-1.6-1.6-4.3-1.7-5.8-0.2l1.3,1.3
			C55.2,42.8,56.8,43,57.7,43.9z"/>
		<path class="st1" d="M26.8,51.7L26.8,51.7c-3.5,7.6-4.9,11.5-2.2,17.1c0,0.2,0.2,0.2,0.2,0.3l6.8,6.8c0.2,0,0.2,0.2,0.3,0.2
			c5.4,2.5,10,0.8,16.9-2.4l0,0l19-9L35.9,33L26.8,51.7z"/>
		<path class="st1" d="M59.2,48.6l-1.3-1.3l-3.6-3.6L53,42.5L38.4,27.9c-0.5-0.5-1.3-0.5-1.9,0L34.5,30c-0.3,0.3-0.3,0.6-0.3,0.9
			s0.2,0.6,0.3,0.9l1.4,1.4l31.8,31.8l2.2,2.2c0.3,0.3,0.6,0.3,0.9,0.3s0.6-0.2,0.9-0.3l2.1-2.1c0.3-0.3,0.3-0.6,0.3-0.9
			c0-0.3-0.2-0.6-0.3-0.9L59.2,48.6z"/>
		<path class="st1" d="M59,31.3c0,0.3,0.2,0.6,0.5,0.6c4.3,1.6,7.7,4.7,9.5,9c0.2,0.3,0.3,0.5,0.6,0.5h2.7c0.2,0,0.5-0.2,0.6-0.3
			c0.2-0.2,0.2-0.5,0.2-0.6c-2.1-6-7-10.7-13.1-12.6h-0.2c-0.5,0-0.8,0.3-0.8,0.8L59,31.3z"/>
		<path class="st1" d="M60.9,20.2h-0.2c-0.5,0-0.8,0.3-0.8,0.8v2.7c0,0.3,0.2,0.6,0.5,0.6c7.9,1.9,14.1,8.1,16.3,15.8
			c0.2,0.3,0.3,0.5,0.6,0.5H80c0.2,0,0.5-0.2,0.6-0.3c0.3-0.2,0.3-0.5,0.3-0.6C78.4,29.8,70.5,22.3,60.9,20.2z"/>
	</g>
</g>
</svg>
