<?xml version="1.0" encoding="utf-8"?>
<!-- Generator: Adobe Illustrator 23.0.0, SVG Export Plug-In . SVG Version: 6.00 Build 0)  -->
<svg version="1.1" id="Capa_1" xmlns="http://www.w3.org/2000/svg" xmlns:xlink="http://www.w3.org/1999/xlink" x="0px" y="0px"
	 viewBox="0 0 104.1 95.4" style="enable-background:new 0 0 104.1 95.4;" xml:space="preserve">
<style type="text/css">
	.st0{fill:none;stroke:#065F85;stroke-width:2;stroke-miterlimit:10;}
	.st1{fill:#065F87;}
</style>
<path class="st0" d="M85.4,92.8H18.3c-8.2,0-14.8-6.6-14.8-14.8V19.4c0-8.2,6.6-14.8,14.8-14.8h67.1c8.2,0,14.8,6.6,14.8,14.8V78
	C100.2,86.2,93.5,92.8,85.4,92.8z"/>
<g>
	<path class="st1" d="M81.2,32.6c-0.7-0.1-2.1-0.3-2.1-0.3H42.8l-3-7.3l-1.2-3.1H21.3c-1.8,0-3.3,1.5-3.3,3.3v45.1
		c0,1.8,1.5,3.3,3.3,3.3h61.5c1.8,0,3.3-1.5,3.3-3.3V39.2C86.1,36.1,84,33.5,81.2,32.6z M85.3,68.6H18.8v-2.4h66.7v2.4H85.3z"/>
</g>
</svg>
