<?xml version="1.0" encoding="utf-8"?>
<!-- Generator: Adobe Illustrator 23.0.0, SVG Export Plug-In . SVG Version: 6.00 Build 0)  -->
<svg version="1.1" id="Capa_1" xmlns="http://www.w3.org/2000/svg" xmlns:xlink="http://www.w3.org/1999/xlink" x="0px" y="0px"
	 viewBox="0 0 104.1 95.4" style="enable-background:new 0 0 104.1 95.4;" xml:space="preserve">
<style type="text/css">
	.st0{fill:none;stroke:#065F85;stroke-width:2;stroke-miterlimit:10;}
	.st1{fill:#065F87;}
	.st2{fill:#FFFFFF;}
</style>
<path class="st0" d="M85.4,92.8H18.3c-8.2,0-14.8-6.6-14.8-14.8V19.4c0-8.2,6.6-14.8,14.8-14.8h67.1c8.2,0,14.8,6.6,14.8,14.8V78
	C100.2,86.2,93.5,92.8,85.4,92.8z"/>
<g>
	<g>
		<g>
			<path class="st1" d="M31,17.9c-2.1,0-3.7,1.6-3.7,3.7v53.5c0,2.1,1.6,3.7,3.7,3.7h32.4v-7.1c0-3.2,2.5-5.7,5.7-5.7h7.9V21.4
				c0-2.1-1.6-3.7-3.7-3.7H31V17.9z M67.6,51.1H36.9v-2.5h30.6V51.1z M67.6,42.3H36.9v-2.5h30.6V42.3z M67.6,33.6H36.9v-2.5h30.6
				V33.6z"/>
			<path class="st1" d="M65.5,71.6v5.7l10-9.4h-6.4C67.1,67.9,65.5,69.5,65.5,71.6z"/>
		</g>
		<rect x="36.9" y="27.3" class="st2" width="30.6" height="25.9"/>
		<g>
			<path class="st1" d="M45,34.6c0.3,0.8,1,1.3,1.4,1.3s1-0.5,1.3-1.1c0.2-0.2,0.2-0.5,0.2-0.6s0.2-0.5,0.2-0.8
				c0-0.8-0.8-1.4-1.6-1.4c-1,0-1.6,0.6-1.6,1.4c0,0.2,0,0.3,0,0.5S44.9,34.3,45,34.6z"/>
			<path class="st1" d="M49.1,36.8c-0.3-0.3-1.3-0.3-1.6-0.5c-0.2,0.3-0.2,1-0.5,1l0,0c-0.5,0-0.3-1.3-0.6-1.3
				c-0.3,0-0.2,1.3-0.6,1.3l0,0c-0.3,0-0.3-0.6-0.5-1c-0.5,0.2-1.3,0.2-1.6,0.5c-0.2,0.2-0.3,1.3-0.3,1.9h6.2
				C49.5,38.1,49.3,37,49.1,36.8z"/>
		</g>
		<g>
			<path class="st1" d="M57.4,34.6c0.3,0.8,1,1.3,1.4,1.3c0.5,0,1-0.5,1.3-1.1c0.2-0.2,0.2-0.5,0.2-0.6s0.2-0.5,0.2-0.8
				c0-0.8-0.8-1.4-1.6-1.4c-1,0-1.6,0.6-1.6,1.4c0,0.2,0,0.3,0,0.5S57.2,34.3,57.4,34.6z"/>
			<path class="st1" d="M61.5,36.8c-0.3-0.3-1.3-0.3-1.6-0.5c-0.2,0.3-0.2,1-0.5,1l0,0c-0.5,0-0.3-1.3-0.6-1.3
				c-0.3,0-0.2,1.1-0.8,1.3l0,0c-0.3,0-0.3-0.6-0.5-1c-0.5,0.2-1.3,0.2-1.6,0.5c-0.2,0.2-0.3,1.3-0.3,1.9h6.2
				C61.8,38.1,61.7,37,61.5,36.8z"/>
		</g>
		<g id="g_6_">
			<g id="g_7_">
				<path id="s_23_" class="st1" d="M44.1,47.6c0.3,0,0.6,0.2,0.8,0.5h3c0.2-0.2,0.3-0.3,0.5-0.3v-4h-6.5v4.3h1.3
					C43.3,47.9,43.6,47.6,44.1,47.6z"/>
				<path id="s_22_" class="st1" d="M41.8,48.5L41.8,48.5c0.2,0.2,0.2,0.2,0.2,0.2h1c0-0.2,0-0.3,0-0.3h-1.3v0.2H41.8z"/>
				<path id="s_21_" class="st1" d="M45,48.7h2.7c0-0.2,0-0.3,0-0.3h-2.9C45,48.4,45,48.5,45,48.7z"/>
				<path id="s_20_" class="st1" d="M50.4,45.5c-0.3-0.3-0.6-0.5-1-0.6c-0.3,0-1,0-1,0v2.9h0.2c0.5,0,1,0.5,1,1h0.8
					c0.2,0,0.2,0,0.3-0.2c0.2-0.2,0.2-0.2,0.2-0.3v-1.7C50.9,46.2,50.7,45.7,50.4,45.5z M50.6,46.8L50.6,46.8
					C50.4,47,50.4,47,50.4,47L49,46.6c0,0,0,0-0.2,0c0,0,0,0,0-0.2v-1.3c0,0,0.5,0,0.8,0s0.5,0.2,0.8,0.5c0.2,0.2,0.3,0.5,0.3,0.8
					v0.3H50.6z"/>
				<path id="s_19_" class="st1" d="M44.7,48.2C44.7,48.2,44.7,48.1,44.7,48.2c-0.2-0.3-0.5-0.3-0.6-0.3c-0.3,0-0.5,0.2-0.6,0.3l0,0
					c0,0,0,0,0,0.2c0,0.2-0.2,0.3-0.2,0.3c0,0.5,0.3,0.8,0.8,0.8c0.5,0,0.8-0.3,0.8-0.8C44.9,48.5,44.9,48.4,44.7,48.2L44.7,48.2z
					 M44.1,49c-0.3,0-0.5-0.2-0.5-0.5c0-0.2,0.2-0.3,0.2-0.3h0.2h0.2c0.2,0,0.2,0.2,0.2,0.3C44.4,48.9,44.2,49,44.1,49z"/>
				<path id="s_18_" class="st1" d="M48.7,47.7h-0.2h-0.2c-0.2,0-0.3,0.2-0.3,0.3c-0.2,0.2-0.2,0.3-0.2,0.5c0,0.5,0.3,0.8,0.8,0.8
					s0.8-0.3,0.8-0.8C49.5,48.1,49.1,47.7,48.7,47.7z M48.7,49c-0.3,0-0.5-0.2-0.5-0.5c0-0.2,0-0.2,0-0.3l0.2-0.2h0.2
					c0.3,0,0.5,0.2,0.5,0.5C49,48.9,49,49,48.7,49z"/>
				<rect id="white_stripe_6_" x="41.8" y="44.1" class="st1" width="6.5" height="0.2"/>
			</g>
		</g>
		<g id="g_4_">
			<g id="g_5_">
				<path id="s_17_" class="st1" d="M56.3,47.6c0.3,0,0.6,0.2,0.8,0.5h3c0.2-0.2,0.3-0.3,0.5-0.3v-4h-6.5v4.3h1.4
					C55.7,47.9,56,47.6,56.3,47.6z"/>
				<path id="s_16_" class="st1" d="M54.2,48.5L54.2,48.5c0.2,0.2,0.2,0.2,0.2,0.2h1c0-0.2,0-0.3,0-0.3h-1.3v0.2H54.2z"/>
				<path id="s_15_" class="st1" d="M57.4,48.7h2.7c0-0.2,0-0.3,0-0.3h-2.9C57.2,48.4,57.4,48.5,57.4,48.7z"/>
				<path id="s_14_" class="st1" d="M62.8,45.5c-0.3-0.3-0.6-0.5-1-0.6c-0.3,0-1,0-1,0v2.9h0.2c0.5,0,1,0.5,1,1h0.8
					c0.2,0,0.2,0,0.3-0.2c0.2-0.2,0.2-0.2,0.2-0.3v-1.7C63.3,46.2,63.1,45.7,62.8,45.5z M63,46.8L63,46.8C62.8,47,62.8,47,62.8,47
					l-1.4-0.3c0,0,0,0-0.2,0c0,0,0,0,0-0.2v-1.3c0,0,0.5,0,0.8,0s0.5,0.2,0.8,0.5c0.2,0.2,0.3,0.5,0.3,0.8v0.3H63z"/>
				<path id="s_13_" class="st1" d="M57.1,48.2C57.1,48.2,57.1,48.1,57.1,48.2c-0.2-0.3-0.5-0.3-0.6-0.3c-0.3,0-0.5,0.2-0.6,0.3l0,0
					c0,0,0,0,0,0.2c0,0.2-0.2,0.3-0.2,0.3c0,0.5,0.3,0.8,0.8,0.8s0.8-0.3,0.8-0.8C57.2,48.5,57.1,48.4,57.1,48.2L57.1,48.2z
					 M56.3,49c-0.3,0-0.5-0.2-0.5-0.5c0-0.2,0.2-0.3,0.2-0.3h0.2h0.2c0.2,0,0.2,0.2,0.2,0.3C56.8,48.9,56.6,49,56.3,49z"/>
				<path id="s_12_" class="st1" d="M61.1,47.7h-0.2h-0.2c-0.2,0-0.3,0.2-0.3,0.3c-0.2,0.2-0.2,0.3-0.2,0.5c0,0.5,0.3,0.8,0.8,0.8
					c0.5,0,0.8-0.3,0.8-0.8C61.8,48.1,61.5,47.7,61.1,47.7z M61.1,49c-0.3,0-0.5-0.2-0.5-0.5c0-0.2,0-0.2,0-0.3l0.2-0.2h0.2
					c0.3,0,0.5,0.2,0.5,0.5C61.4,48.9,61.2,49,61.1,49z"/>
				<rect id="white_stripe_2_" x="54.2" y="44.1" class="st1" width="6.5" height="0.2"/>
			</g>
		</g>
	</g>
</g>
</svg>
