<?xml version="1.0" encoding="utf-8"?>
<!-- Generator: Adobe Illustrator 23.0.0, SVG Export Plug-In . SVG Version: 6.00 Build 0)  -->
<svg version="1.1" id="Capa_1" xmlns="http://www.w3.org/2000/svg" xmlns:xlink="http://www.w3.org/1999/xlink" x="0px" y="0px"
	 viewBox="0 0 104.1 95.4" style="enable-background:new 0 0 104.1 95.4;" xml:space="preserve">
<style type="text/css">
	.st0{fill:none;stroke:#065F85;stroke-width:2;stroke-miterlimit:10;}
	.st1{fill:#065F87;}
</style>
<path class="st0" d="M85.4,92.8H18.3c-8.2,0-14.8-6.6-14.8-14.8V19.4c0-8.2,6.6-14.8,14.8-14.8h67.1c8.2,0,14.8,6.6,14.8,14.8V78
	C100.2,86.2,93.5,92.8,85.4,92.8z"/>
<g>
	<g>
		<path class="st1" d="M73.3,77.7l1.6,1.6c0.9,1,3,0.5,4.7-1c1.6-1.6,2.1-3.7,1-4.7l-1.4-1.4l0,0l-0.3-0.3l-5.8,5.8L73.3,77.7z"/>
		<path class="st1" d="M65.2,58.2c2.6-3.7,4.2-8.1,4.2-13.1c0-12.4-10.1-22.5-22.5-22.5c-12.4,0.1-22.5,10.1-22.5,22.5
			s10.1,22.5,22.5,22.5c4.6,0,8.9-1.4,12.4-3.8l12.4,12.3l5.8-5.8L65.2,58.2z M47.1,61c-8.8,0-15.8-7.1-15.8-15.8
			s7.1-15.8,15.8-15.8S63,36.4,63,45.1S55.9,61,47.1,61z"/>
		<path class="st1" d="M39.7,51c0.3,0,0.7-0.1,0.8-0.4l11-13.9c0.4-0.5,0.3-1.2-0.1-1.4c-0.5-0.4-1.2-0.3-1.4,0.1l-11,13.9
			c-0.4,0.5-0.3,1.2,0.1,1.4C39.2,50.9,39.4,51,39.7,51z"/>
		<path class="st1" d="M43.6,55.5c0.3,0.1,0.4,0.3,0.7,0.3c0.3,0,0.7-0.1,0.8-0.4l11-13.9c0.4-0.5,0.3-1.2-0.1-1.4
			c-0.5-0.4-1.2-0.3-1.4,0.1L43.5,54C43.1,54.4,43.2,55.1,43.6,55.5z"/>
	</g>
</g>
</svg>
