<?xml version="1.0" encoding="utf-8"?>
<!-- Generator: Adobe Illustrator 23.0.0, SVG Export Plug-In . SVG Version: 6.00 Build 0)  -->
<svg version="1.1" id="Capa_1" xmlns="http://www.w3.org/2000/svg" xmlns:xlink="http://www.w3.org/1999/xlink" x="0px" y="0px"
	 viewBox="0 0 104.1 95.4" style="enable-background:new 0 0 104.1 95.4;" xml:space="preserve">
<style type="text/css">
	.st0{fill:none;stroke:#065F85;stroke-width:2;stroke-miterlimit:10;}
	.st1{fill:#065F87;}
</style>
<path class="st0" d="M85.4,92.8H18.3c-8.2,0-14.8-6.6-14.8-14.8V19.4c0-8.2,6.6-14.8,14.8-14.8h67.1c8.2,0,14.8,6.6,14.8,14.8V78
	C100.2,86.2,93.5,92.8,85.4,92.8z"/>
<g>
	<g>
		<path class="st1" d="M32.9,21.3c-1.9,0-3.3,1.4-3.3,3.3v48.3c0,1.9,1.4,3.3,3.3,3.3h29.2v-6.4c0-2.9,2.3-5.2,5.2-5.2h7.2V24.5
			c0-1.9-1.4-3.3-3.3-3.3H32.9V21.3z M65.9,51.1H38.1v-2.3h27.6v2.3H65.9z M65.9,43.4H38.1v-2.3h27.6v2.3H65.9z M65.9,35.5H38.1
			v-2.3h27.6v2.3H65.9z"/>
		<path class="st1" d="M64,69.8v5.2l9-8.5h-5.7C65.4,66.5,64,67.9,64,69.8z"/>
	</g>
</g>
</svg>
